<?xml version="1.0" standalone="no"?>
<!DOCTYPE svg PUBLIC "-//W3C//DTD SVG 1.1//EN" "http://www.w3.org/Graphics/SVG/1.1/DTD/svg11.dtd" >
<svg xmlns="http://www.w3.org/2000/svg" xmlns:xlink="http://www.w3.org/1999/xlink" version="1.1">
<metadata>
Created by FontForge 20170731 at Mon Aug 20 13:44:56 2018
 By Aleksey,,,
Copyright (c) 2018 by Piotr ?apa. All rights reserved.
</metadata>
<defs>
<font id="GilmerOutline" horiz-adv-x="0" >
  <font-face 
    font-family="Gilmer Outline"
    font-weight="800"
    font-stretch="normal"
    units-per-em="2048"
    panose-1="0 0 9 0 0 0 0 0 0 0"
    ascent="1618"
    descent="-430"
    x-height="1044"
    cap-height="1434"
    bbox="-866 -559 3059 2013"
    underline-thickness="0"
    underline-position="0"
    unicode-range="U+0020-FB02"
  />
<missing-glyph horiz-adv-x="1024" 
d="M840 1618v-2048h-650v2048h650zM682 1481h-338v-68h133v-76h-135v-67h340v67h-135v76h135v68zM547 1217h-205v-213h340v69h-135v144zM477 1147v-74h-67v74h67zM682 948h-340v-67h135v-76h-135v-68h205v144h135v67zM682 825h-68v-135h-272v-69h340v204zM682 575h-205v-114
h70v47h67v-96h-204v163h-68v-231h340v231zM682 221h-340v-231h340v231zM614 154v-97h-204v97h204zM682 -57h-340v-68h143l-143 -96v-68h340v68h-209l143 96h66v68z" />
    <glyph glyph-name="uniFB01" unicode="fi" horiz-adv-x="1341" 
d="M31 758l-1 286h190v74q0 187 113 297q112 109 326 109q223 0 381 -90l-77 -260q-133 67 -265 66q-62 0 -105 -33q-44 -33 -44 -89v-74h696v-1044h-327v758h-369v-758h-328v758h-190zM58 786l191 1v-757h270v757h426v-757h271v987h-697v102q0 65 51 109q50 43 128 43
q122 0 246 -56l62 205q-139 76 -348 76q-196 0 -303 -99q-106 -99 -106 -279v-102h-191v-230z" />
    <glyph glyph-name="uniFB02" unicode="fl" horiz-adv-x="1368" 
d="M31 758v285h190v74q0 187 114 297q113 109 331 109q337 0 579 -142v-1382h-327v1204q-95 37 -218 37q-64 0 -107 -33q-44 -33 -44 -89v-74h246v-286h-246v-758h-328v758h-190zM59 785l194 1v-757h270v757h246v230h-246v102q0 66 51 109q50 43 128 43q132 0 246 -47v-1194
h271v1337q-229 129 -552 129q-201 0 -309 -99t-108 -279v-102h-191v-230z" />
    <glyph glyph-name="f_f.liga" unicode="ff" horiz-adv-x="1550" 
d="M31 758l-2 290h190v74q0 187 101 297q100 109 287 109q145 0 246 -45l-78 -260q-53 23 -117 21q-51 0 -81 -33t-30 -91v-74h369v74q0 188 100 297t288 109q146 0 246 -45l-77 -260q-53 23 -117 21q-51 0 -81 -33t-30 -91v-74h287v-286h-287v-758h-327v758h-369v-758h-328
v758h-190zM57 790l186 2v-757h270v757h426v-757h271v757h286v230h-286v102q0 70 38 111t102 41q56 0 99 -15l62 207q-85 33 -210 33q-169 0 -264 -99q-94 -98 -94 -279v-102h-426v102q0 70 38 111t101 41q56 0 99 -15l61 207q-86 33 -210 33q-170 0 -264 -99
q-94 -98 -94 -279v-102h-191v-230z" />
    <glyph glyph-name="f_f_i.liga" unicode="ffi" horiz-adv-x="2037" 
d="M31 758v286h190v74q0 188 105 297t302 109q146 0 246 -45l-77 -260q-53 23 -117 21q-53 0 -92 -33t-39 -89v-74h369v74q0 187 113 297q112 109 326 109q223 0 381 -90l-78 -260q-134 68 -264 66q-61 0 -106 -33t-45 -89v-74h697v-1044h-328v758h-369v-758h-327v758h-369
v-758h-328v758h-190zM59 786l187 1v-757h270v757h426v-757h271v757h425v-757h271v987h-696v102q0 65 50 109q49 43 128 43q122 0 245 -56l62 205q-139 76 -346 76q-196 0 -303 -99q-106 -99 -106 -279v-102h-426v102q0 63 46 108q47 45 114 45q55 0 99 -15l62 207
q-86 33 -210 33q-180 0 -279 -99t-99 -279v-102h-191v-230z" />
    <glyph glyph-name="f_f_l.liga" unicode="ffl" horiz-adv-x="2064" 
d="M31 758v287h190v74q0 187 105 297q105 109 302 109q146 0 246 -45l-77 -260q-53 22 -117 21q-59 0 -95 -33t-36 -91v-74h369v74q0 187 114 297q113 109 331 109q336 0 580 -142v-1382h-328v1204q-95 37 -217 37q-63 0 -108 -33t-45 -89v-74h246v-286h-246v-758h-327v758
h-369v-758h-328v758h-190zM59 787l189 2v-757h270v757h426v-757h271v757h245v230h-245v102q0 65 51 109q50 43 129 43q132 0 246 -47v-1194h271v1337q-230 129 -552 129q-201 0 -309 -99t-108 -279v-102h-426v102q0 70 44 111t116 41q55 0 99 -15l62 207q-86 33 -210 33
q-180 0 -279 -99t-99 -279v-102h-191v-230z" />
    <glyph glyph-name=".notdef" horiz-adv-x="1024" 
d="M840 1618v-2048h-650v2048h650zM682 1481h-338v-68h133v-76h-135v-67h340v67h-135v76h135v68zM547 1217h-205v-213h340v69h-135v144zM477 1147v-74h-67v74h67zM682 948h-340v-67h135v-76h-135v-68h205v144h135v67zM682 825h-68v-135h-272v-69h340v204zM682 575h-205v-114
h70v47h67v-96h-204v163h-68v-231h340v231zM682 221h-340v-231h340v231zM614 154v-97h-204v97h204zM682 -57h-340v-68h143l-143 -96v-68h340v68h-209l143 96h66v68z" />
    <glyph glyph-name=".null" 
 />
    <glyph glyph-name="nonmarkingreturn" horiz-adv-x="682" 
 />
    <glyph glyph-name="space" unicode=" " horiz-adv-x="491" 
 />
    <glyph glyph-name="exclam" unicode="!" horiz-adv-x="591" 
d="M121 1434h352l-43 -932h-266zM152 1405l38 -875h213l39 875h-290zM102 176q0 78 57 132t139 54q80 0 135 -54q56 -54 56 -132q0 -82 -56 -138q-55 -55 -135 -55q-83 0 -139 55q-57 56 -57 138zM131 176q0 -70 48 -117q49 -47 118 -47q70 0 117 47t47 117q0 65 -48 112
q-47 46 -116 46q-71 0 -118 -46q-48 -47 -48 -112z" />
    <glyph glyph-name="quotedbl" unicode="&#x22;" horiz-adv-x="839" 
d="M82 1434h303l-37 -506h-229zM455 1434h303l-37 -506h-229zM113 1405l32 -449h177l32 449h-241zM485 1405l33 -449h176l33 449h-242z" />
    <glyph glyph-name="numbersign" unicode="#" horiz-adv-x="1484" 
d="M41 328l39 243h264l35 230h-264l39 243h264l53 338h266l-53 -338h229l54 338h266l-53 -338h264l-39 -243h-264l-35 -230h264l-39 -243h-264l-51 -328h-266l51 328h-230l-51 -328h-266l51 328h-264zM74 356h264l-51 -327h209l51 327h287l-52 -327h209l51 327h265l30 187
h-264l43 286h264l31 187h-264l53 338h-209l-53 -338h-287l54 338h-209l-54 -338h-264l-31 -187h265l-43 -286h-265zM578 543l43 286h286l-43 -286h-286zM610 571h230l34 230h-229z" />
    <glyph glyph-name="dollar" unicode="$" horiz-adv-x="1374" 
d="M41 406l326 96q43 -106 139 -172t231 -66q101 0 162 40q62 41 62 96q0 88 -153 138l-369 114q-149 46 -240 146q-90 99 -87 234q-2 158 117 275t309 144v277h278v-287q170 -38 290 -136q122 -99 168 -223l-314 -92q-43 76 -129 124q-85 48 -187 48q-86 0 -138 -33
t-52 -84q0 -73 96 -102l360 -115q188 -58 291 -147q103 -88 103 -255q0 -176 -135 -300q-135 -125 -355 -150v-274h-278v287q-184 41 -312 156t-183 261zM82 383l-1 -3q62 -143 189 -242q128 -99 294 -132v-280h221v272q219 16 354 135t135 288q0 138 -86 226
q-85 86 -287 151l-360 115q-117 33 -117 129q0 63 62 105t158 42q101 0 190 -46t139 -123l262 78q-52 116 -173 202q-119 85 -276 115v281h-221v-272q-188 -20 -308 -132t-118 -264q-2 -120 79 -212q82 -94 228 -140l369 -115q174 -53 174 -164q0 -72 -72 -117t-181 -45
q-130 0 -231 61q-103 62 -155 171z" />
    <glyph glyph-name="percent" unicode="%" horiz-adv-x="2193" 
d="M72 1030q0 176 123 297q122 121 306 121q183 0 307 -121t124 -297t-124 -297t-306 -121q-181 0 -305 121q-125 122 -125 297zM504 0l930 1434h254l-928 -1434h-256zM100 1030l-2 -2q0 -164 117 -276q116 -112 285 -112t285 113t116 276q0 164 -115 276q-116 113 -285 113
q-170 0 -285 -112q-116 -113 -116 -276zM555 27h186l891 1376h-184zM287 1028q0 90 60 150t152 60t152 -60t60 -150t-61 -150q-62 -60 -151 -60t-151 60q-61 60 -61 150zM315 1028h-1q0 -76 53 -129t132 -53t132 53q52 52 52 129q0 78 -52 130t-132 52t-132 -52t-52 -130z
M1259 399q0 177 123 297t306 120q182 0 307 -120q124 -120 124 -297t-124 -297q-125 -120 -306 -120t-305 120q-125 120 -125 297zM1287 399h-2q0 -163 117 -276q118 -113 285 -113q169 0 285 113t116 276q0 164 -115 276q-116 113 -285 113t-285 -113t-116 -276zM1474 399
h-2q0 90 60 150t153 60t153 -60t60 -150t-61 -150t-151 -60t-151 60t-61 150zM1500 398l-1 -3q0 -76 53 -129t132 -53q80 0 132 54q52 53 52 129q0 79 -52 131q-53 53 -132 53q-80 0 -132 -52t-52 -130z" />
    <glyph glyph-name="ampersand" unicode="&#x26;" horiz-adv-x="1492" 
d="M102 399l-1 -3q0 117 63 225q63 107 186 184q-98 128 -98 243q0 197 129 305t346 108q175 0 300 -102q124 -101 142 -245l-292 -84q-12 65 -54 106q-41 40 -103 40q-67 0 -105 -37q-39 -37 -39 -96q0 -12 5 -30q5 -17 9 -27q4 -9 17 -27q11 -15 17 -21q4 -4 18 -24
l16 -16l316 -340q53 99 74 195l286 -82q-34 -172 -147 -340l305 -330h-395l-109 115q-190 -146 -411 -147q-197 0 -336 120t-139 310zM130 396l-7 -2q0 -174 127 -288q128 -114 321 -114q223 0 414 156l119 -125h317l-276 299q109 150 150 321l-231 68q-28 -106 -88 -209
l-344 371l-2 2q-1 2 -4 5l-7 7q-10 10 -16 20l-15 21q-10 13 -16 25q-1 3 -3.5 8t-5 9.5t-4.5 8.5q-7 12 -10 29q-3 15 -3 32q0 70 48 115t124 45q64 0 111 -37q49 -38 68 -102l240 70q-28 128 -143 214q-113 85 -266 85q-211 0 -328 -102t-117 -282q0 -116 112 -250
q-127 -70 -196 -174t-69 -226zM393 423h-2q0 124 142 209l291 -311q-112 -88 -219 -88q-92 0 -152 54t-60 136zM420 423v-1q0 -67 50 -114t134 -47q86 0 177 64l-252 270q-109 -76 -109 -172z" />
    <glyph glyph-name="quotesingle" unicode="'" horiz-adv-x="466" 
d="M82 1434h303l-37 -506h-229zM113 1405l32 -449h177l32 449h-241z" />
    <glyph glyph-name="parenleft" unicode="(" horiz-adv-x="665" 
d="M645 -276l-317 1q-232 377 -236 900q-4 513 236 901h317q-236 -388 -236 -901t236 -901zM596 -247l-1 -1q-215 382 -215 873q0 497 213 873h-250q-227 -375 -222 -872q5 -506 223 -873h252z" />
    <glyph glyph-name="parenright" unicode=")" horiz-adv-x="665" 
d="M20 -276v-1q236 388 236 901t-236 901h318q240 -386 235 -901q-5 -524 -235 -900h-318zM70 -249h251q218 367 223 873q5 498 -222 872h-250q213 -376 213 -872q0 -491 -215 -873z" />
    <glyph glyph-name="asterisk" unicode="*" horiz-adv-x="876" 
d="M82 1006l192 100l-192 100l92 158l182 -115l-10 215h184l-10 -215l182 115l93 -158l-193 -100l193 -100l-93 -158l-182 117l10 -217h-184l10 217l-182 -117zM123 993l61 -104l203 131l-10 -244h123l-11 242l203 -129l62 104l-211 113l211 113l-62 104l-203 -125l11 238
h-123l10 -238l-203 125l-61 -104l211 -113z" />
    <glyph glyph-name="plus" unicode="+" horiz-adv-x="1146" 
d="M113 590v256h333v334h256v-334h332v-256h-332v-332h-256v332h-333zM141 618h334v-331h199v331h332v199h-332v334h-199v-334h-334v-199z" />
    <glyph glyph-name="comma" unicode="," horiz-adv-x="591" 
d="M82 -281l90 605h338l-174 -605h-254zM115 -252h198l158 547h-274z" />
    <glyph glyph-name="hyphen" unicode="-" horiz-adv-x="983" 
d="M113 492v266h757v-266h-757zM141 520h701v209h-701v-209z" />
    <glyph glyph-name="period" unicode="." horiz-adv-x="550" 
d="M82 176h-2q0 78 57 132t138 54q80 0 137 -54t57 -132q0 -82 -57 -138q-56 -55 -136 -55q-83 0 -138 55q-56 56 -56 138zM109 176h2q0 -70 48 -117q49 -47 117 -47q69 0 116 47t47 117q0 65 -48 112q-47 46 -116 46q-71 0 -118 -46q-48 -47 -48 -112z" />
    <glyph glyph-name="slash" unicode="/" horiz-adv-x="1165" 
d="M51 -186l811 1804h252l-811 -1804h-252zM96 -158h189l784 1747h-188z" />
    <glyph glyph-name="zero" unicode="0" horiz-adv-x="1341" 
d="M61 717v-1q0 333 163 539q164 207 448 207q285 0 447 -207t162 -538q0 -332 -162 -539t-447 -207q-284 0 -448 207q-163 206 -163 539zM90 715q0 -326 158 -522q158 -195 423 -195q266 0 422 195t156 522t-156 522t-422 195q-265 0 -423 -195q-158 -196 -158 -522z
M373 715q0 224 77 346q76 121 222 121q143 0 219 -121q77 -122 77 -346t-77 -346q-76 -121 -219 -121q-146 0 -222 121q-77 122 -77 346zM401 715v-4q0 -206 68 -322q67 -115 203 -115q135 0 201 116t66 323t-66 323t-201 116q-136 0 -203 -115q-68 -116 -68 -322z" />
    <glyph glyph-name="one" unicode="1" horiz-adv-x="913" 
d="M31 1208l438 226h291v-1434h-344v1059l-303 -139zM66 1194l65 -233l313 143v-1075h287v1376h-256z" />
    <glyph glyph-name="two" unicode="2" horiz-adv-x="1214" 
d="M61 1034l1 1q23 176 167 302t356 126q239 0 385 -120q145 -120 145 -339q0 -129 -63 -234t-196 -226l-264 -238h541v-307h-1063v227l553 514q81 73 116 126q36 54 36 116q0 83 -49 129q-50 47 -135 47t-144 -58q-61 -59 -80 -154zM95 1056l253 -73q29 96 95 152
q67 56 152 56q99 0 155 -55q57 -56 57 -150q0 -67 -41 -128t-120 -134l-545 -506v-186h1006v250h-586l320 286q136 124 191 222q56 100 56 216q0 201 -133 315t-369 114q-185 0 -322 -106t-169 -273z" />
    <glyph glyph-name="three" unicode="3" horiz-adv-x="1247" 
d="M61 422l298 84q18 -97 89 -170q70 -72 165 -72q102 0 162 60t60 142t-57 141t-157 59q-77 0 -129 -27l-56 197l232 294h-564v304h1010v-224l-293 -315q155 -38 249 -148t94 -279q0 -208 -151 -352t-376 -144q-253 0 -399 132t-177 318zM91 399l-1 -3q40 -183 185 -292
q144 -108 357 -108q212 0 357 134q144 134 144 333q0 152 -85 258q-86 107 -235 141q-31 6 -54 6l323 349v184h-952v-246h594l-260 -330l43 -151q42 16 111 16q107 0 175 -64q69 -64 69 -162q0 -97 -70 -163t-180 -66q-92 0 -168 66t-105 168z" />
    <glyph glyph-name="four" unicode="4" horiz-adv-x="1277" 
d="M61 258v246l474 930h364l-440 -877h268v258h340v-258h170v-299h-170v-258h-340v258h-666zM90 287h666v-258h282v258h170v241h-170v258h-282v-258h-344l440 877h-299l-463 -907v-211z" />
    <glyph glyph-name="five" unicode="5" horiz-adv-x="1226" 
d="M61 371l307 85q28 -82 93 -136t144 -54q101 0 162 59q60 59 60 149t-58 147q-59 57 -165 57q-124 0 -213 -62l-270 80l61 738h908v-304h-607l-16 -221q99 35 215 35q206 0 339 -138q134 -139 134 -339q0 -211 -150 -354q-149 -142 -376 -142q-231 0 -376 115
q-145 116 -192 285zM99 349l1 -2q53 -164 194 -257t338 -93q213 0 355 133t142 334q0 194 -127 321q-128 128 -318 128q-134 0 -249 -51l23 295h604v246h-852l-57 -688l235 -70q90 59 217 60q114 0 182 -64q69 -64 69 -169q0 -106 -69 -171q-68 -64 -181 -64q-79 0 -150 50
q-70 49 -105 134z" />
    <glyph glyph-name="six" unicode="6" horiz-adv-x="1220" 
d="M51 487l-1 -1q0 142 101 303l407 643h383l-280 -443q223 -17 366 -156q142 -139 142 -348q0 -221 -159 -368t-399 -147q-239 0 -400 147q-160 147 -160 370zM79 486h1q0 -211 150 -349t380 -138q226 0 378 140t152 348q0 197 -135 327t-348 147q-30 2 -48 2l281 440h-316
l-399 -629q-96 -158 -96 -288zM360 486v-1q0 103 71 171t179 68q109 0 179 -67q71 -68 71 -172q0 -107 -69 -174q-68 -67 -180 -67q-110 0 -181 68q-70 67 -70 174zM389 485h-1q0 -94 60 -154t161 -60t161 60t60 154q0 90 -60 150t-161 60q-97 0 -159 -60q-61 -60 -61 -150z
" />
    <glyph glyph-name="seven" unicode="7" horiz-adv-x="1124" 
d="M31 1434h1052v-232l-524 -1202h-328l-6 -12l-8 12h-18l8 16l-8 13h12l483 1097h-663v308zM1055 1208v197h-996v-250h680l-495 -1126h297z" />
    <glyph glyph-name="eight" unicode="8" horiz-adv-x="1261" 
d="M61 420l-1 -1q0 254 238 362q-176 95 -176 294q0 164 139 275t369 111t369 -111q140 -111 140 -275q0 -199 -176 -294q239 -111 237 -362q0 -190 -157 -319t-411 -129q-256 0 -414 128q-157 127 -157 321zM89 419v1q0 -184 152 -303q151 -118 390 -118q235 0 387 119
t152 300q0 258 -276 358q215 96 215 297q0 157 -134 258t-345 101q-212 0 -345 -100q-134 -101 -134 -258q0 -202 210 -297q-272 -102 -272 -358zM421 1044v-1q0 80 60 131t150 51q91 0 150 -52q60 -53 60 -130q0 -79 -60 -132q-59 -52 -150 -52q-89 0 -150 53
q-60 52 -60 132zM450 1042q0 -66 49 -111t132 -45t132 46t49 110q0 63 -49 108t-132 45t-132 -45t-49 -108zM374 446h-2q0 100 71 163t186 63q113 0 185 -63t72 -163q0 -98 -72 -161t-184 -63q-115 0 -186 62q-70 61 -70 162zM400 446l1 -2q0 -84 60 -139q59 -55 167 -55
q103 0 165 56t62 140q0 86 -61 141t-165 55q-107 0 -168 -55t-61 -141z" />
    <glyph glyph-name="nine" unicode="9" horiz-adv-x="1220" 
d="M1169 946v2q0 -143 -100 -303l-407 -643h-383l280 442q-223 16 -366 156q-142 139 -142 348q0 221 160 368t400 147t399 -147t159 -370zM1141 948l-1 -1q0 212 -150 350t-380 138q-227 0 -378 -139t-151 -348q0 -196 134 -327q133 -130 347 -147q30 -2 48 -2l-280 -440
h315l399 628q97 157 97 288zM859 947l-1 -1q0 -104 -70 -171t-179 -67q-108 0 -179 68t-71 171q0 107 70 174q71 68 181 68t180 -68q69 -67 69 -174zM829 946h-1q0 94 -60 154t-160 60q-101 0 -161 -60t-60 -154q0 -90 60 -150t161 -60q98 0 159 60q62 60 62 150z" />
    <glyph glyph-name="colon" unicode=":" horiz-adv-x="550" 
d="M82 874h-2q0 78 57 132t138 54q80 0 137 -54t57 -132q0 -82 -57 -138q-56 -55 -136 -55q-83 0 -138 55q-56 56 -56 138zM109 874h2q0 -70 48 -117q47 -46 117 -46q69 0 116 47t47 116q0 66 -48 112q-47 46 -116 46q-71 0 -118 -46q-48 -46 -48 -112zM82 176h-2
q0 78 57 132t138 54q80 0 137 -54t57 -132q0 -82 -57 -138q-56 -55 -136 -55q-83 0 -138 55q-56 56 -56 138zM109 176h2q0 -70 48 -117q49 -47 117 -47q69 0 116 47t47 117q0 65 -48 112q-47 46 -116 46q-71 0 -118 -46q-48 -47 -48 -112z" />
    <glyph glyph-name="semicolon" unicode=";" horiz-adv-x="600" 
d="M131 877v-2q0 78 57 132t139 54q79 0 135 -54t56 -131q0 -82 -56 -138q-55 -55 -135 -55q-81 0 -139 56q-57 55 -57 138zM160 875h1q0 -71 48 -117q49 -47 117 -47q69 0 116 47t47 117q0 66 -48 111t-115 45q-70 0 -118 -45t-48 -111zM83 -283l90 605h338l-174 -605h-254
zM116 -254h198l158 547h-274z" />
    <glyph glyph-name="less" unicode="&#x3c;" horiz-adv-x="1136" 
d="M92 569v297l922 348v-276l-619 -219l619 -221v-277zM121 590l864 -328v215l-653 234v16l653 231v216l-864 -328v-256z" />
    <glyph glyph-name="equal" unicode="=" horiz-adv-x="1146" 
d="M113 795v256h921v-256h-921zM141 823h865v199h-865v-199zM113 385v256h921v-256h-921zM141 414h865v198h-865v-198z" />
    <glyph glyph-name="greater" unicode="&#x3e;" horiz-adv-x="1136" 
d="M1044 569l-921 -348v277l618 221l-618 219v276l921 -348v-297zM1016 590v256l-864 328v-216l653 -231v-16l-653 -234v-215z" />
    <glyph glyph-name="question" unicode="?" horiz-adv-x="1177" 
d="M61 1026l-5 1q22 181 161 309q137 127 360 127q222 0 363 -117t141 -297q0 -85 -39 -162q-40 -78 -79 -117q-41 -40 -108 -96q-54 -46 -69 -61q-20 -20 -41 -51q-22 -32 -22 -61h-317q0 66 29 129q28 60 60 97q27 31 86 85q6 6 30 27t31 28q2 2 10.5 10t15.5 15
q21 21 26 27q9 10 20 26q13 17 17 29q5 12 9 27q4 13 4 32q0 59 -45 95t-120 36q-84 0 -142 -63q-59 -63 -81 -165zM89 1048l242 -78q29 103 93 161q65 59 150 59q88 0 141 -44t53 -116q0 -16 -5 -36t-9 -32q-5 -14 -18 -32q-3 -4 -8 -10.5t-8 -10.5t-5 -7q-8 -12 -28 -30
q-5 -5 -11.5 -11t-10 -9t-5.5 -5t-6 -5.5t-11.5 -10t-14.5 -12.5q-26 -23 -30 -27q-74 -68 -114 -126t-49 -136h262q12 56 140 166q70 57 104 93q38 39 74 109q37 71 37 152q0 168 -133 276t-342 108q-191 0 -325 -106q-135 -106 -163 -280zM370 173h-1q0 78 56 132
q55 54 138 54q80 0 137 -54t57 -132q0 -83 -57 -138q-56 -55 -136 -55q-83 0 -138 55q-56 56 -56 138zM397 173h2q0 -71 48 -117q49 -47 117 -47q69 0 116 47t47 117q0 65 -48 112q-47 46 -116 46q-71 0 -118 -46q-48 -47 -48 -112z" />
    <glyph glyph-name="at" unicode="@" horiz-adv-x="1990" 
d="M72 524h-3q0 252 126 461t341 329q214 120 471 120q397 0 654 -254q256 -253 256 -645q0 -239 -123 -378t-311 -139q-217 0 -295 166q-109 -121 -256 -121q-186 0 -306 129t-120 330t120 331t306 130q142 0 242 -111v86h251v-639q0 -58 24 -86.5t71 -27.5q77 0 126 88
q50 89 50 240q0 306 -187 500q-187 195 -498 195q-304 0 -512 -202q-209 -203 -209 -501q0 -291 198 -486t497 -195q253 0 399 119l58 -201q-174 -124 -463 -123q-393 0 -650 255t-257 630zM97 524l1 -1q0 -367 251 -613t627 -246q264 0 430 109l-41 141
q-155 -100 -383 -100q-308 0 -516 203q-207 203 -207 506q0 308 216 520q215 211 534 211q318 0 516 -201t198 -523q0 -161 -55 -258q-56 -98 -150 -98q-57 0 -90 38t-33 105v611h-195v-131q-116 156 -270 155q-174 0 -285 -121t-111 -310t111 -310t285 -121q152 0 266 146
q33 -97 101 -144q67 -46 185 -46q182 0 293 135t111 353q0 379 -249 625t-631 246t-645 -256q-264 -257 -264 -625zM739 523l-1 -2q0 111 66 180t176 69q104 0 170 -69t66 -178q0 -111 -66 -181t-170 -70q-109 0 -175 69t-66 182zM767 521l-4 2q0 -98 59 -162
q58 -63 155 -63q90 0 149 62t59 162q0 98 -57 158t-149 60q-95 0 -154 -60q-58 -59 -58 -159z" />
    <glyph glyph-name="A" unicode="A" horiz-adv-x="1507" 
d="M0 0l530 1434h447l530 -1434h-350l-100 274h-606l-101 -274h-350zM41 29h289l100 274h647l101 -274h288l-510 1376h-405zM518 543l223 614h25l223 -614h-471zM559 571h389l-194 537z" />
    <glyph glyph-name="B" unicode="B" horiz-adv-x="1423" 
d="M123 0l-1 1434h700q219 0 354 -108t135 -283q0 -197 -172 -294q223 -109 223 -340q0 -193 -134 -301t-368 -108h-737zM151 29h708q224 0 348 100q125 101 125 282q0 240 -254 333v7q203 95 203 294q0 162 -126 261t-333 99h-671v-1376zM425 827v345h397q79 2 132 -46
q54 -48 54 -121q0 -76 -54 -127t-132 -51h-397zM454 857l368 -2q68 0 111 43q44 44 44 105t-44 102q-43 41 -111 39h-368v-287zM425 263l-1 354h434q88 0 141 -48t53 -128q0 -79 -54 -129q-53 -49 -139 -49h-434zM453 292h405q76 0 120 42t44 107q0 68 -43 108t-121 40h-405
v-297z" />
    <glyph glyph-name="C" unicode="C" horiz-adv-x="1583" 
d="M68 717h-3q0 316 215 531q214 214 536 214q286 0 471 -145q187 -146 233 -336l-332 -82q-28 97 -129 171q-100 73 -240 73q-182 0 -293 -123t-111 -301q0 -175 113 -302q112 -126 293 -126q140 0 240 71t128 168l332 -84q-46 -187 -231 -331q-184 -144 -465 -144
q-325 0 -541 213t-216 533zM93 717h-2q0 -308 208 -513t522 -205q238 0 420 119t242 306l-279 70q-40 -104 -147 -168q-107 -65 -240 -65q-185 0 -310 131q-124 130 -124 326t123 324t311 128q131 0 239 -66t149 -170l279 67q-59 191 -244 312q-187 122 -424 122
q-310 0 -516 -205q-207 -206 -207 -513z" />
    <glyph glyph-name="D" unicode="D" horiz-adv-x="1529" 
d="M123 0l-1 1435h661q304 0 491 -199q188 -200 188 -519q0 -315 -186 -516t-492 -201h-661zM151 30l633 -2q290 0 470 191t180 498t-180 498t-471 191h-632v-1376zM430 275l1 881h346q164 0 267 -121q104 -122 104 -313q0 -195 -105 -321t-267 -126h-346zM460 304l317 -1
q147 0 245 116t98 302q0 185 -97 295q-97 111 -246 111h-317v-823z" />
    <glyph glyph-name="E" unicode="E" horiz-adv-x="1284" 
d="M123 0v1434h1079v-308h-747v-249h643v-297h-643v-273h745v-307h-1077zM152 29h1019v250h-745v329h643v240h-643v307h748v250h-1022v-1376z" />
    <glyph glyph-name="F" unicode="F" horiz-adv-x="1220" 
d="M123 0v1434h1067v-310h-727v-284h622v-303h-622v-537h-340zM152 29h282v536h623v246h-623v342h727v252h-1009v-1376z" />
    <glyph glyph-name="G" unicode="G" horiz-adv-x="1636" 
d="M68 716l-2 1q0 318 217 532t538 214q261 0 443 -127q183 -128 255 -318l-316 -90q-113 215 -378 215q-181 0 -298 -123t-117 -301q0 -179 120 -306t335 -127q145 0 235 69q89 68 112 167l-376 -2v293h733v-170q0 -295 -201 -484t-528 -189q-335 0 -553 214
q-219 214 -219 532zM94 717h-1q0 -307 212 -513q211 -205 531 -205q310 0 506 179q195 178 195 465v141h-676v-235l383 2q-14 -131 -120 -213t-261 -82q-215 0 -348 129q-134 129 -134 332q0 196 127 324q128 129 318 129q272 0 393 -208l262 73q-78 182 -255 290t-405 108
q-309 0 -518 -206t-209 -510z" />
    <glyph glyph-name="H" unicode="H" horiz-adv-x="1490" 
d="M123 0v1434h340v-551h565v551h340v-1434h-340v575h-565v-575h-340zM152 29h282v575h623v-575h282v1376h-282v-551h-623v551h-282v-1376z" />
    <glyph glyph-name="I" unicode="I" horiz-adv-x="589" 
d="M123 0v1434h344v-1434h-344zM152 29h286v1376h-286v-1376z" />
    <glyph glyph-name="J" unicode="J" horiz-adv-x="1282" 
d="M41 365l317 94q58 -191 249 -192q102 0 162 66t60 167v637h-628v297h966v-945q0 -239 -151 -378q-152 -140 -403 -140q-215 0 -360 106q-146 107 -212 288zM78 348h-2q71 -169 207 -257q137 -89 329 -89q242 0 384 132q143 132 143 357v916h-910v-240h629v-665
q0 -116 -70 -189t-181 -73q-94 0 -163 48q-70 49 -104 136z" />
    <glyph glyph-name="K" unicode="K" horiz-adv-x="1464" 
d="M123 0v1434h340v-623l520 623h430l-549 -619l590 -815h-412l-401 563l-178 -201v-362h-340zM152 29h282v344l209 235l414 -579h342l-572 788l525 588h-355l-563 -674v674h-282v-1376z" />
    <glyph glyph-name="L" unicode="L" horiz-adv-x="1177" 
d="M123 0v1434h340v-1123h674v-311h-1014zM152 29h956v254h-674v1122h-282v-1376z" />
    <glyph glyph-name="M" unicode="M" horiz-adv-x="1767" 
d="M123 0v1434h323l439 -637l436 637h324v-1434h-340v840l-422 -576l-420 576v-840h-340zM152 29h282v897l449 -613l450 613v-897h283v1376h-281l-450 -660l-453 660h-280v-1376z" />
    <glyph glyph-name="N" unicode="N" horiz-adv-x="1507" 
d="M123 0v1434h276l645 -822v822h340v-1434h-276l-645 821v-821h-340zM152 29h282v876l688 -876h234v1376h-283v-877l-688 877h-233v-1376z" />
    <glyph glyph-name="O" unicode="O" horiz-adv-x="1654" 
d="M68 716v-2q0 320 216 533t543 213t543 -213t216 -532t-216 -532t-543 -213t-543 213t-216 533zM96 714h-2q0 -309 208 -513t524 -204t524 204t208 513t-208 513q-209 204 -523 204q-315 0 -523 -204t-208 -513zM381 714h-2q0 200 125 331q124 130 320 130t320 -130
q125 -131 125 -331q0 -202 -125 -332q-125 -129 -319 -129q-195 0 -319 129q-125 130 -125 332zM408 713q0 -186 114 -309t300 -123t300 123t114 309t-114 309t-300 123t-300 -123t-114 -309z" />
    <glyph glyph-name="P" unicode="P" horiz-adv-x="1357" 
d="M123 0l-2 1433h690q229 0 372 -158t143 -357q0 -202 -144 -360q-144 -157 -383 -157h-340v-401h-336zM150 28l278 -1v401h369q211 0 355 141t144 348q0 203 -141 345t-344 142h-661v-1376zM428 674l-1 477h375q90 0 156 -70q66 -71 66 -169q0 -100 -69 -169t-166 -69
h-361zM456 701l333 1q89 0 148 63q58 62 58 147t-55 147q-56 63 -138 63h-346v-421z" />
    <glyph glyph-name="Q" unicode="Q" horiz-adv-x="1642" 
d="M68 716l1 1q0 315 219 530q220 215 530 215t530 -215q219 -215 219 -530q0 -275 -181 -486l189 -231h-332l-59 68q-173 -95 -367 -97q-310 0 -530 215q-219 214 -219 530zM97 717v1q0 -301 209 -510q208 -208 512 -208q200 0 373 104l65 -75h258l-163 202
q188 208 188 486q0 301 -209 510q-208 208 -512 208t-512 -208q-209 -209 -209 -510zM372 718h-1q0 205 123 334t323 129q199 0 324 -129q124 -128 124 -334q0 -159 -80 -283l-164 203h-301l301 -342q-96 -41 -204 -41q-199 0 -322 129t-123 334zM399 717l-1 -1
q0 -191 116 -312q116 -120 302 -120q83 0 154 24l-316 359h379l146 -181q55 103 55 231q0 195 -115 314q-116 120 -302 120q-187 0 -302 -121q-116 -122 -116 -313z" />
    <glyph glyph-name="R" unicode="R" horiz-adv-x="1441" 
d="M123 0l-1 1434h717q227 0 368 -147t141 -337q0 -141 -77 -260t-216 -176l346 -514h-391l-305 471h-246v-471h-336zM151 29h277v471h291l305 -471h320l-336 499q141 45 225 160q84 116 84 262q0 191 -138 323t-340 132h-688v-1376zM428 739v418h399q90 0 154 -61t64 -147
q0 -90 -67 -150q-68 -60 -165 -60h-385zM457 766l355 1q88 0 146 53q57 52 57 129q0 74 -55 126q-56 53 -133 53h-370v-362z" />
    <glyph glyph-name="S" unicode="S" horiz-adv-x="1374" 
d="M51 406l325 95q43 -106 139 -172t231 -66q101 0 162 40q62 41 62 96q0 89 -154 138l-369 114q-149 46 -240 146q-90 98 -88 234q-1 179 150 303q152 125 381 125q228 0 401 -109q175 -110 233 -267l-313 -92q-43 76 -129 124t-189 48q-85 0 -138 -33q-52 -33 -52 -84
q0 -74 96 -102l361 -115q188 -59 290 -147t102 -255q0 -195 -163 -325t-426 -130q-253 0 -429 126q-175 126 -243 308zM91 382l-2 -1q76 -178 247 -283t388 -105q246 0 402 120t156 306q0 138 -86 226q-85 86 -287 151l-360 115q-117 33 -117 129q0 63 62 105t158 42
q101 0 190 -46t139 -123l262 78q-68 148 -232 239q-166 92 -361 92q-216 0 -359 -115q-144 -115 -142 -285q-2 -120 79 -212q82 -94 229 -140l368 -115q174 -53 174 -164q0 -72 -72 -117t-181 -45q-130 0 -231 61q-102 61 -156 171z" />
    <glyph glyph-name="T" unicode="T" horiz-adv-x="1314" 
d="M31 1126v308h1253v-308h-457v-1126h-340v1126h-456zM59 1155h457v-1126h283v1126h456v250h-1196v-250z" />
    <glyph glyph-name="U" unicode="U" horiz-adv-x="1499" 
d="M113 596l-2 838h344v-832q0 -142 75 -231q75 -88 219 -88t219 88q75 89 75 231v832h344v-838q0 -283 -168 -454t-469 -171q-304 0 -470 171q-167 172 -167 454zM139 596l-1 1q0 -279 162 -438t447 -159q284 0 446 159t162 437v809h-287v-803q0 -161 -86 -255
q-86 -93 -235 -93t-235 93q-86 94 -86 255v803h-287v-809z" />
    <glyph glyph-name="V" unicode="V" horiz-adv-x="1490" 
d="M0 1434h377l368 -998l371 998h375l-559 -1434h-373zM41 1405l539 -1376h331l539 1376h-313l-383 -1028h-17l-381 1028h-315z" />
    <glyph glyph-name="W" unicode="W" horiz-adv-x="2066" 
d="M1708 1434h358l-428 -1434h-368l-236 817l-237 -817h-369l-428 1434h358l260 -922l263 922h305l262 -922zM1618 29l410 1376h-297l-281 -1004l-287 1004h-260l-287 -1004l-280 1004h-297l410 -1376h325l260 891l258 -891h326z" />
    <glyph glyph-name="X" unicode="X" horiz-adv-x="1474" 
d="M10 0l504 721l-491 713h409l305 -449l305 449h410l-491 -713l503 -721h-409l-318 459l-317 -459h-410zM63 29h343l331 481l332 -481h342l-485 692l471 684h-340l-320 -471l-319 471h-340l471 -684z" />
    <glyph glyph-name="Y" unicode="Y" horiz-adv-x="1415" 
d="M0 1434h383l326 -586l325 586h381l-534 -918v-516h-344v516zM49 1405l516 -881v-495h287v495l514 881h-315l-342 -617l-342 617h-318z" />
    <glyph glyph-name="Z" unicode="Z" horiz-adv-x="1306" 
d="M61 0v227l697 906h-686v301h1153v-232l-690 -901h710v-301h-1184zM90 29h1127v243h-742l721 940v193h-1096v-244h717l-727 -944v-188z" />
    <glyph glyph-name="bracketleft" unicode="[" horiz-adv-x="716" 
d="M123 -276v1802h553v-287h-236v-1229h236v-286h-553zM152 -248h495v230h-235v1286h235v229h-495v-1745z" />
    <glyph glyph-name="backslash" unicode="\" horiz-adv-x="1165" 
d="M1114 -186h-252l-811 1804h252zM1069 -158l-784 1747h-189l785 -1747h188z" />
    <glyph glyph-name="bracketright" unicode="]" horiz-adv-x="716" 
d="M594 -276h-553v286h235v1229h-235v287h553v-1802zM565 -248v1745h-495v-229h235v-1286h-235v-230h495z" />
    <glyph glyph-name="asciicircum" unicode="^" horiz-adv-x="1239" 
d="M61 778l398 717h323l396 -717h-326l-231 422l-234 -422h-326zM111 807h260l241 438h17l239 -438h260l-362 659h-291z" />
    <glyph glyph-name="underscore" unicode="_" horiz-adv-x="1269" 
d="M72 -328v246h1126v-246h-1126zM100 -299h1069v188h-1069v-188z" />
    <glyph glyph-name="grave" unicode="`" horiz-adv-x="509" 
d="M510 1204h-277l-233 291h356zM463 1233l-123 233h-281l189 -233h215z" />
    <glyph glyph-name="a" unicode="a" horiz-adv-x="1320" 
d="M61 522h-1q0 236 147 393q147 158 360 158q185 0 301 -125v96h328v-1044h-328v96q-119 -125 -300 -125q-213 0 -360 158q-147 157 -147 393zM89 521l-1 2q0 -223 138 -373t342 -150q200 0 330 174v-145h270v987h-270v-144q-124 172 -329 172q-204 0 -342 -150t-138 -373z
M354 525h-1q0 127 77 207t195 80q122 0 200 -81t78 -206q0 -127 -78 -210q-78 -82 -199 -82q-119 0 -195 82q-77 83 -77 210zM382 525l-2 -1q0 -117 69 -189t176 -72q110 0 180 73q71 74 71 189q0 114 -71 187q-71 72 -179 72q-106 0 -175 -72t-69 -187z" />
    <glyph glyph-name="b" unicode="b" horiz-adv-x="1320" 
d="M123 0l-1 1494h328v-547q116 125 301 125q213 0 360 -157t147 -393t-147 -393q-147 -158 -360 -158q-181 0 -300 125v-96h-328zM151 28l271 -2v145q128 -174 330 -174q206 0 342 150q137 151 137 373q0 223 -138 373t-342 150q-203 0 -330 -172v594h-270v-1437zM414 521
h-1q0 125 78 206t200 81q118 0 195 -80t77 -207t-77 -210q-76 -82 -195 -82q-121 0 -199 82q-78 83 -78 210zM441 521v-1q0 -116 71 -189q70 -72 179 -72q106 0 175 73q69 74 69 189t-69 187t-175 72q-109 0 -180 -72q-70 -71 -70 -187z" />
    <glyph glyph-name="c" unicode="c" horiz-adv-x="1189" 
d="M61 522l-2 -4q0 235 158 393t396 158q209 0 350 -108t174 -245l-303 -86q-13 60 -74 106q-60 45 -144 45q-106 0 -172 -75t-66 -183t66 -186t172 -78q83 0 144 44q60 43 75 104l303 -86q-33 -137 -172 -243q-140 -107 -345 -107q-241 0 -401 158q-159 157 -159 393z
M88 517l-2 -1q0 -224 150 -373q149 -148 380 -148q171 0 305 85t178 216l-250 72q-27 -63 -91 -102t-144 -39q-112 0 -189 84q-76 83 -76 209q0 125 76 207t190 82q77 0 144 -41q66 -40 93 -104l250 71q-44 133 -180 219q-137 86 -309 86q-225 0 -375 -150t-150 -373z" />
    <glyph glyph-name="d" unicode="d" horiz-adv-x="1320" 
d="M61 522h-1q0 236 147 393q147 158 360 158q185 0 301 -125v547h328v-1495h-328v96q-119 -125 -300 -125q-213 0 -360 158q-147 157 -147 393zM89 521l-1 2q0 -223 138 -373t342 -150q202 0 330 174v-145h270v1437h-270v-594q-124 172 -329 172q-204 0 -342 -150
t-138 -373zM354 525h-1q0 127 77 207t195 80q122 0 200 -81t78 -206q0 -127 -78 -210q-78 -82 -199 -82q-119 0 -195 82q-77 83 -77 210zM382 525l-2 -1q0 -117 69 -189t176 -72q110 0 180 73q71 74 71 189q0 114 -71 187q-71 72 -179 72q-106 0 -175 -72t-69 -187z" />
    <glyph glyph-name="e" unicode="e" horiz-adv-x="1222" 
d="M635 -29v-1q-256 0 -415 153t-159 397q0 240 153 396t400 156q252 0 399 -153t147 -387q0 -60 -8 -110h-772q39 -178 260 -178q151 0 209 106l295 -86q-50 -114 -184 -203q-135 -90 -325 -90zM635 -1l-4 -2q151 0 281 68q129 67 189 179l-242 71q-67 -102 -221 -102
q-129 0 -206 62q-76 61 -87 174h780q5 49 6 81q0 230 -142 371t-376 141q-229 0 -376 -147t-147 -377q0 -231 150 -375t395 -144zM346 589l-1 -2q1 101 78 168q77 68 184 68q113 0 188 -66t73 -168h-522zM376 616h460q-8 74 -70 126t-159 52q-96 0 -158 -53
q-61 -52 -73 -125z" />
    <glyph glyph-name="f" unicode="f" horiz-adv-x="854" 
d="M31 758v288h190v74q0 187 101 297q100 109 287 109q145 0 246 -45l-78 -260q-53 23 -117 21q-51 0 -81 -33t-30 -91v-74h287v-286h-287v-758h-328v758h-190zM59 788l190 1v-757h270v757h287v230h-287v102q0 70 38 111t101 41q56 0 99 -15l61 207q-86 33 -210 33
q-170 0 -264 -99q-94 -98 -94 -279v-102h-191v-230z" />
    <glyph glyph-name="g" unicode="g" horiz-adv-x="1310" 
d="M61 543v-1q0 238 144 384t367 146q173 0 289 -125v96h328v-1005q0 -221 -150 -359t-400 -138q-356 0 -506 273l283 102q70 -109 231 -109q104 0 158 63t54 167v100q-116 -125 -289 -125q-221 0 -365 153t-144 378zM90 542h-1q0 -214 138 -358t344 -144q190 0 318 176
v-180q0 -120 -64 -188q-65 -69 -177 -69q-162 0 -241 102l-230 -82q142 -229 462 -229q235 0 378 129q142 129 142 340v977h-270v-148q-128 176 -318 176q-214 0 -347 -139q-134 -140 -134 -363zM355 542l-1 -1q0 119 76 192q77 74 198 74q122 0 195 -73q74 -74 74 -192
q0 -119 -73 -192q-74 -74 -195 -74t-198 74q-76 73 -76 192zM383 540h-1q0 -106 68 -172t176 -66t174 66t66 172t-66 172t-174 66t-176 -66q-67 -66 -67 -172z" />
    <glyph glyph-name="h" unicode="h" horiz-adv-x="1280" 
d="M123 0v1493h328v-559q119 137 309 137q203 0 305 -125q102 -124 102 -339v-608h-327v543q0 227 -187 227q-94 0 -148 -69t-54 -190v-510h-328zM152 27l268 -2v481q0 133 63 211t169 78q102 0 159 -66t57 -189v-514h271v579q0 211 -99 324t-280 113q-209 0 -338 -188v610
h-270v-1437z" />
    <glyph glyph-name="i" unicode="i" horiz-adv-x="569" 
d="M96 1352l-2 1q0 76 56 129t133 53t133 -54t56 -129q0 -78 -55 -132t-133 -54t-133 54t-55 132zM123 1353h-2q0 -66 46 -112t114 -46t114 46t46 112q0 63 -47 108t-112 45q-66 0 -112 -45q-47 -45 -47 -108zM113 1v1044h327v-1044h-327zM141 30h271v987h-271v-987z" />
    <glyph glyph-name="j" unicode="j" horiz-adv-x="573" 
d="M100 1352l-2 1q0 76 56 129t134 53t133 -54t55 -129q0 -78 -55 -132t-133 -54t-133 54t-55 132zM127 1353q0 -66 46 -112t114 -46t114 46q47 47 47 112q0 63 -48 108t-114 45t-112 -45q-47 -45 -47 -108zM-145 -413l71 251q38 -20 81 -20q113 0 113 153v1075h328v-1044
q0 -218 -96 -339t-291 -121q-102 0 -206 45zM-111 -395q89 -33 172 -33q356 0 357 430v1016h-270v-1047q0 -87 -37 -134q-37 -48 -105 -48q-28 0 -61 10z" />
    <glyph glyph-name="k" unicode="k" horiz-adv-x="1175" 
d="M123 0v1495h328v-833l313 382h377l-387 -446l422 -598h-369l-256 362l-100 -114v-248h-328zM152 29h270v229l131 152l268 -381h299l-403 571l360 416h-299l-305 -373l-51 19v804h-270v-1437z" />
    <glyph glyph-name="l" unicode="l" horiz-adv-x="573" 
d="M123 0v1495h328v-1495h-328zM152 29h270v1437h-270v-1437z" />
    <glyph glyph-name="m" unicode="m" horiz-adv-x="1914" 
d="M123 0v1044h328v-102q113 131 288 131q207 0 303 -139q130 139 344 139q191 0 303 -118q113 -119 113 -339v-616h-327v543q0 227 -166 227q-181 0 -183 -252v-518h-327v543q0 227 -166 227q-182 0 -182 -252v-518h-328zM152 29l269 -1v489q0 281 211 281q195 0 194 -256
v-514h271v489q0 281 211 281q195 0 194 -256v-514h271v587q0 201 -102 315t-285 114q-224 0 -348 -159q-86 161 -299 159q-195 0 -317 -182v154h-270v-987z" />
    <glyph glyph-name="n" unicode="n" horiz-adv-x="1280" 
d="M123 0v1042h328v-108q119 137 309 137q203 0 305 -125q102 -124 102 -339v-608h-327v543q0 227 -187 227q-94 0 -148 -69t-54 -190v-510h-328zM152 27l268 -2v481q0 133 63 211t169 78q102 0 159 -66t57 -189v-514h271v579q0 211 -99 324t-280 113q-208 0 -338 -190v162
h-270v-987z" />
    <glyph glyph-name="o" unicode="o" horiz-adv-x="1245" 
d="M61 522v-1q0 235 159 393q160 158 402 158q244 0 402 -157q159 -157 159 -393t-159 -393q-160 -158 -402 -158t-402 158q-159 157 -159 393zM90 521l-2 -2q0 -225 152 -374q151 -148 381 -148q229 0 381 149t152 374q0 226 -151 374t-381 148t-381 -148t-151 -373z
M348 518l-2 -1q0 128 76 207t197 79t197 -79t76 -207t-76 -205q-76 -78 -196 -78t-196 78q-76 77 -76 206zM375 517v-1q0 -112 66 -184t177 -72t177 72t66 185q0 112 -66 184t-177 72t-177 -72t-66 -184z" />
    <glyph glyph-name="p" unicode="p" horiz-adv-x="1320" 
d="M123 -430l-1 1473h328v-96q116 125 301 125q213 0 360 -157t147 -393t-147 -393q-147 -158 -360 -158q-181 0 -300 125v-526h-328zM151 -402l271 -2v573q129 -172 330 -172q206 0 342 150q137 151 137 373q0 223 -138 373t-342 150q-203 0 -330 -172v144h-270v-1417z
M414 521h-1q0 125 78 206t200 81q118 0 195 -80t77 -207t-77 -210q-76 -82 -195 -82q-121 0 -199 82q-78 83 -78 210zM441 521v-1q0 -116 71 -189q70 -72 179 -72q106 0 175 73q69 74 69 189t-69 187t-175 72q-109 0 -180 -72q-70 -71 -70 -187z" />
    <glyph glyph-name="q" unicode="q" horiz-adv-x="1320" 
d="M61 522h-1q0 236 147 393q147 158 360 158q185 0 301 -125v96h328v-1474h-328v526q-119 -125 -300 -125q-213 0 -360 158q-147 157 -147 393zM89 521l-1 2q0 -223 138 -373t342 -150q200 0 330 174v-575h270v1417h-270v-142q-128 170 -330 170q-206 0 -342 -150
q-137 -151 -137 -373zM354 525h-1q0 127 77 207t195 80q122 0 200 -81t78 -206q0 -127 -78 -210q-78 -82 -199 -82q-119 0 -195 82q-77 83 -77 210zM382 525l-2 -1q0 -117 69 -189t176 -72q110 0 180 73q71 74 71 189q0 114 -71 187q-71 72 -179 72q-106 0 -175 -72
t-69 -187z" />
    <glyph glyph-name="r" unicode="r" horiz-adv-x="819" 
d="M123 0l-1 1046h328v-141q47 86 131 128q83 42 196 28v-307q-168 28 -247 -48t-79 -270v-436h-328zM151 31l270 1v407q0 195 81 281q81 85 247 66v248q-211 18 -306 -203h-22v187h-270v-987z" />
    <glyph glyph-name="s" unicode="s" horiz-adv-x="1073" 
d="M25 295l294 83q27 -68 90 -110t152 -42q58 0 95 23q36 23 36 54q0 51 -98 80l-250 74q-264 79 -264 291q0 137 128 230t306 93q168 0 295 -72t178 -195l-287 -82q-71 98 -189 98q-45 0 -78 -18t-33 -46q0 -41 60 -62l241 -67q69 -19 120 -41q50 -22 96 -55q48 -35 72 -88
q24 -54 24 -126q0 -152 -130 -249q-131 -98 -336 -98q-193 0 -337 96q-145 97 -185 229zM63 273l-1 -1q49 -121 186 -199q136 -78 300 -78q194 0 315 90q122 90 122 229q0 125 -72 182q-73 58 -220 101l-241 68q-80 26 -80 88q0 41 41 68q40 27 98 27q123 0 199 -94l235 67
q-53 103 -168 161q-116 59 -263 59q-168 0 -287 -87t-119 -207q0 -188 244 -264l250 -73q119 -35 119 -107q0 -45 -46 -75q-47 -30 -114 -30q-179 0 -258 145z" />
    <glyph glyph-name="t" unicode="t" horiz-adv-x="847" 
d="M20 758l1 285h162v328h328v-328h281v-286h-281v-381q0 -109 108 -109q59 0 111 27l78 -260q-129 -51 -256 -51q-184 0 -277 105t-93 289v381h-162zM50 785h161v-409q0 -365 340 -365q107 0 222 39l-61 205q-38 -16 -93 -16q-137 0 -137 137v409h281v230h-281v327h-270
v-327h-162v-230z" />
    <glyph glyph-name="u" unicode="u" horiz-adv-x="1280" 
d="M113 436v608h327v-542q0 -227 187 -228q94 0 148 70t54 192v509h328v-1044h-328v109q-119 -136 -309 -138q-203 0 -305 125t-102 339zM141 436l1 1q0 -211 99 -324q99 -112 281 -112q209 0 338 190v-161h270v987h-270v-481q0 -133 -63 -211t-169 -78q-102 0 -159 66
t-57 189v514h-271v-580z" />
    <glyph glyph-name="v" unicode="v" horiz-adv-x="1212" 
d="M0 1044h360l246 -671l248 671h358l-421 -1044h-369zM43 1016l397 -987h332l397 987h-295l-258 -699h-20l-256 699h-297z" />
    <glyph glyph-name="w" unicode="w" horiz-adv-x="1705" 
d="M0 1044h338l190 -626l189 626h272l191 -626l188 626h338l-360 -1044h-304l-188 586l-190 -586h-304zM41 1016l340 -987h262l211 649l209 -649h262l340 987h-276l-201 -670h-17l-202 670h-232l-200 -670h-17l-203 670h-276z" />
    <glyph glyph-name="x" unicode="x" horiz-adv-x="1142" 
d="M0 0l377 526l-361 518h367l188 -270l189 270h366l-360 -518l377 -526h-369l-203 285l-202 -285h-369zM55 29h299l217 305l217 -305h299l-356 497l342 490h-299l-203 -291l-202 291h-299l342 -490z" />
    <glyph glyph-name="y" unicode="y" horiz-adv-x="1236" 
d="M0 1044h358l273 -636l256 636h350l-621 -1474h-333l186 455zM45 1016l455 -991l-174 -426h272l596 1417h-289l-274 -682l-291 682h-295z" />
    <glyph glyph-name="z" unicode="z" horiz-adv-x="1099" 
d="M78 0v205l497 571h-485v268h920v-204l-500 -572h518v-268h-950zM106 29h893v211h-553l535 610v166h-862v-211h520l-533 -610v-166z" />
    <glyph glyph-name="braceleft" unicode="{" horiz-adv-x="727" 
d="M82 481v281h39q45 0 75 30t30 75v316q0 348 332 348h129v-287h-41q-59 0 -80 -27t-21 -95v-254q0 -77 -35 -147q-34 -69 -114 -99q80 -32 114 -100q35 -70 35 -147v-254q0 -68 21 -95t80 -27h41v-287h-129q-332 0 -332 348v316q0 45 -30 75t-75 30h-39zM111 504h9
q57 0 95 -38t38 -95v-316q0 -319 303 -319h100v229h-12q-70 0 -100 35q-30 34 -30 117v254q0 193 -176 241v13q176 51 176 241v254q0 82 30 117t101 35h12v229h-100q-303 0 -303 -319v-316q0 -57 -38 -95t-95 -38h-10v-229z" />
    <glyph glyph-name="bar" unicode="|" horiz-adv-x="512" 
d="M113 -256v1905h286v-1905h-286zM141 -227h230v1847h-230v-1847z" />
    <glyph glyph-name="braceright" unicode="}" horiz-adv-x="727" 
d="M645 481l-39 4q-45 0 -75 -30t-30 -75v-316q0 -348 -332 -348h-129v287h41q59 0 80 27t21 95v254q0 77 35 147t114 101q-79 31 -114 101t-35 146v254q0 68 -21 95t-80 27h-41v287h129q332 0 332 -348v-316q0 -45 30 -75t75 -30h39v-287zM616 514l-1 229h-10q-57 0 -95 38
t-38 95v316q0 319 -303 319h-100v-229h12q71 0 101 -35t30 -117v-254q0 -190 176 -241v-13q-176 -50 -176 -241v-254q0 -83 -30 -117q-30 -35 -100 -35h-12v-229h100q303 0 303 319v316q0 57 38 95t95 38h10z" />
    <glyph glyph-name="asciitilde" unicode="~" horiz-adv-x="1200" 
d="M92 600l-3 -2q0 129 68 224t206 95q102 0 267 -76q90 -39 112 -39q74 0 74 115l291 -84q0 -131 -66 -224t-201 -93q-99 0 -269 76q-90 39 -112 39q-76 0 -76 -115zM118 619l234 -68q12 106 99 106q31 0 132 -45q158 -71 254 -69q107 0 170 72t69 197l-235 68
q-12 -106 -96 -108q-26 0 -140 47q-156 68 -243 68q-106 0 -172 -72t-72 -196z" />
    <glyph glyph-name="exclamdown" unicode="&#xa1;" horiz-adv-x="550" 
d="M469 868h-2q0 -78 -57 -132t-139 -54q-79 0 -135 54t-56 131q0 83 57 138q58 56 136 56q83 0 139 -55q57 -56 57 -138zM438 868h-1q0 70 -48 117q-49 47 -117 47q-69 0 -116 -47t-47 -117q0 -66 48 -111t115 -45q70 0 118 45t48 111zM448 -389h-353l43 932h267zM417 -360
l-39 874h-213l-39 -874h291z" />
    <glyph glyph-name="cent" unicode="&#xa2;" horiz-adv-x="1179" 
d="M61 717h-2q0 200 115 345q116 146 301 189v213h277v-211q157 -33 257 -130q101 -98 128 -210l-303 -86q-14 62 -74 107t-144 45q-106 0 -172 -76q-66 -77 -66 -184q0 -108 66 -186t172 -78q83 0 144 44q60 43 75 102l303 -86q-27 -111 -129 -207t-255 -129v-213h-277v215
q-185 45 -301 192q-115 146 -115 344zM88 716l-4 -2q0 -192 114 -333q113 -140 302 -178v-209h219v209q132 19 238 101q105 81 142 190l-250 71q-27 -63 -91 -102t-144 -39q-112 0 -189 84q-76 83 -76 209q0 125 76 207t190 82q77 0 144 -41q66 -41 93 -105l250 72
q-38 111 -141 192q-104 82 -238 104v207h-219v-207q-185 -34 -301 -177q-115 -142 -115 -335z" />
    <glyph glyph-name="sterling" unicode="&#xa3;" horiz-adv-x="1306" 
d="M82 0l2 313h133v242h-109v268h109v179q0 219 134 339q133 120 357 120q188 0 317 -114t147 -272l-305 -88q-34 172 -168 172q-70 0 -109 -47q-39 -46 -39 -129v-158h457v-268h-457v-242h694v-315h-1163zM113 27l1105 -1v258h-695v299h457v211h-457v186q0 94 47 150
t129 56q141 0 189 -166l252 74q-27 146 -149 242q-121 96 -282 96q-218 0 -340 -115q-123 -115 -123 -315v-207h-109v-211h109v-299h-133v-258z" />
    <glyph glyph-name="currency" unicode="&#xa4;" horiz-adv-x="1286" 
d="M51 246l174 172q-59 107 -59 237t59 237l-174 172l182 182l170 -172q111 62 240 63q134 0 240 -62l170 172l182 -182l-174 -172q59 -107 59 -238t-59 -238l174 -172l-182 -183l-170 173q-110 -61 -240 -61q-128 0 -240 62l-170 -173zM92 246l139 -142l166 168
q110 -70 244 -70q133 0 244 69l166 -168l141 142l-170 168q68 104 68 240q0 139 -68 243l170 168l-141 141l-166 -168q-103 70 -243 70q-134 0 -244 -70l-166 168l-141 -141l170 -168q-67 -101 -67 -241q0 -138 68 -241zM408 655v-1q0 101 66 167t164 66q100 0 168 -66
q67 -66 69 -167q-1 -100 -69 -166t-168 -66q-98 0 -164 66t-66 167zM436 653l-2 -1q0 -88 59 -147q58 -58 144 -58q89 0 148 58q61 59 62 147q-2 89 -61 147q-61 59 -148 59q-86 0 -144 -58t-58 -147z" />
    <glyph glyph-name="yen" unicode="&#xa5;" horiz-adv-x="1435" 
d="M10 1434h383l326 -586l325 586h381l-430 -738h265v-174h-365l-4 -6v-102h369v-174h-369v-240h-344v240h-352v174h352v102l-4 6h-348v174h247zM59 1405l433 -737h-269v-117h334l18 -27v-139h-352v-117h352v-239h287v239h369v117h-369v139l19 27h350v117h-285l430 737h-315
l-318 -571h-49l-317 571h-318z" />
    <glyph glyph-name="brokenbar" unicode="&#xa6;" horiz-adv-x="512" 
d="M113 911v738h286v-738h-286zM141 940h230v680h-230v-680zM113 -256v737h286v-737h-286zM141 -227h230v680h-230v-680z" />
    <glyph glyph-name="section" unicode="&#xa7;" horiz-adv-x="1155" 
d="M82 201l283 88q59 -143 221 -137q56 2 90 27q35 26 35 54q0 50 -97 78l-254 78q-270 83 -270 300q0 145 150 234q-92 83 -93 213q0 141 124 235t298 94q163 0 284 -70q121 -71 168 -192l-287 -82q-56 91 -166 92q-44 2 -76 -19q-33 -21 -33 -51q0 -43 63 -63l242 -71
q147 -43 228 -114t81 -204q0 -156 -131 -231q86 -80 86 -215q0 -155 -129 -255q-128 -100 -330 -100q-184 0 -319 93t-168 218zM119 184l-1 -2q40 -112 168 -187t281 -75q186 0 308 92t122 234q0 78 -24 127t-85 94q156 62 155 225q0 110 -66 176q-67 66 -221 113l-242 72
q-84 27 -84 88q0 43 42 72q42 28 97 27q113 -5 179 -88l235 68q-52 102 -160 158q-110 57 -253 57q-165 0 -278 -88q-114 -89 -114 -213q0 -76 24 -123t90 -96q-80 -35 -126 -96t-46 -132q0 -196 250 -272l254 -78q59 -17 88 -43t28 -62q0 -45 -46 -76q-46 -32 -108 -33
q-167 -6 -238 131zM378 717v1q0 39 30 72t80 50l175 -58q61 -19 91 -47t29 -65q0 -82 -84 -129l-206 55q-52 13 -84 47q-31 32 -31 74zM407 718q0 -68 92 -92l196 -54q59 39 60 99q0 53 -101 86l-166 53q-81 -33 -81 -92z" />
    <glyph glyph-name="dieresis" unicode="&#xa8;" horiz-adv-x="722" 
d="M0 1306l-1 -1q0 66 46 111t112 45q67 0 113 -46q47 -47 47 -109q0 -65 -47 -112q-46 -46 -112 -46t-112 46t-46 112zM405 1305l-1 -1q0 66 46 111t112 45q67 0 113 -46q47 -47 47 -109q0 -65 -47 -112q-46 -46 -112 -46t-112 46t-46 112zM27 1304l-1 -1q0 -53 38 -91
q37 -37 92 -37t93 38t38 92q0 51 -39 89q-40 38 -93 38q-54 0 -91 -37t-37 -91zM431 1303v-1q0 -53 38 -91q37 -37 90 -37q55 0 93 38t38 92q0 52 -39 89q-40 38 -92 38q-53 0 -90 -37q-38 -38 -38 -91z" />
    <glyph glyph-name="copyright" unicode="&#xa9;" horiz-adv-x="1509" 
d="M61 721l-1 -1q0 289 200 487t495 198q296 0 494 -198t198 -487q0 -295 -198 -493t-493 -198q-296 0 -495 198q-200 198 -200 494zM89 720l1 -1q0 -283 192 -474q191 -190 474 -190q282 0 473 191t191 474q0 280 -192 467q-193 188 -472 188q-282 0 -475 -188
q-192 -187 -192 -467zM190 719l-1 -1q0 239 162 398t404 159t402 -160q161 -161 161 -397q0 -240 -161 -403q-161 -162 -402 -162t-403 162t-162 404zM218 718h-1q0 -229 155 -384q154 -154 382 -154t381 154t153 384q0 227 -153 377t-381 150t-382 -150t-154 -377zM404 713
h-1q0 151 101 252t252 101q134 0 223 -69t111 -159l-158 -39q-12 47 -60 81q-47 34 -113 34q-85 0 -139 -57t-54 -143q0 -84 54 -144t140 -60q67 0 114 34q48 34 60 81l158 -41q-22 -87 -110 -157q-87 -69 -220 -69q-156 0 -257 102q-101 103 -101 253zM431 713l-1 2
q0 -141 93 -234t236 -93q101 0 181 49q81 49 112 127l-103 27q-25 -49 -78 -79t-115 -30q-94 0 -157 66t-63 165q0 101 63 165q63 65 159 65q61 0 115 -30t78 -79l103 24q-32 80 -114 129t-184 49q-138 0 -232 -92q-93 -92 -93 -231z" />
    <glyph glyph-name="guillemotleft" unicode="&#xab;" horiz-adv-x="1157" 
d="M614 266h-286l-215 389l215 389h286l-204 -389zM1044 266h-286l-215 389l215 389h286l-204 -389zM567 295l-190 360l190 361h-223l-199 -361l199 -360h223zM997 295l-190 360l190 361h-223l-199 -361l199 -360h223z" />
    <glyph glyph-name="logicalnot" unicode="&#xac;" horiz-adv-x="1208" 
d="M113 696v256h983v-553h-277v297h-706zM141 725h707v-297h219v496h-926v-199z" />
    <glyph glyph-name="registered" unicode="&#xae;" horiz-adv-x="1509" 
d="M61 717l-1 -2q0 293 200 491t495 198q293 0 492 -198q200 -198 200 -490t-199 -490q-200 -198 -492 -198q-296 0 -495 198q-200 198 -200 491zM89 714h-4q0 -281 191 -470t476 -189q284 0 474 189t190 470t-190 470t-472 189q-284 0 -475 -189q-190 -189 -190 -470z
M188 714l-1 -1q0 240 162 402t402 162t401 -161t161 -402q0 -239 -161 -402q-160 -162 -400 -162t-402 162t-162 402zM215 713v1q0 -226 153 -381q153 -154 381 -154t381 153t153 381q0 229 -153 382t-381 153t-381 -153t-153 -382zM475 376v680h340q110 0 176 -70t66 -162
q0 -67 -37 -123q-38 -58 -102 -83l153 -242h-184l-133 221h-119v-221h-160zM504 405l101 -2v221h164l133 -221h115l-145 229q71 14 113 68t42 123q0 84 -61 144t-151 60h-311v-622zM605 708l-1 228h205q49 0 84 -33q34 -33 34 -80q0 -49 -36 -82t-89 -33h-197zM633 737
l167 1q44 0 70 25q27 25 27 61q0 35 -25 59q-26 24 -63 24h-176v-170z" />
    <glyph glyph-name="macron" unicode="&#xaf;" horiz-adv-x="614" 
d="M0 1204v226h614v-226h-614zM29 1233h557v168h-557v-168z" />
    <glyph glyph-name="degree" unicode="&#xb0;" horiz-adv-x="839" 
d="M61 1175l-2 -2q0 147 104 248t258 101q153 0 254 -100q102 -100 102 -247q0 -145 -103 -247q-104 -102 -252 -102q-154 0 -258 101q-103 100 -103 248zM88 1173q0 -135 96 -227q97 -92 236 -92t234 92t95 227q0 136 -94 227q-95 92 -234 92q-140 0 -237 -92
q-96 -92 -96 -227zM246 1173v-1q0 74 49 122t126 48q72 0 121 -49t49 -120q0 -70 -50 -120t-120 -50q-77 0 -126 48t-49 122zM274 1172q0 -59 40 -100q40 -42 106 -42q58 0 99 41t41 101t-41 101t-99 41q-66 0 -106 -40t-40 -102z" />
    <glyph glyph-name="plusminus" unicode="&#xb1;" horiz-adv-x="1146" 
d="M113 772v256h333v289h256v-289h332v-256h-332v-287h-256v287h-333zM141 801h334v-287h199v287h332v198h-332v289h-199v-289h-334v-198zM113 117v256h921v-256h-921zM141 145h865v199h-865v-199z" />
    <glyph glyph-name="uni00B2" unicode="&#xb2;" horiz-adv-x="731" 
d="M31 1489h-2q12 113 101 194q88 81 219 81q150 0 238 -70t88 -198q0 -71 -28 -123t-94 -109l-149 -134h284v-208h-655v149l319 297q76 73 76 119q0 27 -19 45t-54 18q-79 0 -105 -125zM61 1509l165 -50q33 119 127 119q46 0 74 -25q29 -26 29 -66q0 -57 -84 -139
l-312 -289v-109h599v152h-330l205 184q63 56 87 102t24 108q0 113 -78 176t-218 63q-107 0 -187 -64q-82 -65 -101 -162z" />
    <glyph glyph-name="uni00B3" unicode="&#xb3;" horiz-adv-x="743" 
d="M31 1171l212 58q11 -59 46 -93q37 -35 89 -35q46 0 71 24q26 24 26 63t-27 66t-82 27q-38 0 -75 -6l-35 127l125 135h-320v203h613v-164l-148 -145q81 -26 128 -88q48 -63 48 -155q0 -124 -91 -206q-92 -83 -228 -83q-160 0 -247 78t-105 194zM64 1147l1 -1
q27 -107 109 -165t211 -58q125 0 207 75q83 75 83 186q0 166 -156 217l-43 12l170 172v123h-555v-145h356l-157 -172l22 -86q24 2 54 2q62 0 99 -33q38 -33 38 -88q0 -51 -35 -83t-90 -32q-117 0 -156 123z" />
    <glyph glyph-name="acute" unicode="&#xb4;" horiz-adv-x="509" 
d="M0 1204l154 291h356l-234 -291h-276zM47 1233h215l189 233h-281z" />
    <glyph glyph-name="paragraph" unicode="&#xb6;" horiz-adv-x="1538" 
d="M51 975l-1 -1q0 195 137 327t362 132h897v-312h-170v-1552h-297v1552h-164v-1552h-307v952q-197 0 -327 130t-130 324zM79 973v1q0 -189 132 -312q131 -123 325 -112v-952h249v1552h222v-1552h239v1552h170v254h-868q-208 0 -338 -121q-131 -122 -131 -310z" />
    <glyph glyph-name="periodcentered" unicode="&#xb7;" horiz-adv-x="550" 
d="M82 596l-2 -1q0 78 57 132t138 54q80 0 137 -54t57 -132q0 -83 -57 -138q-56 -55 -136 -55q-82 0 -138 56t-56 138zM109 595h2q0 -71 48 -117q49 -47 117 -47q69 0 116 47t47 117q0 65 -48 112q-47 46 -116 46q-71 0 -118 -46q-48 -47 -48 -112z" />
    <glyph glyph-name="cedilla" unicode="&#xb8;" horiz-adv-x="468" 
d="M0 -387l33 121q56 -39 133 -38q78 2 78 54q0 46 -57 62q-57 17 -110 0l59 188h228l-35 -109q59 -11 99 -57t40 -103q0 -88 -67 -139t-180 -51q-129 0 -221 72zM31 -375l-4 -4q82 -55 189 -55q103 0 161 43q59 44 59 120q0 55 -44 96t-105 39l35 106h-168l-41 -125
q68 6 113 -21t45 -74q0 -61 -72 -79q-71 -18 -148 20z" />
    <glyph glyph-name="uni00B9" unicode="&#xb9;" horiz-adv-x="587" 
d="M0 1595l276 146h209v-819h-243v548l-183 -84zM35 1581l43 -154l192 89v-566h187v762h-174z" />
    <glyph glyph-name="guillemotright" unicode="&#xbb;" horiz-adv-x="1157" 
d="M113 266l204 389l-204 389h286l215 -389l-215 -389h-286zM543 266l205 389l-205 389h286l215 -389l-215 -389h-286zM160 295h223l199 360l-199 361h-223l190 -361zM590 295h223l199 360l-199 361h-223l190 -361z" />
    <glyph glyph-name="onequarter" unicode="&#xbc;" horiz-adv-x="1679" 
d="M0 1288l276 146h209v-820h-243v549l-183 -84zM219 0l885 1434h215l-885 -1434h-215zM35 1274l43 -154l192 88v-565h187v762h-174zM270 29h148l850 1376h-148zM961 141v183l262 495h252l-244 -473h108v113h230v-113h90v-205h-90v-141h-230v141h-378zM989 170h379v-141h172
v141h90v147h-90v113h-172v-113h-182l244 474h-191l-250 -474v-147z" />
    <glyph glyph-name="onehalf" unicode="&#xbd;" horiz-adv-x="1681" 
d="M0 1288l276 146h209v-820h-243v549l-183 -84zM219 0l885 1434h215l-885 -1434h-215zM35 1274l43 -154l192 88v-565h187v762h-174zM270 29h148l850 1376h-148zM981 567v2q12 113 101 194q88 81 221 81q149 0 237 -71q87 -71 87 -198q0 -71 -28 -123t-94 -109l-149 -133
h284v-209h-655v150l320 296q77 74 75 119q0 27 -19 45t-54 18q-80 0 -107 -125zM1014 590l164 -51q33 118 127 117q46 0 74 -25q29 -26 29 -66q0 -56 -84 -139l-311 -289v-108h598v151h-330l205 185q63 55 87 102t24 108q0 113 -78 176t-217 63q-106 0 -187 -63t-101 -161z
" />
    <glyph glyph-name="threequarters" unicode="&#xbe;" horiz-adv-x="1835" 
d="M31 864l212 59q11 -59 46 -93q37 -35 89 -35q46 0 71 24q26 24 26 63t-27 66t-82 27q-38 0 -75 -6l-35 127l125 135h-320v203h613v-164l-148 -146q81 -26 128 -88q48 -63 48 -155q0 -124 -91 -206q-92 -83 -228 -83q-160 0 -247 78t-105 194zM376 -3l885 1434h215
l-885 -1434h-215zM64 841l1 -1q27 -107 109 -165t211 -58q125 0 207 75q83 75 83 186q0 166 -156 217l-43 12l170 172v123h-555v-145h356l-157 -173l22 -86q18 2 54 3q62 0 99 -33q38 -33 38 -88q0 -51 -35 -83t-90 -32q-117 0 -156 123zM428 25h147l850 1376h-147z
M1118 137v183l262 495h252l-244 -473h109v113h229v-113h91v-205h-91v-141h-229v141h-379zM1147 166h379v-141h172v141h90v147h-90v113h-172v-113h-183l244 474h-190l-250 -474v-147z" />
    <glyph glyph-name="questiondown" unicode="&#xbf;" horiz-adv-x="1136" 
d="M772 868q0 -78 -57 -132t-138 -54q-79 0 -136 54t-57 131q0 83 57 138q58 56 137 56q83 0 138 -55q56 -56 56 -138zM743 868h-2q0 70 -48 117q-49 47 -117 47q-69 0 -116 -47t-47 -117q0 -66 48 -111t116 -45q70 0 118 45t48 111zM1083 18l-3 -1q-22 -181 -161 -309
q-137 -127 -359 -127q-221 0 -362 117t-141 297q0 85 39 162q40 78 79 116q44 42 108 95q54 46 69 61q20 20 41 51q23 34 23 62h317q0 -69 -28 -129t-60 -97q-29 -33 -84 -85q-6 -6 -30 -27t-31 -28l-25 -25q-21 -21 -26 -27q-6 -8 -19 -25t-17 -29q-5 -12 -9 -27
q-4 -13 -4 -32q0 -59 45 -95t120 -36q85 0 143 63q59 63 81 166zM1048 -3l-245 70q-28 -101 -93 -160q-64 -58 -150 -58q-88 0 -141 44t-53 114q0 15 5 37q5 20 9 33q5 14 18 32q6 8 21 29q8 12 28 30q14 13 27 26q7 6 32 29q26 23 30 27q74 68 114 126q41 59 50 136h-263
q-12 -57 -139 -166q-70 -57 -104 -93q-35 -37 -73 -109q-37 -71 -37 -151q0 -168 133 -276t342 -108q189 0 325 107q135 107 164 281z" />
    <glyph glyph-name="Agrave" unicode="&#xc0;" horiz-adv-x="1507" 
d="M918 1593h-277l-233 291h356zM870 1622l-122 233h-281l188 -233h215zM0 0l530 1434h447l530 -1434h-350l-100 274h-606l-101 -274h-350zM41 29h289l100 274h647l101 -274h288l-510 1376h-405zM518 543l223 614h25l223 -614h-471zM559 571h389l-194 537z" />
    <glyph glyph-name="Aacute" unicode="&#xc1;" horiz-adv-x="1507" 
d="M590 1593l153 291h357l-234 -291h-276zM637 1622h215l188 233h-280zM0 0l530 1434h447l530 -1434h-350l-100 274h-606l-101 -274h-350zM41 29h289l100 274h647l101 -274h288l-510 1376h-405zM518 543l223 614h25l223 -614h-471zM559 571h389l-194 537z" />
    <glyph glyph-name="Acircumflex" unicode="&#xc2;" horiz-adv-x="1507" 
d="M377 1577l223 307h307l223 -307h-286l-90 143l-90 -143h-287zM432 1606h215l96 151h21l96 -151h215l-182 249h-279zM0 0l530 1434h447l530 -1434h-350l-100 274h-606l-101 -274h-350zM41 29h289l100 274h647l101 -274h288l-510 1376h-405zM518 543l223 614h25l223 -614
h-471zM559 571h389l-194 537z" />
    <glyph glyph-name="Atilde" unicode="&#xc3;" horiz-adv-x="1507" 
d="M395 1565v1q0 319 213 319q67 0 174 -61q62 -35 81 -35q43 0 43 88h207q0 -319 -213 -321q-65 0 -174 62q-62 35 -81 35q-43 0 -43 -88h-207zM424 1594h152q6 88 70 88q26 0 103 -45q91 -51 150 -51q176 0 183 262h-151q-6 -88 -70 -88q-27 0 -102 45q-92 51 -152 51
q-176 0 -183 -262zM1 1l530 1434h447l530 -1434h-350l-100 274h-606l-101 -274h-350zM42 30h289l100 274h647l101 -274h288l-510 1376h-405zM519 544l223 614h25l223 -614h-471zM560 572h389l-194 537z" />
    <glyph glyph-name="Adieresis" unicode="&#xc4;" horiz-adv-x="1507" 
d="M391 1695v-1q0 66 46 111q47 45 112 45q67 0 114 -46q48 -47 48 -109q0 -65 -48 -112q-47 -46 -114 -46q-66 0 -112 46t-46 112zM797 1694l-1 -1q0 66 46 111t112 45q67 0 113 -46q47 -47 47 -109q0 -65 -47 -112q-46 -46 -112 -46t-112 46t-46 112zM419 1693v-1
q0 -53 38 -91q37 -37 90 -37q55 0 93 38t38 92q0 52 -39 89q-40 38 -92 38q-53 0 -90 -37q-38 -38 -38 -91zM824 1692l2 -1q0 -53 38 -91q37 -37 90 -37q55 0 93 38t38 92q0 51 -39 89q-40 38 -93 38q-54 0 -91 -37q-38 -38 -38 -91zM1 -5l530 1434h447l530 -1434h-350
l-100 274h-606l-101 -274h-350zM42 24h289l100 274h647l101 -274h288l-510 1376h-405zM519 538l223 614h25l223 -614h-471zM560 566h389l-194 537z" />
    <glyph glyph-name="Aring" unicode="&#xc5;" horiz-adv-x="1507" 
d="M487 1757l-2 -2q0 111 76 184q77 74 191 74q115 0 191 -73t76 -184t-76 -184q-77 -74 -190 -74t-190 74q-76 73 -76 185zM514 1754l-2 -1q0 -97 68 -163t170 -66t170 66t68 164t-67 164t-170 66t-170 -66t-67 -164zM633 1753q0 51 33 83q34 32 84 32t84 -32
q33 -32 33 -83t-33 -83q-34 -32 -84 -32t-84 32q-33 32 -33 83zM662 1753v-1q0 -39 24 -63t63 -24t63 24t24 63q0 38 -24 62t-63 24t-63 -24t-24 -61zM-4 -5l530 1434h447l530 -1434h-350l-100 274h-606l-101 -274h-350zM37 24h289l100 274h647l101 -274h288l-510 1376h-405
zM514 538l223 614h25l223 -614h-471zM555 566h389l-194 537z" />
    <glyph glyph-name="AE" unicode="&#xc6;" horiz-adv-x="2050" 
d="M0 0l838 1434h1130v-308h-659v-249h555v-297h-555v-273h657v-307h-983v279h-455l-161 -279h-367zM49 29h301l162 278h500v-278h925v250h-657v329h555v240h-555v307h659v250h-1085zM653 553l348 602h11v-602h-359zM702 582h281v483z" />
    <glyph glyph-name="Ccedilla" unicode="&#xc7;" horiz-adv-x="1583" 
d="M821 291l-4 2q140 0 240 71t128 168l332 -84q-41 -165 -190 -299q-151 -136 -379 -167l-28 -89q58 -11 99 -57q40 -46 40 -103q0 -88 -67 -139q-68 -51 -180 -51q-130 0 -221 72l35 121q56 -39 133 -38q78 2 78 54q0 46 -57 62q-57 17 -110 0l53 165q-289 35 -474 240
q-184 205 -184 498q0 316 215 531q214 214 536 214q286 0 471 -145q187 -146 233 -336l-332 -82q-28 97 -129 171q-100 73 -240 73q-182 0 -293 -123t-111 -301q0 -175 113 -302q112 -126 293 -126zM1483 428l-284 63q-41 -103 -147 -168q-107 -65 -240 -65q-185 0 -310 131
q-124 130 -124 326q0 197 123 324q123 128 311 128q131 0 239 -66t149 -170l279 67q-59 191 -244 312q-187 122 -424 122q-310 0 -516 -205q-207 -205 -207 -513q0 -290 188 -492q188 -201 480 -222l-51 -158q61 10 108 -17t47 -76q0 -61 -72 -79q-71 -18 -148 20l-20 -66
q82 -55 189 -55q103 0 161 43q59 44 59 120q0 55 -44 96q-43 40 -105 39l45 141q201 26 354 141t204 279z" />
    <glyph glyph-name="Egrave" unicode="&#xc8;" horiz-adv-x="1284" 
d="M821 1593h-276l-234 291h357zM774 1622l-123 233h-280l188 -233h215zM123 0v1434h1079v-308h-747v-249h643v-297h-643v-273h745v-307h-1077zM152 29h1019v250h-745v329h643v240h-643v307h748v250h-1022v-1376z" />
    <glyph glyph-name="Eacute" unicode="&#xc9;" horiz-adv-x="1284" 
d="M494 1593l153 291h357l-234 -291h-276zM541 1622h215l188 233h-280zM123 0v1434h1079v-308h-747v-249h643v-297h-643v-273h745v-307h-1077zM152 29h1019v250h-745v329h643v240h-643v307h748v250h-1022v-1376z" />
    <glyph glyph-name="Ecircumflex" unicode="&#xca;" horiz-adv-x="1284" 
d="M281 1577l223 307h307l223 -307h-286l-91 143l-90 -143h-286zM336 1606h215l96 151h21l96 -151h215l-182 249h-279zM123 0v1434h1079v-308h-747v-249h643v-297h-643v-273h745v-307h-1077zM152 29h1019v250h-745v329h643v240h-643v307h748v250h-1022v-1376z" />
    <glyph glyph-name="Edieresis" unicode="&#xcb;" horiz-adv-x="1284" 
d="M295 1695l-1 -1q0 66 46 111t112 45q67 0 113 -46q47 -47 47 -109q0 -65 -47 -112q-46 -46 -112 -46t-112 46t-46 112zM699 1694l-2 -1q0 66 47 111q46 45 112 45q67 0 113 -46q47 -47 47 -109q0 -65 -47 -112q-46 -46 -112 -46t-112 46t-46 112zM321 1693l-1 -1
q0 -53 38 -91q37 -37 92 -37t93 38t38 92q0 52 -39 89q-40 38 -93 38q-54 0 -91 -37t-37 -91zM725 1692v-1q0 -53 38 -91q37 -37 90 -37q55 0 93 38t38 92q0 51 -39 89q-40 38 -92 38q-53 0 -90 -37q-38 -38 -38 -91zM119 -5v1434h1079v-308h-747v-249h643v-297h-643v-273
h745v-307h-1077zM148 24h1019v250h-745v329h643v240h-643v307h748v250h-1022v-1376z" />
    <glyph glyph-name="Igrave" unicode="&#xcc;" horiz-adv-x="589" 
d="M459 1593h-277l-233 291h356zM412 1622l-123 233h-281l189 -233h215zM123 0v1434h344v-1434h-344zM152 29h286v1376h-286v-1376z" />
    <glyph glyph-name="Iacute" unicode="&#xcd;" horiz-adv-x="589" 
d="M131 1593l154 291h356l-233 -291h-277zM178 1622h215l189 233h-281zM123 0v1434h344v-1434h-344zM152 29h286v1376h-286v-1376z" />
    <glyph glyph-name="Icircumflex" unicode="&#xce;" horiz-adv-x="589" 
d="M-82 1577l223 307h308l223 -307h-287l-90 143l-90 -143h-287zM-27 1606h215l97 151h20l96 -151h215l-182 249h-278zM123 0v1434h344v-1434h-344zM152 29h286v1376h-286v-1376z" />
    <glyph glyph-name="Idieresis" unicode="&#xcf;" horiz-adv-x="589" 
d="M-68 1695l-2 -1q0 66 47 111t112 45q67 0 113 -46q47 -47 47 -109q0 -65 -47 -112q-46 -46 -112 -46t-112 46t-46 112zM336 1694l-1 -1q0 66 46 111q47 45 112 45q67 0 113 -46q47 -47 47 -109q0 -65 -47 -112q-46 -46 -112 -46t-112 46t-46 112zM-42 1693v-1
q0 -53 38 -91q37 -37 90 -37q55 0 93 38t38 92q0 52 -39 89q-40 38 -92 38q-53 0 -90 -37q-38 -38 -38 -91zM364 1692l-1 -1q0 -53 38 -91q37 -37 92 -37t93 38t38 92q0 51 -39 89q-40 38 -93 38q-54 0 -91 -37t-37 -91zM119 -5v1434h344v-1434h-344zM148 24h286v1376h-286
v-1376z" />
    <glyph glyph-name="Eth" unicode="&#xd0;" horiz-adv-x="1591" 
d="M41 563l-2 288h143v584h662q304 0 491 -199q188 -200 188 -519q0 -315 -186 -516t-491 -201h-662v563h-143zM68 593l143 -2v-563h633q289 0 469 191t180 498t-179 498t-470 191h-633v-584h-143v-229zM490 275v316h299v229h-299v336h346q164 0 267 -121t103 -313
q0 -195 -105 -321t-265 -126h-346zM518 304l316 -1q147 0 245 116t98 302q0 185 -97 295q-98 111 -244 111h-318v-278h299v-287h-299v-258z" />
    <glyph glyph-name="Ntilde" unicode="&#xd1;" horiz-adv-x="1507" 
d="M395 1565v1q0 319 213 319q67 0 174 -61q62 -35 81 -35q43 0 43 88h207q0 -319 -213 -321q-65 0 -174 62q-62 35 -81 35q-43 0 -43 -88h-207zM424 1594h152q6 88 70 88q26 0 103 -45q91 -51 150 -51q176 0 183 262h-151q-6 -88 -70 -88q-27 0 -102 45q-92 51 -152 51
q-176 0 -183 -262zM124 1v1434h276l645 -822v822h340v-1434h-276l-645 821v-821h-340zM153 30h282v876l688 -876h234v1376h-283v-877l-688 877h-233v-1376z" />
    <glyph glyph-name="Ograve" unicode="&#xd2;" horiz-adv-x="1654" 
d="M991 1593h-276l-234 291h357zM944 1622l-123 233h-280l188 -233h215zM68 716v-2q0 320 216 533t543 213t543 -213t216 -532t-216 -532t-543 -213t-543 213t-216 533zM96 714h-2q0 -309 208 -513t524 -204t524 204t208 513t-208 513q-209 204 -523 204q-315 0 -523 -204
t-208 -513zM381 714h-2q0 200 125 331q124 130 320 130t320 -130q125 -131 125 -331q0 -202 -125 -332q-125 -129 -319 -129q-195 0 -319 129q-125 130 -125 332zM408 713q0 -186 114 -309t300 -123t300 123t114 309t-114 309t-300 123t-300 -123t-114 -309z" />
    <glyph glyph-name="Oacute" unicode="&#xd3;" horiz-adv-x="1654" 
d="M664 1593l153 291h357l-234 -291h-276zM711 1622h215l188 233h-280zM68 716v-2q0 320 216 533t543 213t543 -213t216 -532t-216 -532t-543 -213t-543 213t-216 533zM96 714h-2q0 -309 208 -513t524 -204t524 204t208 513t-208 513q-209 204 -523 204q-315 0 -523 -204
t-208 -513zM381 714h-2q0 200 125 331q124 130 320 130t320 -130q125 -131 125 -331q0 -202 -125 -332q-125 -129 -319 -129q-195 0 -319 129q-125 130 -125 332zM408 713q0 -186 114 -309t300 -123t300 123t114 309t-114 309t-300 123t-300 -123t-114 -309z" />
    <glyph glyph-name="Ocircumflex" unicode="&#xd4;" horiz-adv-x="1654" 
d="M451 1577l223 307h307l223 -307h-286l-91 143l-90 -143h-286zM506 1606h215l96 151h21l96 -151h215l-182 249h-279zM68 716v-2q0 320 216 533t543 213t543 -213t216 -532t-216 -532t-543 -213t-543 213t-216 533zM96 714h-2q0 -309 208 -513t524 -204t524 204t208 513
t-208 513q-209 204 -523 204q-315 0 -523 -204t-208 -513zM381 714h-2q0 200 125 331q124 130 320 130t320 -130q125 -131 125 -331q0 -202 -125 -332q-125 -129 -319 -129q-195 0 -319 129q-125 130 -125 332zM408 713q0 -186 114 -309t300 -123t300 123t114 309t-114 309
t-300 123t-300 -123t-114 -309z" />
    <glyph glyph-name="Otilde" unicode="&#xd5;" horiz-adv-x="1654" 
d="M469 1565v1q0 319 213 319q67 0 174 -61q62 -35 81 -35q43 0 43 88h207q0 -319 -213 -321q-65 0 -174 62q-62 35 -81 35q-43 0 -43 -88h-207zM498 1594h151q6 88 70 88q27 0 102 -45q92 -51 152 -51q176 0 183 262h-151q-6 -88 -70 -88q-27 0 -102 45q-91 51 -152 51
q-176 0 -183 -262zM68 717v-2q0 320 216 533t543 213t543 -213t216 -532t-216 -532t-543 -213t-543 213t-216 533zM96 715h-2q0 -309 208 -513t524 -204t524 204t208 513t-208 513q-209 204 -523 204q-315 0 -523 -204t-208 -513zM381 715h-2q0 200 125 331q124 130 320 130
t320 -130q125 -131 125 -331q0 -202 -125 -332q-125 -129 -319 -129q-195 0 -319 129q-125 130 -125 332zM408 714q0 -186 114 -309t300 -123t300 123t114 309t-114 309t-300 123t-300 -123t-114 -309z" />
    <glyph glyph-name="Odieresis" unicode="&#xd6;" horiz-adv-x="1654" 
d="M465 1695l-1 -1q0 66 46 111t112 45q67 0 113 -46q47 -47 47 -109q0 -65 -47 -112q-46 -46 -112 -46t-112 46t-46 112zM869 1694l-2 -1q0 66 47 111q46 45 112 45q67 0 113 -46q47 -47 47 -109q0 -65 -47 -112q-46 -46 -112 -46t-112 46t-46 112zM491 1693l-1 -1
q0 -53 38 -91q37 -37 92 -37t93 38t38 92q0 52 -39 89q-40 38 -93 38q-54 0 -91 -37t-37 -91zM895 1692v-1q0 -53 38 -91q37 -37 90 -37q55 0 93 38t38 92q0 51 -39 89q-40 38 -92 38q-53 0 -90 -37q-38 -38 -38 -91zM64 712v-2q0 320 216 533t543 213t543 -213t216 -532
t-216 -532t-543 -213t-543 213t-216 533zM92 710h-2q0 -309 208 -513t524 -204t524 204t208 513t-208 513t-523 204t-523 -204t-208 -513zM377 710h-2q0 200 125 331q124 130 320 130t320 -130q125 -131 125 -331q0 -202 -125 -332q-124 -129 -319 -129t-319 129
q-125 130 -125 332zM404 709q0 -186 114 -309t300 -123t300 123t114 309t-114 309t-300 123t-300 -123t-114 -309z" />
    <glyph glyph-name="multiply" unicode="&#xd7;" horiz-adv-x="1087" 
d="M113 969l182 180l248 -250l250 250l182 -180l-250 -252l248 -248l-180 -182l-248 250l-250 -250l-180 182l247 248zM154 969l249 -252l-247 -248l139 -141l250 250l248 -250l139 141l-248 248l250 252l-141 139l-250 -250l-248 250z" />
    <glyph glyph-name="Oslash" unicode="&#xd8;" horiz-adv-x="1654" 
d="M68 717h-1q0 319 216 532t543 213q196 0 359 -82l57 84h215l-127 -180q256 -217 256 -567q0 -319 -216 -532t-544 -213q-200 0 -358 82l-59 -84h-215l127 181q-121 101 -187 249q-66 147 -66 317zM95 717h-2q0 -169 69 -315t196 -246l-110 -158h145l66 92
q162 -90 366 -90q315 0 524 204t209 513q0 354 -267 561l111 158h-146l-61 -93q-167 89 -369 91q-314 0 -523 -204q-208 -204 -208 -513zM380 717q0 200 125 331q124 130 318 130q114 0 216 -50l-528 -753q-131 137 -131 342zM409 717h-1q0 -173 100 -295l487 694
q-83 33 -172 33q-186 0 -300 -123t-114 -309zM608 305l526 752q135 -129 135 -340q0 -202 -125 -332q-125 -129 -320 -129q-117 0 -216 49zM652 317q84 -33 172 -32q185 0 301 123q115 122 115 310q0 176 -102 294z" />
    <glyph glyph-name="Ugrave" unicode="&#xd9;" horiz-adv-x="1499" 
d="M913 1593h-276l-234 291h357zM866 1622l-123 233h-280l188 -233h215zM113 596l-2 838h344v-832q0 -142 75 -231q75 -88 219 -88t219 88q75 89 75 231v832h344v-838q0 -283 -168 -454t-469 -171q-304 0 -470 171q-167 172 -167 454zM139 596l-1 1q0 -279 162 -438
t447 -159q284 0 446 159t162 437v809h-287v-803q0 -161 -86 -255q-86 -93 -235 -93t-235 93q-86 94 -86 255v803h-287v-809z" />
    <glyph glyph-name="Uacute" unicode="&#xda;" horiz-adv-x="1499" 
d="M586 1593l153 291h357l-234 -291h-276zM633 1622h215l188 233h-280zM113 596l-2 838h344v-832q0 -142 75 -231q75 -88 219 -88t219 88q75 89 75 231v832h344v-838q0 -283 -168 -454t-469 -171q-304 0 -470 171q-167 172 -167 454zM139 596l-1 1q0 -279 162 -438t447 -159
q284 0 446 159t162 437v809h-287v-803q0 -161 -86 -255q-86 -93 -235 -93t-235 93q-86 94 -86 255v803h-287v-809z" />
    <glyph glyph-name="Ucircumflex" unicode="&#xdb;" horiz-adv-x="1499" 
d="M373 1577l223 307h307l223 -307h-286l-90 143l-91 -143h-286zM428 1606h215l96 151h21l96 -151h215l-182 249h-279zM113 596l-2 838h344v-832q0 -142 75 -231q75 -88 219 -88t219 88q75 89 75 231v832h344v-838q0 -283 -168 -454t-469 -171q-304 0 -470 171
q-167 172 -167 454zM139 596l-1 1q0 -279 162 -438t447 -159q284 0 446 159t162 437v809h-287v-803q0 -161 -86 -255q-86 -93 -235 -93t-235 93q-86 94 -86 255v803h-287v-809z" />
    <glyph glyph-name="Udieresis" unicode="&#xdc;" horiz-adv-x="1499" 
d="M387 1695v-1q0 66 46 111t112 45q67 0 114 -46q48 -47 48 -109q0 -65 -48 -112q-47 -46 -114 -46q-66 0 -112 46t-46 112zM793 1694l-1 -1q0 66 46 111t112 45q67 0 113 -46q47 -47 47 -109q0 -65 -47 -112q-46 -46 -112 -46t-112 46t-46 112zM415 1693v-1q0 -53 38 -91
q37 -37 90 -37q55 0 93 38t38 92q0 52 -39 89q-40 38 -92 38q-53 0 -90 -37q-38 -38 -38 -91zM820 1692l2 -1q0 -53 38 -91q37 -37 90 -37q55 0 93 38t38 92q0 51 -39 89q-40 38 -93 38q-54 0 -91 -37q-38 -38 -38 -91zM114 591l-2 838h344v-832q0 -143 75 -231t219 -88
t219 88t75 231v832h344v-838q0 -283 -168 -454t-469 -171q-303 0 -470 171q-167 172 -167 454zM140 591l-1 1q0 -279 162 -438t447 -159q284 0 446 159t162 437v809h-287v-803q0 -161 -86 -255q-85 -93 -235 -93t-235 93q-86 94 -86 255v803h-287v-809z" />
    <glyph glyph-name="Yacute" unicode="&#xdd;" horiz-adv-x="1415" 
d="M545 1593l153 291h357l-234 -291h-276zM592 1622h215l188 233h-280zM0 1434h383l326 -586l325 586h381l-534 -918v-516h-344v516zM49 1405l516 -881v-495h287v495l514 881h-315l-342 -617l-342 617h-318z" />
    <glyph glyph-name="Thorn" unicode="&#xde;" horiz-adv-x="1357" 
d="M123 0l-2 1432h336v-183h354q230 0 372 -157q143 -158 143 -358q0 -203 -144 -359t-383 -156h-340v-219h-336zM150 27h278v219h369q210 0 355 140q144 140 144 347q0 203 -141 345q-141 143 -344 143h-383v182h-278v-1376zM428 492l-1 477h375q90 0 156 -71
q66 -70 66 -168q0 -100 -69 -169t-166 -69h-361zM456 518l333 2q89 0 148 63q58 62 58 147t-55 147q-56 63 -138 63h-346v-422z" />
    <glyph glyph-name="germandbls" unicode="&#xdf;" horiz-adv-x="1265" 
d="M113 0l-1 978q0 240 141 390t375 150q218 0 360 -120t142 -308q0 -186 -147 -285q221 -117 221 -361q0 -211 -138 -328t-384 -117h-102v287h90q98 0 152 45t54 129q0 174 -218 174h-69v260h31q81 0 133 47q51 47 51 131q0 73 -46 116q-47 44 -124 44q-90 0 -142 -67
t-52 -178v-987h-327zM140 26l270 -3v958q0 124 62 200q62 75 162 75q89 0 144 -52q56 -53 56 -136q0 -94 -58 -151t-154 -57h-3v-202h41q120 0 182 -52q63 -52 63 -150q0 -94 -63 -148t-172 -54h-62v-229h74q235 0 365 110q129 109 129 308q0 241 -238 353v14
q164 96 164 279q0 175 -133 287q-134 113 -340 113q-219 0 -354 -141t-135 -370v-952z" />
    <glyph glyph-name="agrave" unicode="&#xe0;" horiz-adv-x="1320" 
d="M807 1204h-277l-233 291h356zM760 1233l-123 233h-281l189 -233h215zM61 522h-1q0 236 147 393q147 158 360 158q185 0 301 -125v96h328v-1044h-328v96q-119 -125 -300 -125q-213 0 -360 158q-147 157 -147 393zM89 521l-1 2q0 -223 138 -373t342 -150q200 0 330 174
v-145h270v987h-270v-144q-124 172 -329 172q-204 0 -342 -150t-138 -373zM354 525h-1q0 127 77 207t195 80q122 0 200 -81t78 -206q0 -127 -78 -210q-78 -82 -199 -82q-119 0 -195 82q-77 83 -77 210zM382 525l-2 -1q0 -117 69 -189t176 -72q110 0 180 73q71 74 71 189
q0 114 -71 187q-71 72 -179 72q-106 0 -175 -72t-69 -187z" />
    <glyph glyph-name="aacute" unicode="&#xe1;" horiz-adv-x="1320" 
d="M479 1204l154 291h356l-233 -291h-277zM526 1233h215l189 233h-281zM61 522h-1q0 236 147 393q147 158 360 158q185 0 301 -125v96h328v-1044h-328v96q-119 -125 -300 -125q-213 0 -360 158q-147 157 -147 393zM89 521l-1 2q0 -223 138 -373t342 -150q200 0 330 174v-145
h270v987h-270v-144q-124 172 -329 172q-204 0 -342 -150t-138 -373zM354 525h-1q0 127 77 207t195 80q122 0 200 -81t78 -206q0 -127 -78 -210q-78 -82 -199 -82q-119 0 -195 82q-77 83 -77 210zM382 525l-2 -1q0 -117 69 -189t176 -72q110 0 180 73q71 74 71 189
q0 114 -71 187q-71 72 -179 72q-106 0 -175 -72t-69 -187z" />
    <glyph glyph-name="acircumflex" unicode="&#xe2;" horiz-adv-x="1320" 
d="M266 1188l223 307h308l223 -307h-287l-90 143l-90 -143h-287zM322 1217h215l96 151h20l97 -151h215l-183 249h-278zM61 522h-1q0 236 147 393q147 158 360 158q185 0 301 -125v96h328v-1044h-328v96q-119 -125 -300 -125q-213 0 -360 158q-147 157 -147 393zM89 521l-1 2
q0 -223 138 -373t342 -150q200 0 330 174v-145h270v987h-270v-144q-124 172 -329 172q-204 0 -342 -150t-138 -373zM354 525h-1q0 127 77 207t195 80q122 0 200 -81t78 -206q0 -127 -78 -210q-78 -82 -199 -82q-119 0 -195 82q-77 83 -77 210zM382 525l-2 -1q0 -117 69 -189
t176 -72q110 0 180 73q71 74 71 189q0 114 -71 187q-71 72 -179 72q-106 0 -175 -72t-69 -187z" />
    <glyph glyph-name="atilde" unicode="&#xe3;" horiz-adv-x="1320" 
d="M285 1176l-1 1q0 319 213 319q67 0 174 -61q62 -35 81 -35q43 0 43 88h206q0 -320 -213 -321q-65 0 -174 62q-62 35 -79 35q-43 0 -43 -88h-207zM312 1205h152q6 88 70 88q27 0 102 -45q92 -51 150 -51q176 0 185 262h-152q-6 -88 -69 -88q-26 0 -103 45q-91 51 -150 51
q-178 0 -185 -262zM60 523h-1q0 235 147 393t360 158q185 0 301 -125v96h328v-1044h-328v96q-119 -125 -300 -125q-213 0 -360 158t-147 393zM88 522l-1 2q0 -223 138 -373t342 -150q199 0 330 174v-145h270v987h-270v-144q-124 172 -329 172q-204 0 -342 -150t-138 -373z
M353 526h-1q0 127 77 207t195 80q122 0 200 -81t78 -206q0 -128 -78 -210t-199 -82q-119 0 -195 82q-77 83 -77 210zM381 526l-2 -1q0 -117 69 -189t176 -72q110 0 180 73q71 74 71 189q0 114 -71 187q-70 72 -179 72q-106 0 -175 -72t-69 -187z" />
    <glyph glyph-name="adieresis" unicode="&#xe4;" horiz-adv-x="1320" 
d="M281 1306l-1 -1q0 66 46 111t112 45q67 0 113 -46q47 -47 47 -109q0 -65 -47 -112q-46 -46 -112 -46t-112 46t-46 112zM685 1305v-1q0 66 46 111q47 45 112 45q67 0 114 -46q48 -46 48 -109q0 -65 -48 -112q-47 -46 -114 -46q-66 0 -112 46t-46 112zM308 1304l2 -1
q0 -53 38 -91q37 -37 90 -37q55 0 93 38t38 92q0 51 -39 89q-40 38 -93 38q-54 0 -91 -37q-38 -38 -38 -91zM716 1303v-1q0 -53 38 -91q37 -37 90 -37q55 0 93 38t38 92q0 52 -39 89q-40 38 -92 38q-53 0 -90 -37q-38 -38 -38 -91zM62 518h-1q0 236 147 393q147 158 360 158
q185 0 301 -125v96h328v-1044h-328v96q-119 -125 -300 -125q-213 0 -360 158q-147 157 -147 393zM90 517l-1 2q0 -223 138 -373t342 -150q199 0 330 174v-145h270v987h-270v-144q-124 172 -329 172q-204 0 -342 -150t-138 -373zM355 521h-1q0 127 77 207t195 80
q122 0 200 -81t78 -206q0 -127 -78 -210q-78 -82 -199 -82q-119 0 -195 82q-77 83 -77 210zM383 521l-2 -1q0 -117 69 -189t176 -72q110 0 180 73q71 74 71 189q0 114 -71 187q-70 72 -179 72q-106 0 -175 -72t-69 -187z" />
    <glyph glyph-name="aring" unicode="&#xe5;" horiz-adv-x="1320" 
d="M377 1368l-2 -4q0 112 75 185q76 74 191 74q117 0 191 -73q75 -74 75 -184t-75 -184q-74 -73 -190 -73q-114 0 -190 74q-75 73 -75 185zM404 1364l-2 -2q0 -97 68 -163t170 -66t170 66t68 164t-68 164t-170 66t-169 -66t-67 -163zM522 1362q0 52 33 83q34 32 84 32
t84 -32q33 -31 33 -83t-33 -83q-34 -32 -84 -32t-84 32q-33 31 -33 83zM551 1362v-1q0 -39 24 -63t63 -24t63 24t24 63q0 38 -24 62t-63 24t-63 -24t-24 -61zM57 515h-1q0 235 147 393t360 158q185 0 301 -125v96h328v-1044h-328v96q-119 -125 -300 -125q-213 0 -360 158
t-147 393zM85 514l-1 2q0 -223 138 -373t342 -150q200 0 330 174v-145h270v987h-270v-144q-124 172 -329 172q-204 0 -342 -150t-138 -373zM350 518h-1q0 127 77 207t195 80q122 0 200 -81t78 -206q0 -128 -78 -210t-199 -82q-119 0 -195 82q-77 83 -77 210zM378 518l-2 -1
q0 -117 69 -189t176 -72q110 0 180 73q71 74 71 189q0 114 -71 187q-71 72 -179 72q-106 0 -175 -72t-69 -187z" />
    <glyph glyph-name="ae" unicode="&#xe6;" horiz-adv-x="2041" 
d="M61 522l-2 -1q0 235 147 393t360 158q185 0 301 -125v96h287v-110q118 139 315 139q223 0 366 -150q142 -149 142 -390q0 -65 -10 -126h-768q19 -78 86 -123q66 -45 166 -45q127 0 183 86l293 -88q-62 -119 -178 -192t-270 -73q-207 0 -324 131v-102h-287v96
q-119 -125 -300 -125q-213 0 -360 158q-147 157 -147 393zM88 520l-2 4q0 -223 138 -373t342 -150q200 0 330 174v-145h229v149q129 -178 353 -178q130 0 237 57q106 57 168 161l-237 72q-66 -82 -195 -82q-119 0 -195 60q-76 59 -91 164h779q6 52 6 98q0 227 -133 369
q-134 143 -346 143q-217 0 -345 -192v164h-229v-142q-128 170 -330 170q-205 0 -342 -150q-137 -151 -137 -373zM1159 592l1 -1q6 104 85 171q80 68 192 68q113 0 183 -66q71 -66 72 -172h-533zM353 525h-1q0 127 77 207t195 80q122 0 200 -81t78 -206q0 -127 -78 -210
q-78 -82 -199 -82q-119 0 -195 82q-77 83 -77 210zM1192 619l470 2q-11 81 -70 131q-60 51 -156 51q-98 0 -164 -54q-67 -55 -80 -130zM382 527l-2 -1q0 -117 69 -189t176 -72q110 0 180 73q71 74 71 189q0 114 -71 187q-71 72 -179 72q-106 0 -175 -72t-69 -187z" />
    <glyph glyph-name="ccedilla" unicode="&#xe7;" horiz-adv-x="1189" 
d="M61 522l-4 -4q0 235 158 393t396 158q209 0 350 -108t174 -245l-303 -86q-13 60 -74 106q-60 45 -144 45q-106 0 -172 -75t-66 -183t66 -186t172 -78q83 0 144 44q60 43 75 104l303 -86q-27 -114 -130 -209q-104 -97 -261 -128l-29 -93q58 -11 99 -57q40 -46 40 -103
q0 -88 -67 -139q-68 -51 -180 -51q-130 0 -221 72l35 121q56 -39 133 -38q78 2 78 54q0 46 -57 62q-57 17 -110 0l53 168q-203 33 -330 183q-128 151 -128 359zM86 518l-4 -2q0 -210 130 -353q131 -144 337 -165l-49 -158q59 6 107 -21t48 -76q0 -61 -73 -79t-150 20
l-20 -66q82 -55 189 -55q103 0 161 43q59 44 59 120q0 55 -44 96q-43 40 -105 39l45 143q134 22 240 104t140 189l-250 72q-27 -63 -91 -102t-144 -39q-112 0 -189 84q-76 83 -76 209q0 125 76 207t190 82q77 0 144 -41q66 -40 93 -104l250 71q-44 134 -180 219
q-137 86 -309 86q-225 0 -375 -150t-150 -373z" />
    <glyph glyph-name="egrave" unicode="&#xe8;" horiz-adv-x="1222" 
d="M780 1204h-276l-234 291h357zM733 1233l-123 233h-280l188 -233h215zM635 -29v-1q-256 0 -415 153t-159 397q0 240 153 396t400 156q252 0 399 -153t147 -387q0 -60 -8 -110h-772q39 -178 260 -178q151 0 209 106l295 -86q-50 -114 -184 -203q-135 -90 -325 -90zM635 -1
l-4 -2q151 0 281 68q129 67 189 179l-242 71q-67 -102 -221 -102q-129 0 -206 62q-76 61 -87 174h780q5 49 6 81q0 230 -142 371t-376 141q-229 0 -376 -147t-147 -377q0 -231 150 -375t395 -144zM346 589l-1 -2q1 101 78 168q77 68 184 68q113 0 188 -66t73 -168h-522z
M376 616h460q-8 74 -70 126t-159 52q-96 0 -158 -53q-61 -52 -73 -125z" />
    <glyph glyph-name="eacute" unicode="&#xe9;" horiz-adv-x="1222" 
d="M453 1204l153 291h357l-234 -291h-276zM500 1233h215l188 233h-280zM635 -29v-1q-256 0 -415 153t-159 397q0 240 153 396t400 156q252 0 399 -153t147 -387q0 -60 -8 -110h-772q39 -178 260 -178q151 0 209 106l295 -86q-50 -114 -184 -203q-135 -90 -325 -90zM635 -1
l-4 -2q151 0 281 68q129 67 189 179l-242 71q-67 -102 -221 -102q-129 0 -206 62q-76 61 -87 174h780q5 49 6 81q0 230 -142 371t-376 141q-229 0 -376 -147t-147 -377q0 -231 150 -375t395 -144zM346 589l-1 -2q1 101 78 168q77 68 184 68q113 0 188 -66t73 -168h-522z
M376 616h460q-8 74 -70 126t-159 52q-96 0 -158 -53q-61 -52 -73 -125z" />
    <glyph glyph-name="ecircumflex" unicode="&#xea;" horiz-adv-x="1222" 
d="M240 1188l223 307h307l223 -307h-286l-91 143l-90 -143h-286zM295 1217h215l96 151h21l96 -151h215l-182 249h-279zM635 -29v-1q-256 0 -415 153t-159 397q0 240 153 396t400 156q252 0 399 -153t147 -387q0 -60 -8 -110h-772q39 -178 260 -178q151 0 209 106l295 -86
q-50 -114 -184 -203q-135 -90 -325 -90zM635 -1l-4 -2q151 0 281 68q129 67 189 179l-242 71q-67 -102 -221 -102q-129 0 -206 62q-76 61 -87 174h780q5 49 6 81q0 230 -142 371t-376 141q-229 0 -376 -147t-147 -377q0 -231 150 -375t395 -144zM346 589l-1 -2q1 101 78 168
q77 68 184 68q113 0 188 -66t73 -168h-522zM376 616h460q-8 74 -70 126t-159 52q-96 0 -158 -53q-61 -52 -73 -125z" />
    <glyph glyph-name="edieresis" unicode="&#xeb;" horiz-adv-x="1222" 
d="M254 1306l-1 -1q0 66 46 111q47 45 112 45q67 0 113 -46q47 -47 47 -109q0 -65 -47 -112q-46 -46 -112 -46t-112 46t-46 112zM658 1305l-2 -1q0 66 47 111t112 45q67 0 113 -46q47 -47 47 -109q0 -65 -47 -112q-46 -46 -112 -46t-112 46t-46 112zM280 1304l-1 -1
q0 -53 38 -91q37 -37 92 -37t93 38t38 92q0 51 -39 89q-40 38 -93 38q-54 0 -91 -37t-37 -91zM684 1303v-1q0 -53 38 -91q37 -37 90 -37q55 0 93 38t38 92q0 52 -39 89q-40 38 -92 38q-53 0 -90 -37q-38 -38 -38 -91zM631 -34v-1q-256 0 -415 153t-159 397q0 240 153 396
t400 156q252 0 399 -153t147 -387q0 -60 -8 -110h-772q39 -178 260 -178q151 0 209 106l295 -86q-50 -114 -184 -203q-135 -90 -325 -90zM631 -6l-4 -2q151 0 281 68q129 67 189 179l-242 71q-67 -102 -221 -102q-129 0 -206 62q-76 62 -87 174h780q5 50 6 81
q0 230 -142 371q-143 141 -376 141q-229 0 -376 -147t-147 -377q0 -231 150 -375t395 -144zM342 584l-1 -2q1 100 78 168t184 68q113 0 188 -66t73 -168h-522zM372 611h460q-8 74 -70 126t-159 52q-96 0 -158 -53q-61 -52 -73 -125z" />
    <glyph glyph-name="igrave" unicode="&#xec;" horiz-adv-x="573" 
d="M451 1204h-277l-233 291h356zM403 1233l-122 233h-281l188 -233h215zM123 0v1044h328v-1044h-328zM152 29h270v987h-270v-987z" />
    <glyph glyph-name="iacute" unicode="&#xed;" horiz-adv-x="573" 
d="M123 1204l153 291h357l-234 -291h-276zM170 1233h215l188 233h-280zM123 0v1044h328v-1044h-328zM152 29h270v987h-270v-987z" />
    <glyph glyph-name="icircumflex" unicode="&#xee;" horiz-adv-x="573" 
d="M-90 1188l223 307h307l224 -307h-287l-90 143l-90 -143h-287zM-35 1217h215l96 151h21l96 -151h215l-182 249h-279zM123 0v1044h328v-1044h-328zM152 29h270v987h-270v-987z" />
    <glyph glyph-name="idieresis" unicode="&#xef;" horiz-adv-x="573" 
d="M-63 1306l-1 -1q0 66 46 111t112 45q67 0 113 -46q47 -47 47 -109q0 -65 -47 -112q-46 -46 -112 -46t-112 46t-46 112zM318 1305l-2 -1q0 66 47 111q46 45 112 45q67 0 113 -46q47 -47 47 -109q0 -65 -47 -112q-46 -46 -112 -46t-112 46t-46 112zM-38 1304v-1
q0 -53 38 -91q37 -37 90 -37q55 0 93 38t38 92q0 51 -39 89q-40 38 -92 38q-53 0 -90 -37q-38 -38 -38 -91zM345 1303v-1q0 -53 38 -91q37 -37 90 -37q55 0 93 38t38 92q0 52 -39 89q-40 38 -92 38q-53 0 -90 -37q-38 -38 -38 -91zM120 -5v1044h328v-1044h-328zM149 24h270
v987h-270v-987z" />
    <glyph glyph-name="eth" unicode="&#xf0;" horiz-adv-x="1234" 
d="M61 487l-1 1q0 217 153 355t380 138q72 0 121 -16q-57 76 -123 145l-352 -88l-41 154l260 65q-104 90 -249 195h412q53 -42 102 -88l37 -31l297 74l41 -154l-207 -51q283 -310 283 -662q0 -246 -156 -399t-397 -153q-239 0 -400 147q-160 147 -160 368zM89 488l-3 -1
q0 -208 152 -348q151 -139 380 -139q230 0 378 146q147 146 147 377q0 356 -309 680l227 53l-27 99l-286 -72q-76 73 -141 123h-313q116 -84 225 -180l-289 -72l27 -98l340 86q107 -110 189 -238q-86 47 -194 47q-218 0 -361 -131q-142 -130 -142 -332zM367 485l-2 -1
q0 106 71 174t179 68q109 0 179 -67q71 -68 71 -174q0 -109 -69 -177q-68 -67 -180 -67t-180 67q-69 68 -69 177zM393 484v-1q0 -94 60 -154t161 -60t161 60t60 155q0 92 -60 152t-161 60t-161 -60t-60 -152z" />
    <glyph glyph-name="ntilde" unicode="&#xf1;" horiz-adv-x="1280" 
d="M293 1176v1q0 319 213 319q67 0 174 -61q62 -35 81 -35q43 0 43 88h207q0 -320 -213 -321q-65 0 -174 62q-62 35 -81 35q-43 0 -43 -88h-207zM322 1205h150q6 88 70 88q27 0 102 -45q91 -51 152 -51q176 0 183 262h-152q-6 -88 -69 -88q-26 0 -103 45q-91 51 -150 51
q-176 0 -183 -262zM122 1v1042h328v-108q119 137 309 137q203 0 305 -125t102 -339v-608h-327v543q0 227 -187 227q-94 0 -148 -69t-54 -190v-510h-328zM151 28l268 -2v481q0 133 63 211t169 78q102 0 159 -66t57 -189v-514h271v579q0 212 -99 324q-99 113 -280 113
q-208 0 -338 -190v162h-270v-987z" />
    <glyph glyph-name="ograve" unicode="&#xf2;" horiz-adv-x="1245" 
d="M786 1204h-276l-234 291h357zM739 1233l-123 233h-280l188 -233h215zM61 522v-1q0 235 159 393q160 158 402 158q244 0 402 -157q159 -157 159 -393t-159 -393q-160 -158 -402 -158t-402 158q-159 157 -159 393zM90 521l-2 -2q0 -225 152 -374q151 -148 381 -148
q229 0 381 149t152 374q0 226 -151 374t-381 148t-381 -148t-151 -373zM348 518l-2 -1q0 128 76 207t197 79t197 -79t76 -207t-76 -205q-76 -78 -196 -78t-196 78q-76 77 -76 206zM375 517v-1q0 -112 66 -184t177 -72t177 72t66 185q0 112 -66 184t-177 72t-177 -72
t-66 -184z" />
    <glyph glyph-name="oacute" unicode="&#xf3;" horiz-adv-x="1245" 
d="M459 1204l153 291h357l-234 -291h-276zM506 1233h215l188 233h-280zM61 522v-1q0 235 159 393q160 158 402 158q244 0 402 -157q159 -157 159 -393t-159 -393q-160 -158 -402 -158t-402 158q-159 157 -159 393zM90 521l-2 -2q0 -225 152 -374q151 -148 381 -148
q229 0 381 149t152 374q0 226 -151 374t-381 148t-381 -148t-151 -373zM348 518l-2 -1q0 128 76 207t197 79t197 -79t76 -207t-76 -205q-76 -78 -196 -78t-196 78q-76 77 -76 206zM375 517v-1q0 -112 66 -184t177 -72t177 72t66 185q0 112 -66 184t-177 72t-177 -72
t-66 -184z" />
    <glyph glyph-name="ocircumflex" unicode="&#xf4;" horiz-adv-x="1245" 
d="M246 1188l223 307h307l223 -307h-286l-90 143l-91 -143h-286zM301 1217h215l96 151h21l96 -151h215l-182 249h-279zM61 522v-1q0 235 159 393q160 158 402 158q244 0 402 -157q159 -157 159 -393t-159 -393q-160 -158 -402 -158t-402 158q-159 157 -159 393zM90 521
l-2 -2q0 -225 152 -374q151 -148 381 -148q229 0 381 149t152 374q0 226 -151 374t-381 148t-381 -148t-151 -373zM348 518l-2 -1q0 128 76 207t197 79t197 -79t76 -207t-76 -205q-76 -78 -196 -78t-196 78q-76 77 -76 206zM375 517v-1q0 -112 66 -184t177 -72t177 72
t66 185q0 112 -66 184t-177 72t-177 -72t-66 -184z" />
    <glyph glyph-name="otilde" unicode="&#xf5;" horiz-adv-x="1245" 
d="M264 1176v1q0 319 213 319q67 0 174 -61q62 -35 81 -35q43 0 43 88h207q0 -320 -213 -321q-65 0 -174 62q-62 35 -81 35q-43 0 -43 -88h-207zM293 1205h151q6 88 70 88q27 0 102 -45q92 -51 152 -51q176 0 183 262h-151q-6 -88 -70 -88q-27 0 -102 45q-91 51 -152 51
q-176 0 -183 -262zM61 523v-1q0 236 159 393q160 158 402 158q244 0 402 -157q159 -158 159 -393t-159 -393q-160 -158 -402 -158t-402 158q-159 158 -159 393zM90 522l-2 -2q0 -225 152 -374q151 -148 381 -148q229 0 381 149t152 374q0 226 -151 374t-381 148t-381 -148
t-151 -373zM348 519l-2 -1q0 128 76 207t197 79t197 -79t76 -207t-76 -205q-76 -78 -196 -78t-196 78q-76 77 -76 206zM375 518v-1q0 -112 66 -184t177 -72t177 72t66 185q0 112 -66 184t-177 72t-177 -72t-66 -184z" />
    <glyph glyph-name="odieresis" unicode="&#xf6;" horiz-adv-x="1245" 
d="M260 1306v-1q0 66 46 111t112 45q67 0 114 -46q48 -47 48 -109q0 -66 -48 -112q-47 -46 -114 -46q-66 0 -112 46t-46 112zM666 1305l-1 -1q0 66 46 111q47 45 112 45q67 0 113 -46q47 -47 47 -109q0 -65 -47 -112q-46 -46 -112 -46t-112 46t-46 112zM288 1304v-1
q0 -53 38 -91q37 -37 90 -37q55 0 93 38t38 92q0 51 -39 89q-40 38 -92 38q-53 0 -90 -37q-38 -38 -38 -91zM693 1303l2 -1q0 -53 38 -91q37 -37 90 -37q55 0 93 38t38 92q0 52 -39 89q-40 38 -93 38q-54 0 -91 -37q-38 -38 -38 -91zM62 518v-1q0 235 159 393
q160 158 402 158q244 0 402 -157q159 -157 159 -393t-159 -393q-160 -158 -402 -158t-402 158q-159 157 -159 393zM91 517l-2 -2q0 -225 152 -374q151 -148 381 -148q229 0 381 149t152 374q0 226 -151 374t-381 148t-381 -148t-151 -373zM349 514l-2 -1q0 128 76 207
t197 79t197 -79t76 -207t-76 -205q-77 -78 -196 -78t-196 78q-76 77 -76 206zM376 513v-1q0 -112 66 -184t177 -72t177 72t66 185q0 112 -66 184t-177 72t-177 -72t-66 -184z" />
    <glyph glyph-name="divide" unicode="&#xf7;" horiz-adv-x="1187" 
d="M440 1102q0 58 45 102q46 44 108 44t108 -44q45 -44 45 -102q0 -63 -45 -108t-108 -45t-108 45t-45 108zM469 1102q0 -51 37 -88t88 -37t88 37t37 88q0 47 -37 83q-38 36 -88 36t-88 -36q-37 -36 -37 -83zM113 590v256h962v-256h-962zM141 618h906v199h-906v-199z
M440 340q0 58 45 102q46 44 108 44t108 -44q45 -44 45 -102q0 -63 -45 -108t-108 -45t-108 45t-45 108zM469 340q0 -51 37 -88t88 -37t88 37t37 88q0 47 -37 83q-38 36 -88 36t-88 -36q-37 -36 -37 -83z" />
    <glyph glyph-name="oslash" unicode="&#xf8;" horiz-adv-x="1245" 
d="M61 522v-1q0 235 159 393q160 158 403 158q138 0 254 -55l41 57h184l-98 -139q180 -161 180 -414q0 -235 -159 -393q-158 -157 -402 -157q-136 0 -254 56l-41 -58h-185l99 140q-181 159 -181 413zM90 521l-2 -3q0 -253 191 -408l-82 -115h114l47 65q122 -63 264 -63
q229 0 381 149t152 374q0 254 -190 410l82 115h-115l-47 -66q-121 63 -262 63q-230 0 -381 -148q-152 -149 -152 -373zM348 518l-1 -1q0 128 76 207t198 79q72 0 122 -29l-321 -459q-74 79 -74 203zM376 517h-1q0 -91 43 -155l280 399q-38 12 -79 12q-111 0 -177 -72
t-66 -184zM496 261l321 459q74 -79 74 -203q0 -128 -76 -205q-77 -78 -196 -78q-72 -2 -123 27zM539 274h-1q36 -11 81 -13q111 0 177 72t66 184q0 92 -43 156z" />
    <glyph glyph-name="ugrave" unicode="&#xf9;" horiz-adv-x="1280" 
d="M803 1204h-277l-233 291h356zM756 1233l-123 233h-281l189 -233h215zM113 436v608h327v-542q0 -227 187 -228q94 0 148 70t54 192v509h328v-1044h-328v109q-119 -136 -309 -138q-203 0 -305 125t-102 339zM141 436l1 1q0 -211 99 -324q99 -112 281 -112q209 0 338 190
v-161h270v987h-270v-481q0 -133 -63 -211t-169 -78q-102 0 -159 66t-57 189v514h-271v-580z" />
    <glyph glyph-name="uacute" unicode="&#xfa;" horiz-adv-x="1280" 
d="M475 1204l154 291h356l-233 -291h-277zM522 1233h215l189 233h-281zM113 436v608h327v-542q0 -227 187 -228q94 0 148 70t54 192v509h328v-1044h-328v109q-119 -136 -309 -138q-203 0 -305 125t-102 339zM141 436l1 1q0 -211 99 -324q99 -112 281 -112q209 0 338 190
v-161h270v987h-270v-481q0 -133 -63 -211t-169 -78q-102 0 -159 66t-57 189v514h-271v-580z" />
    <glyph glyph-name="ucircumflex" unicode="&#xfb;" horiz-adv-x="1280" 
d="M262 1188l223 307h308l223 -307h-287l-90 143l-90 -143h-287zM317 1217h215l97 151h20l96 -151h216l-183 249h-278zM113 436v608h327v-542q0 -227 187 -228q94 0 148 70t54 192v509h328v-1044h-328v109q-119 -136 -309 -138q-203 0 -305 125t-102 339zM141 436l1 1
q0 -211 99 -324q99 -112 281 -112q209 0 338 190v-161h270v987h-270v-481q0 -133 -63 -211t-169 -78q-102 0 -159 66t-57 189v514h-271v-580z" />
    <glyph glyph-name="udieresis" unicode="&#xfc;" horiz-adv-x="1280" 
d="M276 1306l-2 -1q0 66 47 111q46 45 112 45q67 0 113 -46q47 -47 47 -109q0 -65 -47 -112q-46 -46 -112 -46t-112 46t-46 112zM680 1305l-1 -1q0 66 46 111q47 45 112 45q67 0 113 -46q47 -47 47 -109q0 -65 -47 -112q-46 -46 -112 -46t-112 46t-46 112zM302 1304v-1
q0 -53 38 -91q37 -37 90 -37q55 0 93 38t38 92q0 51 -39 89q-40 38 -92 38q-53 0 -90 -37q-38 -38 -38 -91zM708 1303l-1 -1q0 -53 38 -91q37 -37 92 -37t93 38t38 92q0 52 -39 89q-40 38 -93 38q-54 0 -91 -37t-37 -91zM109 431v608h327v-542q0 -227 187 -228q94 0 148 70
q54 71 54 192v509h328v-1044h-328v109q-119 -137 -309 -138q-203 0 -305 125q-102 124 -102 339zM137 431l1 1q0 -212 99 -324t281 -112q209 0 338 190v-161h270v987h-270v-481q0 -133 -63 -211t-169 -78q-102 0 -159 66t-57 189v514h-271v-580z" />
    <glyph glyph-name="yacute" unicode="&#xfd;" horiz-adv-x="1236" 
d="M463 1204l153 291h357l-234 -291h-276zM510 1233h215l188 233h-280zM0 1044h358l273 -636l256 636h350l-621 -1474h-333l186 455zM45 1016l455 -991l-174 -426h272l596 1417h-289l-274 -682l-291 682h-295z" />
    <glyph glyph-name="thorn" unicode="&#xfe;" horiz-adv-x="1320" 
d="M123 -430l-1 1924h328v-547q116 125 301 125q213 0 360 -157t147 -393t-147 -393q-147 -158 -360 -158q-181 0 -300 125v-526h-328zM151 -402l271 -2v573q129 -172 330 -172q206 0 342 150q137 151 137 373q0 223 -138 373t-342 150q-203 0 -330 -172v594h-270v-1867z
M414 521h-1q0 125 78 206t200 81q118 0 195 -80t77 -207t-77 -210q-76 -82 -195 -82q-121 0 -199 82q-78 83 -78 210zM441 521v-1q0 -116 71 -189q70 -72 179 -72q106 0 175 73q69 74 69 189t-69 187t-175 72q-109 0 -180 -72q-70 -71 -70 -187z" />
    <glyph glyph-name="ydieresis" unicode="&#xff;" horiz-adv-x="1236" 
d="M264 1306v-1q0 66 46 111t112 45q67 0 114 -46q48 -47 48 -109q0 -66 -48 -112q-47 -46 -114 -46q-66 0 -112 46t-46 112zM670 1305l-1 -1q0 66 46 111q47 45 112 45q67 0 113 -46q47 -47 47 -109q0 -65 -47 -112q-46 -46 -112 -46t-112 46t-46 112zM292 1304v-1
q0 -53 38 -91q37 -37 90 -37q55 0 93 38t38 92q0 51 -39 89q-40 38 -92 38q-53 0 -90 -37q-38 -38 -38 -91zM697 1303l2 -1q0 -53 38 -91q37 -37 90 -37q55 0 93 38t38 92q0 52 -39 89q-40 38 -93 38q-54 0 -91 -37q-38 -38 -38 -91zM1 1039h358l273 -636l256 636h350
l-621 -1474h-333l186 455zM46 1011l455 -991l-174 -426h272l596 1417h-289l-274 -682l-291 682h-295z" />
    <glyph glyph-name="Amacron" unicode="&#x100;" horiz-adv-x="1507" 
d="M446 1593v226h615v-226h-615zM475 1622h557v168h-557v-168zM0 0l530 1434h447l530 -1434h-350l-100 274h-606l-101 -274h-350zM41 29h289l100 274h647l101 -274h288l-510 1376h-405zM518 543l223 614h25l223 -614h-471zM559 571h389l-194 537z" />
    <glyph glyph-name="amacron" unicode="&#x101;" horiz-adv-x="1320" 
d="M336 1204v226h614v-226h-614zM365 1233h557v168h-557v-168zM61 522h-1q0 236 147 393q147 158 360 158q185 0 301 -125v96h328v-1044h-328v96q-119 -125 -300 -125q-213 0 -360 158q-147 157 -147 393zM89 521l-1 2q0 -223 138 -373t342 -150q200 0 330 174v-145h270v987
h-270v-144q-124 172 -329 172q-204 0 -342 -150t-138 -373zM354 525h-1q0 127 77 207t195 80q122 0 200 -81t78 -206q0 -127 -78 -210q-78 -82 -199 -82q-119 0 -195 82q-77 83 -77 210zM382 525l-2 -1q0 -117 69 -189t176 -72q110 0 180 73q71 74 71 189q0 114 -71 187
q-71 72 -179 72q-106 0 -175 -72t-69 -187z" />
    <glyph glyph-name="Abreve" unicode="&#x102;" horiz-adv-x="1507" 
d="M395 1866l246 -1q0 -121 111 -121t111 121h248q0 -136 -91 -226q-92 -90 -267 -90t-267 90q-91 90 -91 227zM424 1836q10 -121 97 -190t231 -69t231 69t97 190h-190q-16 -121 -138 -121t-138 121h-190zM-2 -1l530 1434h447l530 -1434h-350l-100 274h-606l-101 -274h-350z
M39 28h289l100 274h647l101 -274h288l-510 1376h-405zM516 542l223 614h25l223 -614h-471zM557 570h389l-194 537z" />
    <glyph glyph-name="abreve" unicode="&#x103;" horiz-adv-x="1320" 
d="M285 1477l247 -1q0 -121 111 -121t111 121h247q0 -136 -91 -226q-92 -90 -267 -90t-267 90q-91 90 -91 227zM315 1447h2q10 -121 98 -190q87 -69 230 -69t230 69q88 69 98 190h-191q-16 -121 -138 -121t-138 121h-191zM63 521h-1q0 235 147 393t360 158q185 0 301 -125
v96h328v-1044h-328v96q-119 -125 -300 -125q-213 0 -360 158t-147 393zM91 520l-1 2q0 -223 138 -373t342 -150q200 0 330 174v-145h270v987h-270v-144q-124 172 -329 172q-204 0 -342 -150t-138 -373zM356 524h-1q0 127 77 207t195 80q122 0 200 -81t78 -206
q0 -128 -78 -210t-199 -82q-119 0 -195 82q-77 83 -77 210zM384 524l-2 -1q0 -117 69 -189t176 -72q110 0 180 73q71 74 71 189q0 114 -71 187q-71 72 -179 72q-106 0 -175 -72t-69 -187z" />
    <glyph glyph-name="Aogonek" unicode="&#x104;" horiz-adv-x="1507" 
d="M0 0l531 1435h447l530 -1434q-62 -45 -102 -102q-41 -58 -41 -91q0 -57 57 -57q72 0 119 60l53 -168q-32 -41 -96 -71q-65 -30 -142 -30q-98 0 -164 57t-66 149q0 134 150 252h-119l-100 274h-606l-101 -274h-350zM42 30l287 1l100 274h647l101 -274h147l8 -21
q-178 -127 -178 -261q0 -79 57 -128q58 -50 145 -50q133 0 205 78l-35 110q-46 -37 -105 -37q-40 0 -63 23q-22 22 -22 63q0 39 39 96q40 58 99 107l-517 1395h-405zM517 545l223 614h25l223 -614h-471zM558 573h389l-194 537z" />
    <glyph glyph-name="aogonek" unicode="&#x105;" horiz-adv-x="1320" 
d="M1241 -223l42 -134q-32 -41 -96 -71q-65 -30 -141 -30q-98 0 -164 57t-66 149q0 134 150 252h-97v96q-119 -125 -300 -125q-213 0 -360 158q-147 157 -147 393t147 393q147 158 360 158q185 0 301 -125v96h328v-1044q-62 -45 -102 -102q-41 -58 -41 -91q0 -57 57 -57
q50 0 96 37l-4 14l17 -4l10 13l4 -15l18 -4q-6 -6 -12 -14zM1046 -429l-1 2q133 0 204 78l-34 110q-50 -37 -105 -37q-38 0 -63 23q-24 23 -24 63t41 99q40 59 102 108v1002h-270v-144q-124 172 -329 172q-204 0 -342 -150t-138 -373t138 -373t342 -150q200 0 330 172v-143
h125v-21q-178 -124 -178 -260q0 -79 57 -128q58 -50 145 -50zM627 814h-1q122 0 200 -81t78 -206q0 -127 -78 -210q-78 -82 -199 -82q-119 0 -195 82q-77 83 -77 210t77 207t195 80zM626 265l-1 -1q110 0 180 73q71 74 71 189q0 114 -71 187q-71 72 -179 72q-106 0 -175 -72
t-69 -187q0 -117 69 -189t175 -72z" />
    <glyph glyph-name="Cacute" unicode="&#x106;" horiz-adv-x="1583" 
d="M657 1593l154 291h356l-233 -291h-277zM705 1622h215l188 233h-281zM68 717h-3q0 316 215 531q214 214 536 214q286 0 471 -145q187 -146 233 -336l-332 -82q-28 97 -129 171q-100 73 -240 73q-182 0 -293 -123t-111 -301q0 -175 113 -302q112 -126 293 -126
q140 0 240 71t128 168l332 -84q-46 -187 -231 -331q-184 -144 -465 -144q-325 0 -541 213t-216 533zM93 717h-2q0 -308 208 -513t522 -205q238 0 420 119t242 306l-279 70q-40 -104 -147 -168q-107 -65 -240 -65q-185 0 -310 131q-124 130 -124 326t123 324t311 128
q131 0 239 -66t149 -170l279 67q-59 191 -244 312q-187 122 -424 122q-310 0 -516 -205q-207 -206 -207 -513z" />
    <glyph glyph-name="cacute" unicode="&#x107;" horiz-adv-x="1189" 
d="M453 1204l153 291h357l-234 -291h-276zM500 1233h215l188 233h-280zM61 522l-2 -4q0 235 158 393t396 158q209 0 350 -108t174 -245l-303 -86q-13 60 -74 106q-60 45 -144 45q-106 0 -172 -75t-66 -183t66 -186t172 -78q83 0 144 44q60 43 75 104l303 -86
q-33 -137 -172 -243q-140 -107 -345 -107q-241 0 -401 158q-159 157 -159 393zM88 517l-2 -1q0 -224 150 -373q149 -148 380 -148q171 0 305 85t178 216l-250 72q-27 -63 -91 -102t-144 -39q-112 0 -189 84q-76 83 -76 209q0 125 76 207t190 82q77 0 144 -41q66 -40 93 -104
l250 71q-44 133 -180 219q-137 86 -309 86q-225 0 -375 -150t-150 -373z" />
    <glyph glyph-name="Cdotaccent" unicode="&#x10a;" horiz-adv-x="1583" 
d="M643 1726h-1q0 72 53 123t126 51t126 -51q52 -51 52 -123q0 -74 -52 -125q-53 -51 -126 -51t-126 51q-52 51 -52 125zM671 1726l-2 -1q0 -62 43 -105t107 -43t107 43t43 105q0 58 -44 102t-105 44q-62 0 -105 -43q-44 -44 -44 -102zM65 716h-3q0 316 215 531
q214 214 536 214q286 0 471 -145q187 -146 233 -336l-332 -82q-29 98 -129 171t-240 73q-182 0 -293 -123t-111 -301q0 -175 113 -302q112 -126 293 -126q140 0 240 71t128 168l332 -84q-46 -187 -231 -331t-465 -144q-325 0 -541 213t-216 533zM90 716h-2q0 -308 208 -513
t522 -205q238 0 420 119t242 306l-279 70q-41 -103 -147 -168q-107 -65 -240 -65q-185 0 -310 131q-124 130 -124 326q0 197 123 324q123 128 311 128q131 0 239 -66t149 -170l279 67q-59 191 -244 312q-187 122 -424 122q-310 0 -516 -205q-207 -205 -207 -513z" />
    <glyph glyph-name="cdotaccent" unicode="&#x10b;" horiz-adv-x="1189" 
d="M438 1337h-2q0 72 53 123t126 51t126 -51t53 -123q0 -74 -52 -125t-126 -51t-126 51t-52 125zM465 1337l-2 -1q0 -62 43 -105t107 -43t107 43t43 105q0 58 -44 102t-105 44q-62 0 -105 -43q-44 -44 -44 -102zM57 521l-2 -4q0 235 158 393t396 158q209 0 350 -108
t174 -245l-303 -86q-13 60 -74 106q-60 45 -144 45q-106 0 -172 -75t-66 -183t66 -186t172 -78q83 0 144 44q60 43 75 104l303 -86q-33 -137 -172 -243q-140 -107 -345 -107q-241 0 -401 158q-159 158 -159 393zM84 516l-2 -1q0 -225 150 -373q149 -148 380 -148
q171 0 305 85t178 216l-250 72q-27 -63 -91 -102t-144 -39q-112 0 -189 84q-76 83 -76 209q0 125 76 207t190 82q77 0 144 -41q66 -40 93 -104l250 71q-44 134 -180 219q-137 86 -309 86q-225 0 -375 -150t-150 -373z" />
    <glyph glyph-name="Ccaron" unicode="&#x10c;" horiz-adv-x="1583" 
d="M444 1884h287l90 -143l90 143h287l-223 -307h-307zM500 1855l182 -249h279l182 249h-215l-97 -151h-20l-96 151h-215zM68 717h-3q0 316 215 531q214 214 536 214q286 0 471 -145q187 -146 233 -336l-332 -82q-28 97 -129 171q-100 73 -240 73q-182 0 -293 -123t-111 -301
q0 -175 113 -302q112 -126 293 -126q140 0 240 71t128 168l332 -84q-46 -187 -231 -331q-184 -144 -465 -144q-325 0 -541 213t-216 533zM93 717h-2q0 -308 208 -513t522 -205q238 0 420 119t242 306l-279 70q-40 -104 -147 -168q-107 -65 -240 -65q-185 0 -310 131
q-124 130 -124 326t123 324t311 128q131 0 239 -66t149 -170l279 67q-59 191 -244 312q-187 122 -424 122q-310 0 -516 -205q-207 -206 -207 -513z" />
    <glyph glyph-name="ccaron" unicode="&#x10d;" horiz-adv-x="1189" 
d="M240 1495h286l90 -143l91 143h286l-223 -307h-307zM295 1466l182 -249h279l182 249h-215l-96 -151h-21l-96 151h-215zM61 522l-2 -4q0 235 158 393t396 158q209 0 350 -108t174 -245l-303 -86q-13 60 -74 106q-60 45 -144 45q-106 0 -172 -75t-66 -183t66 -186t172 -78
q83 0 144 44q60 43 75 104l303 -86q-33 -137 -172 -243q-140 -107 -345 -107q-241 0 -401 158q-159 157 -159 393zM88 517l-2 -1q0 -224 150 -373q149 -148 380 -148q171 0 305 85t178 216l-250 72q-27 -63 -91 -102t-144 -39q-112 0 -189 84q-76 83 -76 209q0 125 76 207
t190 82q77 0 144 -41q66 -40 93 -104l250 71q-44 133 -180 219q-137 86 -309 86q-225 0 -375 -150t-150 -373z" />
    <glyph glyph-name="Dcaron" unicode="&#x10e;" horiz-adv-x="1529" 
d="M340 1884h287l90 -143l90 143h287l-224 -307h-307zM395 1855l183 -249h278l182 249h-215l-96 -151h-20l-97 151h-215zM123 0l-1 1435h661q304 0 491 -199q188 -200 188 -519q0 -315 -186 -516t-492 -201h-661zM151 30l633 -2q290 0 470 191t180 498t-180 498t-471 191
h-632v-1376zM430 275l1 881h346q164 0 267 -121q104 -122 104 -313q0 -195 -105 -321t-267 -126h-346zM460 304l317 -1q147 0 245 116t98 302q0 185 -97 295q-97 111 -246 111h-317v-823z" />
    <glyph glyph-name="dcaron" unicode="&#x10f;" horiz-adv-x="1601" 
d="M61 522h-1q0 236 147 393q147 158 360 158q185 0 301 -125v547h328v-1495h-328v96q-119 -125 -300 -125q-213 0 -360 158q-147 157 -147 393zM1302 1060l26 434h293l-68 -434h-251zM89 521l-1 2q0 -223 138 -373t342 -150q202 0 330 174v-145h270v1437h-270v-594
q-124 172 -329 172q-204 0 -342 -150t-138 -373zM1331 1091h197l59 376h-233zM354 525h-1q0 127 77 207t195 80q122 0 200 -81t78 -206q0 -127 -78 -210q-78 -82 -199 -82q-119 0 -195 82q-77 83 -77 210zM382 525l-2 -1q0 -117 69 -189t176 -72q110 0 180 73q71 74 71 189
q0 114 -71 187q-71 72 -179 72q-106 0 -175 -72t-69 -187z" />
    <glyph glyph-name="Dcroat" unicode="&#x110;" horiz-adv-x="1591" 
d="M41 563l-2 288h143v584h662q304 0 491 -199q188 -200 188 -519q0 -315 -186 -516t-491 -201h-662v563h-143zM68 593l143 -2v-563h633q289 0 469 191t180 498t-179 498t-470 191h-633v-584h-143v-229zM490 275v316h299v229h-299v336h346q164 0 267 -121t103 -313
q0 -195 -105 -321t-265 -126h-346zM518 304l316 -1q147 0 245 116t98 302q0 185 -97 295q-98 111 -244 111h-318v-278h299v-287h-299v-258z" />
    <glyph glyph-name="dcroat" unicode="&#x111;" horiz-adv-x="1329" 
d="M61 522h-1q0 236 147 393q147 158 360 158q185 0 301 -125v209h-299v184h299v154h328v-154h131v-184h-131v-1157h-328v96q-119 -125 -300 -125q-213 0 -360 158q-147 157 -147 393zM89 521l-1 2q0 -223 138 -373t342 -150q200 0 330 174v-145h270v1157h131v127h-131v153
h-270v-153h-299v-127h299v-316q-128 174 -330 174q-206 0 -342 -150q-137 -151 -137 -373zM354 525h-1q0 127 77 207t195 80q122 0 200 -81t78 -206q0 -127 -78 -210q-78 -82 -199 -82q-119 0 -195 82q-77 83 -77 210zM382 525l-2 -1q0 -117 69 -189t176 -72q110 0 180 73
q71 74 71 189q0 114 -71 187q-71 72 -179 72q-106 0 -175 -72t-69 -187z" />
    <glyph glyph-name="Emacron" unicode="&#x112;" horiz-adv-x="1284" 
d="M350 1593v226h615v-226h-615zM379 1622h557v168h-557v-168zM123 0v1434h1079v-308h-747v-249h643v-297h-643v-273h745v-307h-1077zM152 29h1019v250h-745v329h643v240h-643v307h748v250h-1022v-1376z" />
    <glyph glyph-name="emacron" unicode="&#x113;" horiz-adv-x="1222" 
d="M309 1204v226h615v-226h-615zM338 1233h557v168h-557v-168zM635 -29v-1q-256 0 -415 153t-159 397q0 240 153 396t400 156q252 0 399 -153t147 -387q0 -60 -8 -110h-772q39 -178 260 -178q151 0 209 106l295 -86q-50 -114 -184 -203q-135 -90 -325 -90zM635 -1l-4 -2
q151 0 281 68q129 67 189 179l-242 71q-67 -102 -221 -102q-129 0 -206 62q-76 61 -87 174h780q5 49 6 81q0 230 -142 371t-376 141q-229 0 -376 -147t-147 -377q0 -231 150 -375t395 -144zM346 589l-1 -2q1 101 78 168q77 68 184 68q113 0 188 -66t73 -168h-522zM376 616
h460q-8 74 -70 126t-159 52q-96 0 -158 -53q-61 -52 -73 -125z" />
    <glyph glyph-name="Edotaccent" unicode="&#x116;" horiz-adv-x="1284" 
d="M479 1726h-2q0 72 53 123q52 51 126 51t126 -51q53 -51 53 -123q0 -74 -52 -125q-53 -51 -126 -51t-126 51q-52 51 -52 125zM506 1726l-2 -1q0 -62 43 -105t107 -43t107 43t43 105q0 58 -44 102t-105 44q-62 0 -105 -43q-44 -44 -44 -102zM119 -1v1434h1079v-308h-747
v-249h643v-297h-643v-273h745v-307h-1077zM148 28h1019v250h-745v329h643v240h-643v307h748v250h-1022v-1376z" />
    <glyph glyph-name="edotaccent" unicode="&#x117;" horiz-adv-x="1222" 
d="M438 1337h-2q0 72 53 123t126 51t126 -51t53 -123q0 -74 -52 -125t-126 -51t-126 51t-52 125zM465 1337l-2 -1q0 -62 43 -105t107 -43t107 43t43 105q0 58 -44 102t-105 44q-62 0 -105 -43q-44 -44 -44 -102zM631 -30v-1q-256 0 -415 153t-159 397q0 240 153 396t400 156
q252 0 399 -153t147 -387q0 -60 -8 -110h-772q39 -178 260 -178q151 0 209 106l295 -86q-50 -114 -184 -203q-135 -90 -325 -90zM631 -2l-4 -2q151 0 281 68q129 67 189 179l-242 71q-67 -102 -221 -102q-129 0 -206 62q-76 62 -87 174h780q5 50 6 81q0 230 -142 371
q-143 141 -376 141q-229 0 -376 -147t-147 -377q0 -231 150 -375t395 -144zM342 588l-1 -2q1 100 78 168t184 68q113 0 188 -66t73 -168h-522zM372 615h460q-8 74 -70 126t-159 52q-96 0 -158 -53q-61 -52 -73 -125z" />
    <glyph glyph-name="Eogonek" unicode="&#x118;" horiz-adv-x="1284" 
d="M123 0v1435h1079v-308h-747v-249h643v-297h-643v-273h745v-307q-62 -45 -102 -102q-41 -58 -41 -91q0 -57 57 -57q72 0 119 60l53 -168q-32 -41 -96 -71t-141 -30q-98 0 -164 57t-66 149q0 134 150 252h-846zM152 30l874 1v-21q-180 -128 -180 -261q0 -79 57 -128
q58 -50 145 -50q134 0 204 78l-34 110q-46 -37 -105 -37q-40 0 -63 23q-22 22 -22 63q0 40 41 99t102 108v265h-745v329h643v240h-643v307h748v250h-1022v-1376z" />
    <glyph glyph-name="eogonek" unicode="&#x119;" horiz-adv-x="1222" 
d="M61 520v3q0 240 153 396t400 156q252 0 399 -153t147 -387q0 -58 -8 -108h-772q38 -180 261 -180q147 0 207 106l295 -86q-50 -128 -193 -216q-74 -62 -120 -127t-46 -111q0 -62 58 -63q72 0 119 60l53 -168q-32 -41 -96 -71t-142 -30q-97 0 -163 57t-66 149
q0 123 115 223h-27q-256 0 -415 153t-159 397zM90 523l-4 -4q0 -231 150 -375t395 -144q49 0 94 6l4 -14q-158 -111 -158 -244q0 -78 57 -128q58 -50 145 -50q133 0 205 78l-35 110q-50 -37 -104 -37q-39 0 -63 25q-24 26 -24 66q0 54 49 125t129 136q122 77 171 174
l-244 71q-67 -102 -219 -102q-129 0 -206 62q-76 62 -87 177h780q5 45 6 79q0 230 -142 371t-376 141q-229 0 -376 -147t-147 -376zM346 591l-1 -2q1 101 78 168q77 68 184 68q113 0 188 -66t73 -168h-522zM376 618h460q-8 74 -70 126t-159 52q-96 0 -158 -53
q-61 -52 -73 -125z" />
    <glyph glyph-name="Ecaron" unicode="&#x11a;" horiz-adv-x="1284" 
d="M281 1884h286l90 -143l91 143h286l-223 -307h-307zM336 1855l182 -249h279l182 249h-215l-96 -151h-21l-96 151h-215zM123 0v1434h1079v-308h-747v-249h643v-297h-643v-273h745v-307h-1077zM152 29h1019v250h-745v329h643v240h-643v307h748v250h-1022v-1376z" />
    <glyph glyph-name="ecaron" unicode="&#x11b;" horiz-adv-x="1222" 
d="M240 1495h286l90 -143l91 143h286l-223 -307h-307zM295 1466l182 -249h279l182 249h-215l-96 -151h-21l-96 151h-215zM635 -29v-1q-256 0 -415 153t-159 397q0 240 153 396t400 156q252 0 399 -153t147 -387q0 -60 -8 -110h-772q39 -178 260 -178q151 0 209 106l295 -86
q-50 -114 -184 -203q-135 -90 -325 -90zM635 -1l-4 -2q151 0 281 68q129 67 189 179l-242 71q-67 -102 -221 -102q-129 0 -206 62q-76 61 -87 174h780q5 49 6 81q0 230 -142 371t-376 141q-229 0 -376 -147t-147 -377q0 -231 150 -375t395 -144zM346 589l-1 -2q1 101 78 168
q77 68 184 68q113 0 188 -66t73 -168h-522zM376 616h460q-8 74 -70 126t-159 52q-96 0 -158 -53q-61 -52 -73 -125z" />
    <glyph glyph-name="Gbreve" unicode="&#x11e;" horiz-adv-x="1636" 
d="M471 1866l248 -1q0 -121 111 -121t111 121h248q0 -136 -91 -226q-92 -90 -268 -90t-268 90q-91 90 -91 227zM502 1836q10 -121 97 -190t231 -69t231 69t97 190h-190q-16 -121 -138 -121t-138 121h-190zM68 715l-2 1q0 318 217 532t538 214q261 0 443 -127
q183 -127 255 -318l-316 -90q-113 215 -378 215q-181 0 -298 -123t-117 -301t120 -306q120 -127 335 -127q145 0 235 69q89 68 112 167l-376 -2v293h733v-170q0 -295 -201 -484t-528 -189q-335 0 -553 214q-219 215 -219 532zM94 716h-1q0 -307 212 -513q211 -205 531 -205
q310 0 506 179q195 179 195 465v141h-676v-235l383 2q-14 -130 -120 -213q-106 -82 -261 -82q-215 0 -348 129q-134 129 -134 332q0 196 127 324q128 129 318 129q272 0 393 -208l262 73q-78 182 -255 290t-405 108q-309 0 -518 -206t-209 -510z" />
    <glyph glyph-name="gbreve" unicode="&#x11f;" horiz-adv-x="1310" 
d="M287 1477l246 -1q0 -121 111 -121t111 121h248q0 -136 -91 -226q-92 -90 -267 -90t-267 90q-91 90 -91 227zM315 1447h2q10 -121 98 -190q87 -69 230 -69t230 69q88 69 98 190h-191q-16 -121 -138 -121t-138 121h-191zM61 542v-1q0 239 144 384q144 146 367 146
q173 0 289 -125v96h328v-1005q0 -221 -150 -359t-400 -138q-356 0 -506 273l283 102q70 -109 231 -109q104 0 158 63t54 167v100q-116 -125 -289 -125q-221 0 -365 153t-144 378zM90 541h-1q0 -214 138 -358t344 -144q190 0 318 176v-180q0 -120 -64 -188q-65 -69 -177 -69
q-162 0 -241 102l-230 -82q142 -229 462 -229q235 0 378 129q142 129 142 340v977h-270v-148q-128 176 -318 176q-214 0 -347 -139q-134 -140 -134 -363zM355 541l-1 -1q0 119 76 192q77 74 198 74q122 0 195 -73q74 -74 74 -192q0 -119 -73 -192q-74 -74 -195 -74t-198 74
q-76 73 -76 192zM383 539h-1q0 -106 68 -172t176 -66t174 66t66 172t-66 172t-174 66t-176 -66q-67 -66 -67 -172z" />
    <glyph glyph-name="Gdotaccent" unicode="&#x120;" horiz-adv-x="1636" 
d="M651 1726h-2q0 72 53 123q52 51 126 51t126 -51q53 -51 53 -123q0 -74 -52 -125q-53 -51 -126 -51t-126 51q-52 51 -52 125zM678 1726l-2 -1q0 -62 43 -105t107 -43t107 43t43 105q0 58 -44 102t-105 44q-62 0 -105 -43q-44 -44 -44 -102zM64 715l-2 1q0 318 217 532
t538 214q261 0 443 -127q183 -127 255 -318l-316 -90q-113 215 -378 215q-181 0 -298 -123t-117 -301t120 -306q120 -127 335 -127q145 0 235 69q89 68 112 167l-376 -2v293h733v-170q0 -295 -201 -484t-528 -189q-335 0 -553 214q-219 215 -219 532zM90 716h-1
q0 -307 212 -513q211 -205 531 -205q310 0 506 179q195 179 195 465v141h-676v-235l383 2q-14 -130 -120 -213q-106 -82 -261 -82q-215 0 -348 129q-134 129 -134 332q0 196 127 324q128 129 318 129q272 0 393 -208l262 73q-78 182 -255 290t-405 108q-309 0 -518 -206
t-209 -510z" />
    <glyph glyph-name="gdotaccent" unicode="&#x121;" horiz-adv-x="1310" 
d="M467 1337q0 72 52 123q53 51 126 51t126 -51q52 -51 52 -123q0 -74 -52 -125q-53 -51 -126 -51t-126 51q-52 51 -52 125zM496 1337l-2 -1q0 -62 43 -105t107 -43t107 43t43 105q0 58 -44 102t-105 44q-62 0 -105 -43q-44 -44 -44 -102zM59 542v-1q0 239 144 384
q144 146 367 146q173 0 289 -125v96h328v-1005q0 -221 -150 -359t-400 -138q-356 0 -506 273l283 102q70 -109 231 -109q104 0 158 63t54 167v100q-116 -125 -289 -125q-221 0 -365 153t-144 378zM88 541h-1q0 -214 138 -358t344 -144q190 0 318 176v-180q0 -120 -64 -188
q-65 -69 -177 -69q-162 0 -241 102l-230 -82q142 -229 462 -229q235 0 378 129q142 129 142 340v977h-270v-148q-128 176 -318 176q-214 0 -347 -139q-134 -140 -134 -363zM353 541l-1 -1q0 119 76 192q77 74 198 74q122 0 195 -73q74 -74 74 -192q0 -119 -73 -192
q-74 -74 -195 -74t-198 74q-76 73 -76 192zM381 539h-1q0 -106 68 -172t176 -66t174 66t66 172t-66 172t-174 66t-176 -66q-67 -66 -67 -172z" />
    <glyph glyph-name="uni0122" unicode="&#x122;" horiz-adv-x="1636" 
d="M68 716l-2 1q0 318 217 532t538 214q261 0 443 -127q183 -128 255 -318l-316 -90q-113 215 -378 215q-181 0 -298 -123t-117 -301q0 -179 120 -306t335 -127q145 0 235 69q89 68 112 167l-376 -2v293h733v-170q0 -295 -201 -484t-528 -189q-335 0 -553 214
q-219 214 -219 532zM94 717h-1q0 -307 212 -513q211 -205 531 -205q310 0 506 179q195 178 195 465v141h-676v-235l383 2q-14 -131 -120 -213t-261 -82q-215 0 -348 129q-134 129 -134 332q0 196 127 324q128 129 318 129q272 0 393 -208l262 73q-78 182 -255 290t-405 108
q-309 0 -518 -206t-209 -510zM669 -553l26 430h293l-67 -430h-252zM699 -524h197l59 372h-233z" />
    <glyph glyph-name="uni0123" unicode="&#x123;" horiz-adv-x="1310" 
d="M815 1647l-27 -430h-292l67 430h252zM784 1618h-196l-60 -373h234zM61 543v-1q0 238 144 384t367 146q173 0 289 -125v96h328v-1005q0 -221 -150 -359t-400 -138q-356 0 -506 273l283 102q70 -109 231 -109q104 0 158 63t54 167v100q-116 -125 -289 -125q-221 0 -365 153
t-144 378zM90 542h-1q0 -214 138 -358t344 -144q190 0 318 176v-180q0 -120 -64 -188q-65 -69 -177 -69q-162 0 -241 102l-230 -82q142 -229 462 -229q235 0 378 129q142 129 142 340v977h-270v-148q-128 176 -318 176q-214 0 -347 -139q-134 -140 -134 -363zM355 542l-1 -1
q0 119 76 192q77 74 198 74q122 0 195 -73q74 -74 74 -192q0 -119 -73 -192q-74 -74 -195 -74t-198 74q-76 73 -76 192zM383 540h-1q0 -106 68 -172t176 -66t174 66t66 172t-66 172t-174 66t-176 -66q-67 -66 -67 -172z" />
    <glyph glyph-name="Hbar" unicode="&#x126;" horiz-adv-x="1556" 
d="M20 1053v204h138v177h340v-177h565v177h340v-177h133v-204h-133v-1053h-340v575h-565v-575h-340v1053h-138zM49 1081h137v-1052h283v575h623v-575h282v1052h133v148h-133v176h-282v-176h-623v176h-283v-176h-137v-148zM469 854v227h623v-227h-623zM498 883h565v170h-565
v-170z" />
    <glyph glyph-name="hbar" unicode="&#x127;" horiz-adv-x="1288" 
d="M0 1157v182h131v154h328v-154h299v-184h-299v-221q119 137 309 137q203 0 305 -125q102 -124 102 -339v-608h-328v543q0 227 -186 227q-94 0 -148 -69t-54 -190v-510h-328v1157h-131zM29 1184l129 -2v-1157h270v481q0 133 63 211t170 78q102 0 159 -66t57 -189v-514h270
v579q0 211 -99 324t-280 113q-209 0 -338 -190v332h299v127h-299v153h-270v-153h-131v-127z" />
    <glyph glyph-name="Imacron" unicode="&#x12a;" horiz-adv-x="589" 
d="M-12 1593v226h614v-226h-614zM16 1622h557v168h-557v-168zM123 0v1434h344v-1434h-344zM152 29h286v1376h-286v-1376z" />
    <glyph glyph-name="imacron" unicode="&#x12b;" horiz-adv-x="573" 
d="M-20 1204v226h614v-226h-614zM8 1233h557v168h-557v-168zM123 0v1044h328v-1044h-328zM152 29h270v987h-270v-987z" />
    <glyph glyph-name="Iogonek" unicode="&#x12e;" horiz-adv-x="589" 
d="M86 -252v1q0 133 150 252h-113v1434h344v-1434q-61 -45 -102 -102q-41 -58 -41 -91q0 -57 57 -57q73 0 119 60l53 -168q-32 -41 -96 -71q-65 -30 -142 -30q-97 0 -163 57t-66 149zM115 -251h-1q0 -78 56 -128t144 -50q133 0 205 78l-35 110q-46 -37 -104 -37
q-40 0 -63 23q-22 22 -22 63q0 40 41 99q40 59 102 108v1391h-286v-1376h131v-29q-168 -121 -168 -252z" />
    <glyph glyph-name="iogonek" unicode="&#x12f;" horiz-adv-x="573" 
d="M109 1337h-1q0 72 52 123t126 51t126 -51q53 -51 53 -123q0 -74 -52 -125q-53 -51 -126 -51t-126 51q-52 51 -52 125zM136 1337l-2 -1q0 -62 43 -105t107 -43t107 43t43 105q0 58 -44 102t-105 44q-62 0 -105 -43q-44 -44 -44 -102zM67 -253l1 1q0 133 149 252h-96v1044
h328v-1044q-60 -44 -103 -102q-42 -57 -42 -91q0 -57 58 -57q72 0 118 60l54 -168q-32 -41 -96 -71t-142 -30q-97 0 -163 57t-66 149zM96 -252l-3 1q0 -79 57 -128q58 -50 145 -50q133 0 205 78l-33 112q-53 -39 -105 -39q-40 0 -63 23q-22 22 -22 63q0 40 41 99
q40 59 102 108v1002h-270v-987h127v-21q-181 -127 -181 -261z" />
    <glyph glyph-name="Idotaccent" unicode="&#x130;" horiz-adv-x="589" 
d="M117 1726q0 72 52 123q53 51 126 51t126 -51q52 -51 52 -123q0 -74 -52 -125q-53 -51 -126 -51t-126 51q-52 51 -52 125zM145 1726l-2 -1q0 -62 43 -105t107 -43t107 43t43 105q0 58 -44 102t-105 44q-62 0 -105 -43q-44 -44 -44 -102zM121 -1v1434h344v-1434h-344z
M150 28h286v1376h-286v-1376z" />
    <glyph glyph-name="dotlessi" unicode="&#x131;" horiz-adv-x="573" 
d="M123 0v1044h328v-1044h-328zM152 29h270v987h-270v-987z" />
    <glyph glyph-name="uni0136" unicode="&#x136;" horiz-adv-x="1464" 
d="M123 0v1434h340v-623l520 623h430l-549 -619l590 -815h-412l-401 563l-178 -201v-362h-340zM152 29h282v344l209 235l414 -579h342l-572 788l525 588h-355l-563 -674v674h-282v-1376zM547 -553l26 430h293l-67 -430h-252zM578 -524h196l60 372h-234z" />
    <glyph glyph-name="uni0137" unicode="&#x137;" horiz-adv-x="1175" 
d="M123 0v1495h328v-833l313 382h377l-387 -446l422 -598h-369l-256 362l-100 -114v-248h-328zM152 29h270v229l131 152l268 -381h299l-403 571l360 416h-299l-305 -373l-51 19v804h-270v-1437zM451 -553l26 430h293l-68 -430h-251zM481 -524h197l59 372h-233z" />
    <glyph glyph-name="Lacute" unicode="&#x139;" horiz-adv-x="1177" 
d="M154 1593l153 291h357l-234 -291h-276zM201 1622h215l188 233h-280zM123 0v1434h340v-1123h674v-311h-1014zM152 29h956v254h-674v1122h-282v-1376z" />
    <glyph glyph-name="lacute" unicode="&#x13a;" horiz-adv-x="573" 
d="M123 1655l153 291h357l-234 -291h-276zM170 1683h215l188 234h-280zM123 0v1495h328v-1495h-328zM152 29h270v1437h-270v-1437z" />
    <glyph glyph-name="uni013B" unicode="&#x13b;" horiz-adv-x="1177" 
d="M123 0v1434h340v-1123h674v-311h-1014zM152 29h956v254h-674v1122h-282v-1376zM455 -553l26 430h293l-67 -430h-252zM485 -524h197l59 372h-233z" />
    <glyph glyph-name="uni013C" unicode="&#x13c;" horiz-adv-x="573" 
d="M123 0v1495h328v-1495h-328zM152 29h270v1437h-270v-1437zM113 -553l26 430h293l-67 -430h-252zM143 -524h197l59 372h-233z" />
    <glyph glyph-name="Lcaron" unicode="&#x13d;" horiz-adv-x="1177" 
d="M123 0v1434h340v-1123h674v-311h-1014zM815 1061l21 373h301l-66 -373h-256zM152 29h956v254h-674v1122h-282v-1376zM846 1090h201l55 315h-240z" />
    <glyph glyph-name="lcaron" unicode="&#x13e;" horiz-adv-x="858" 
d="M123 0v1495h328v-1495h-328zM559 1061l27 434h293l-68 -434h-252zM152 29h270v1437h-270v-1437zM590 1090h196l60 376h-234z" />
    <glyph glyph-name="Lslash" unicode="&#x141;" horiz-adv-x="1177" 
d="M31 725l92 39v670h340v-523l383 166v-286l-383 -166v-314h674v-311h-1014v477l-92 -39v287zM59 481l93 39v-491h956v254h-674v360l383 166v223l-383 -166v539h-282v-660l-93 -38v-226z" />
    <glyph glyph-name="lslash" unicode="&#x142;" horiz-adv-x="688" 
d="M20 793l160 75v637h328v-485l160 76v-287l-160 -76v-723h-328v572l-160 -76v287zM49 551l160 78v-590h270v713l160 75v224l-160 -78v504h-270v-627l-160 -76v-223z" />
    <glyph glyph-name="Nacute" unicode="&#x143;" horiz-adv-x="1507" 
d="M590 1593l153 291h357l-234 -291h-276zM637 1622h215l188 233h-280zM123 0v1434h276l645 -822v822h340v-1434h-276l-645 821v-821h-340zM152 29h282v876l688 -876h234v1376h-283v-877l-688 877h-233v-1376z" />
    <glyph glyph-name="nacute" unicode="&#x144;" horiz-adv-x="1280" 
d="M487 1204l154 291h356l-233 -291h-277zM535 1233h215l188 233h-281zM123 0v1042h328v-108q119 137 309 137q203 0 305 -125q102 -124 102 -339v-608h-327v543q0 227 -187 227q-94 0 -148 -69t-54 -190v-510h-328zM152 27l268 -2v481q0 133 63 211t169 78q102 0 159 -66
t57 -189v-514h271v579q0 211 -99 324t-280 113q-208 0 -338 -190v162h-270v-987z" />
    <glyph glyph-name="uni0145" unicode="&#x145;" horiz-adv-x="1507" 
d="M123 0v1434h276l645 -822v822h340v-1434h-276l-645 821v-821h-340zM152 29h282v876l688 -876h234v1376h-283v-877l-688 877h-233v-1376zM594 -553l27 430h292l-67 -430h-252zM625 -524h196l60 372h-234z" />
    <glyph glyph-name="uni0146" unicode="&#x146;" horiz-adv-x="1280" 
d="M123 0v1042h328v-108q119 137 309 137q203 0 305 -125q102 -124 102 -339v-608h-327v543q0 227 -187 227q-94 0 -148 -69t-54 -190v-510h-328zM152 27l268 -2v481q0 133 63 211t169 78q102 0 159 -66t57 -189v-514h271v579q0 211 -99 324t-280 113q-208 0 -338 -190v162
h-270v-987zM479 -557l27 430h293l-68 -430h-252zM510 -528h197l59 372h-233z" />
    <glyph glyph-name="Ncaron" unicode="&#x147;" horiz-adv-x="1507" 
d="M377 1884h287l90 -143l90 143h286l-223 -307h-307zM432 1855l182 -249h279l182 249h-215l-96 -151h-21l-96 151h-215zM123 0v1434h276l645 -822v822h340v-1434h-276l-645 821v-821h-340zM152 29h282v876l688 -876h234v1376h-283v-877l-688 877h-233v-1376z" />
    <glyph glyph-name="ncaron" unicode="&#x148;" horiz-adv-x="1280" 
d="M274 1495h287l90 -143l90 143h287l-223 -307h-307zM330 1466l182 -249h279l182 249h-215l-96 -151h-21l-96 151h-215zM123 0v1042h328v-108q119 137 309 137q203 0 305 -125q102 -124 102 -339v-608h-327v543q0 227 -187 227q-94 0 -148 -69t-54 -190v-510h-328zM152 27
l268 -2v481q0 133 63 211t169 78q102 0 159 -66t57 -189v-514h271v579q0 211 -99 324t-280 113q-208 0 -338 -190v162h-270v-987z" />
    <glyph glyph-name="Eng" unicode="&#x14a;" horiz-adv-x="1507" 
d="M123 0l-1 1435h276l645 -822v822h340v-1434q0 -206 -95 -321q-94 -114 -290 -114q-102 0 -206 45l71 250q37 -19 93 -21q90 0 91 133v105l-584 743v-821h-340zM151 30l281 -1v876l641 -817v-115q0 -77 -31 -118q-32 -42 -87 -42q-39 0 -73 10l-56 -195q88 -33 172 -33
q356 0 357 406v1405h-283v-875l-688 875h-233v-1376z" />
    <glyph glyph-name="eng" unicode="&#x14b;" horiz-adv-x="1280" 
d="M123 0l-1 1042h328v-108q119 137 309 137q203 0 305 -125q102 -124 102 -339v-608q0 -218 -95 -340q-94 -121 -290 -121q-102 0 -207 47l72 250q38 -20 81 -20q113 0 113 153v574q0 227 -187 227q-94 0 -148 -69t-54 -190v-510h-328zM151 27l268 -2v481q0 133 63 211
t169 78q102 0 159 -66t57 -189v-574q0 -86 -36 -134t-104 -48q-28 0 -61 10l-56 -194q87 -35 171 -35q355 0 357 432v608q0 211 -99 324t-280 113q-176 0 -287 -126l-51 18v80h-270v-987z" />
    <glyph glyph-name="Omacron" unicode="&#x14c;" horiz-adv-x="1654" 
d="M520 1593v226h615v-226h-615zM549 1622h557v168h-557v-168zM68 716v-2q0 320 216 533t543 213t543 -213t216 -532t-216 -532t-543 -213t-543 213t-216 533zM96 714h-2q0 -309 208 -513t524 -204t524 204t208 513t-208 513q-209 204 -523 204q-315 0 -523 -204t-208 -513z
M381 714h-2q0 200 125 331q124 130 320 130t320 -130q125 -131 125 -331q0 -202 -125 -332q-125 -129 -319 -129q-195 0 -319 129q-125 130 -125 332zM408 713q0 -186 114 -309t300 -123t300 123t114 309t-114 309t-300 123t-300 -123t-114 -309z" />
    <glyph glyph-name="omacron" unicode="&#x14d;" horiz-adv-x="1245" 
d="M315 1204v226h615v-226h-615zM344 1233h557v168h-557v-168zM61 522v-1q0 235 159 393q160 158 402 158q244 0 402 -157q159 -157 159 -393t-159 -393q-160 -158 -402 -158t-402 158q-159 157 -159 393zM90 521l-2 -2q0 -225 152 -374q151 -148 381 -148q229 0 381 149
t152 374q0 226 -151 374t-381 148t-381 -148t-151 -373zM348 518l-2 -1q0 128 76 207t197 79t197 -79t76 -207t-76 -205q-76 -78 -196 -78t-196 78q-76 77 -76 206zM375 517v-1q0 -112 66 -184t177 -72t177 72t66 185q0 112 -66 184t-177 72t-177 -72t-66 -184z" />
    <glyph glyph-name="Ohungarumlaut" unicode="&#x150;" horiz-adv-x="1654" 
d="M479 1593l168 291h293l-178 -291h-283zM868 1593l185 291h293l-195 -291h-283zM528 1622h217l144 233h-225zM920 1622h217l153 233h-221zM68 716v-2q0 320 216 533t543 213t543 -213t216 -532t-216 -532t-543 -213t-543 213t-216 533zM96 714h-2q0 -309 208 -513
t524 -204t524 204t208 513t-208 513q-209 204 -523 204q-315 0 -523 -204t-208 -513zM381 714h-2q0 200 125 331q124 130 320 130t320 -130q125 -131 125 -331q0 -202 -125 -332q-125 -129 -319 -129q-195 0 -319 129q-125 130 -125 332zM408 713q0 -186 114 -309t300 -123
t300 123t114 309t-114 309t-300 123t-300 -123t-114 -309z" />
    <glyph glyph-name="ohungarumlaut" unicode="&#x151;" horiz-adv-x="1245" 
d="M274 1204l168 291h293l-178 -291h-283zM664 1204l184 291h293l-195 -291h-282zM324 1233h217l143 233h-225zM715 1233h217l153 233h-221zM61 522v-1q0 235 159 393q160 158 402 158q244 0 402 -157q159 -157 159 -393t-159 -393q-160 -158 -402 -158t-402 158
q-159 157 -159 393zM90 521l-2 -2q0 -225 152 -374q151 -148 381 -148q229 0 381 149t152 374q0 226 -151 374t-381 148t-381 -148t-151 -373zM348 518l-2 -1q0 128 76 207t197 79t197 -79t76 -207t-76 -205q-76 -78 -196 -78t-196 78q-76 77 -76 206zM375 517v-1
q0 -112 66 -184t177 -72t177 72t66 185q0 112 -66 184t-177 72t-177 -72t-66 -184z" />
    <glyph glyph-name="OE" unicode="&#x152;" horiz-adv-x="2064" 
d="M68 717l1 -2q0 319 192 519q192 199 501 199h1220v-308h-659v-249h555v-297h-555v-273h657v-307h-1218q-308 0 -501 202t-193 516zM97 715v-1q0 -303 186 -495t479 -192h1190v250h-658v329h555v240h-555v307h660v250h-1192q-297 0 -481 -190t-184 -498zM384 720l1 -2
q0 190 105 312q105 121 273 121h254v-876h-254q-163 0 -271 126t-108 319zM414 718q0 -185 100 -300q101 -116 250 -116h225v819h-225q-152 0 -251 -109q-99 -110 -99 -294z" />
    <glyph glyph-name="oe" unicode="&#x153;" horiz-adv-x="2027" 
d="M61 522l4 -1q0 235 159 393q160 158 403 158q247 0 399 -180q150 180 401 180q254 0 398 -153t144 -387q0 -61 -10 -120h-764q19 -78 87 -126t163 -48q122 0 184 86l293 -88q-50 -106 -180 -186q-130 -79 -297 -79q-269 0 -423 181q-151 -179 -399 -181q-243 0 -403 158
q-159 157 -159 393zM94 521l-1 -2q0 -225 152 -374q151 -148 381 -148q258 0 399 199q145 -199 423 -199q134 0 255 62q120 62 179 158l-242 72q-72 -82 -194 -82q-115 0 -193 63t-92 167h774q6 47 6 92q0 230 -140 372q-140 141 -374 141q-260 0 -401 -198
q-142 200 -399 198q-230 0 -381 -148q-152 -149 -152 -373zM1156 588l-1 2q6 104 84 170t188 66q113 0 185 -66t72 -172h-528zM352 520q0 122 77 204q77 81 195 81t195 -81q77 -82 77 -204t-77 -204q-77 -81 -195 -81t-195 81q-77 82 -77 204zM1188 619l465 -1
q-11 78 -70 129q-60 51 -156 51t-161 -53q-64 -53 -78 -126zM381 519l-2 -1q0 -108 68 -182t176 -74t176 74t68 182q0 109 -67 182q-68 74 -176 74q-109 0 -176 -73t-67 -182z" />
    <glyph glyph-name="Racute" unicode="&#x154;" horiz-adv-x="1441" 
d="M512 1593l154 291h356l-234 -291h-276zM559 1622h215l189 233h-281zM123 0l-1 1434h717q227 0 368 -147t141 -337q0 -141 -77 -260t-216 -176l346 -514h-391l-305 471h-246v-471h-336zM151 29h277v471h291l305 -471h320l-336 499q141 45 225 160q84 116 84 262
q0 191 -138 323t-340 132h-688v-1376zM428 739v418h399q90 0 154 -61t64 -147q0 -90 -67 -150q-68 -60 -165 -60h-385zM457 766l355 1q88 0 146 53q57 52 57 129q0 74 -55 126q-56 53 -133 53h-370v-362z" />
    <glyph glyph-name="racute" unicode="&#x155;" horiz-adv-x="819" 
d="M264 1204l154 291h356l-233 -291h-277zM311 1233h215l189 233h-281zM123 0l-1 1046h328v-141q47 86 131 128q83 42 196 28v-307q-168 28 -247 -48t-79 -270v-436h-328zM151 31l270 1v407q0 195 81 281q81 85 247 66v248q-211 18 -306 -203h-22v187h-270v-987z" />
    <glyph glyph-name="uni0156" unicode="&#x156;" horiz-adv-x="1441" 
d="M123 0l-1 1434h717q227 0 368 -147t141 -337q0 -141 -77 -260t-216 -176l346 -514h-391l-305 471h-246v-471h-336zM151 29h277v471h291l305 -471h320l-336 499q141 45 225 160q84 116 84 262q0 191 -138 323t-340 132h-688v-1376zM428 739v418h399q90 0 154 -61t64 -147
q0 -90 -67 -150q-68 -60 -165 -60h-385zM457 766l355 1q88 0 146 53q57 52 57 129q0 74 -55 126q-56 53 -133 53h-370v-362zM538 -554l26 430h293l-67 -430h-252zM568 -525h197l59 372h-233z" />
    <glyph glyph-name="uni0157" unicode="&#x157;" horiz-adv-x="819" 
d="M123 0l-1 1046h328v-141q47 86 131 128q83 42 196 28v-307q-168 28 -247 -48t-79 -270v-436h-328zM151 31l270 1v407q0 195 81 281q81 85 247 66v248q-211 18 -306 -203h-22v187h-270v-987zM114 -550l26 430h293l-67 -430h-252zM144 -521h197l59 372h-233z" />
    <glyph glyph-name="Rcaron" unicode="&#x158;" horiz-adv-x="1441" 
d="M299 1884h287l90 -143l90 143h287l-224 -307h-307zM354 1855l183 -249h278l182 249h-215l-96 -151h-20l-97 151h-215zM123 0l-1 1434h717q227 0 368 -147t141 -337q0 -141 -77 -260t-216 -176l346 -514h-391l-305 471h-246v-471h-336zM151 29h277v471h291l305 -471h320
l-336 499q141 45 225 160q84 116 84 262q0 191 -138 323t-340 132h-688v-1376zM428 739v418h399q90 0 154 -61t64 -147q0 -90 -67 -150q-68 -60 -165 -60h-385zM457 766l355 1q88 0 146 53q57 52 57 129q0 74 -55 126q-56 53 -133 53h-370v-362z" />
    <glyph glyph-name="rcaron" unicode="&#x159;" horiz-adv-x="819" 
d="M51 1495h287l90 -143l90 143h287l-223 -307h-308zM106 1466l183 -249h278l183 249h-215l-97 -151h-20l-96 151h-216zM123 0l-1 1046h328v-141q47 86 131 128q83 42 196 28v-307q-168 28 -247 -48t-79 -270v-436h-328zM151 31l270 1v407q0 195 81 281q81 85 247 66v248
q-211 18 -306 -203h-22v187h-270v-987z" />
    <glyph glyph-name="Sacute" unicode="&#x15a;" horiz-adv-x="1374" 
d="M518 1593l154 291h356l-233 -291h-277zM565 1622h215l189 233h-281zM51 406l325 95q43 -106 139 -172t231 -66q101 0 162 40q62 41 62 96q0 89 -154 138l-369 114q-149 46 -240 146q-90 98 -88 234q-1 179 150 303q152 125 381 125q228 0 401 -109q175 -110 233 -267
l-313 -92q-43 76 -129 124t-189 48q-85 0 -138 -33q-52 -33 -52 -84q0 -74 96 -102l361 -115q188 -59 290 -147t102 -255q0 -195 -163 -325t-426 -130q-253 0 -429 126q-175 126 -243 308zM91 382l-2 -1q76 -178 247 -283t388 -105q246 0 402 120t156 306q0 138 -86 226
q-85 86 -287 151l-360 115q-117 33 -117 129q0 63 62 105t158 42q101 0 190 -46t139 -123l262 78q-68 148 -232 239q-166 92 -361 92q-216 0 -359 -115q-144 -115 -142 -285q-2 -120 79 -212q82 -94 229 -140l368 -115q174 -53 174 -164q0 -72 -72 -117t-181 -45
q-130 0 -231 61q-102 61 -156 171z" />
    <glyph glyph-name="sacute" unicode="&#x15b;" horiz-adv-x="1073" 
d="M358 1204l154 291h356l-233 -291h-277zM406 1233h215l188 233h-281zM25 295l294 83q27 -68 90 -110t152 -42q58 0 95 23q36 23 36 54q0 51 -98 80l-250 74q-264 79 -264 291q0 137 128 230t306 93q168 0 295 -72t178 -195l-287 -82q-71 98 -189 98q-45 0 -78 -18t-33 -46
q0 -41 60 -62l241 -67q69 -19 120 -41q50 -22 96 -55q48 -35 72 -88q24 -54 24 -126q0 -152 -130 -249q-131 -98 -336 -98q-193 0 -337 96q-145 97 -185 229zM63 273l-1 -1q49 -121 186 -199q136 -78 300 -78q194 0 315 90q122 90 122 229q0 125 -72 182q-73 58 -220 101
l-241 68q-80 26 -80 88q0 41 41 68q40 27 98 27q123 0 199 -94l235 67q-53 103 -168 161q-116 59 -263 59q-168 0 -287 -87t-119 -207q0 -188 244 -264l250 -73q119 -35 119 -107q0 -45 -46 -75q-47 -30 -114 -30q-179 0 -258 145z" />
    <glyph glyph-name="Scedilla" unicode="&#x15e;" horiz-adv-x="1374" 
d="M51 406l324 93q43 -106 139 -172t231 -66q101 0 162 40q62 41 62 96q0 89 -154 138l-369 114q-149 46 -240 146q-90 98 -88 234q-2 179 150 303q152 125 381 125q228 0 401 -109q175 -110 233 -267l-313 -92q-43 76 -129 124q-85 48 -189 48q-86 0 -138 -33t-52 -84
q0 -74 96 -102l361 -115q188 -59 290 -147t102 -255q0 -174 -130 -298t-348 -151l-29 -86q58 -10 99 -57q40 -46 40 -103q0 -88 -67 -139q-68 -51 -180 -51q-130 0 -221 72l35 121q56 -39 133 -38q78 1 78 54q0 45 -57 62t-110 0l53 168q-209 27 -353 147q-145 121 -203 280
zM90 380l-4 -5q70 -162 219 -264q148 -101 339 -118l-53 -160q64 8 111 -19q48 -27 48 -76q0 -61 -73 -79t-150 20l-20 -66q82 -55 189 -55q103 0 161 43q59 44 59 120q0 55 -45 96q-45 40 -106 39l47 139q210 19 340 137q129 117 129 285q0 138 -86 226q-85 86 -287 151
l-360 115q-117 33 -117 129q0 63 62 105q61 42 158 42q101 0 190 -46t139 -123l262 78q-68 148 -232 239q-166 92 -361 92q-216 0 -359 -115q-144 -115 -142 -285q-2 -120 79 -212q82 -94 229 -140l368 -115q174 -52 174 -164q0 -72 -72 -117t-181 -45q-130 0 -231 61
q-102 61 -156 171z" />
    <glyph glyph-name="scedilla" unicode="&#x15f;" horiz-adv-x="1073" 
d="M25 295l290 87q27 -68 90 -110t152 -42q58 0 95 23q36 23 36 54q0 51 -98 80l-250 74q-264 79 -264 291q0 137 128 230t306 93q168 0 295 -72t178 -195l-287 -82q-71 98 -189 98q-45 0 -78 -18t-33 -46q0 -41 60 -62l241 -67q69 -19 120 -41q50 -22 96 -55q48 -35 72 -88
q24 -54 24 -126q0 -127 -93 -219t-250 -120l-29 -91q59 -11 99 -57t40 -103q0 -88 -67 -139t-180 -51q-129 0 -221 72l35 121q56 -39 133 -38q78 2 78 54q0 46 -57 62q-57 17 -110 0l53 168q-155 25 -268 114q-112 88 -147 201zM59 277l-2 -4q45 -109 159 -184
q113 -74 257 -88l-49 -158q57 6 107 -21t50 -76q0 -61 -73 -79t-150 20l-20 -66q82 -55 189 -55q103 0 161 43q59 44 59 120q0 55 -44 96q-43 41 -105 39l45 141q155 22 247 108q91 85 91 205q0 125 -72 182q-73 58 -220 101l-241 68q-80 26 -80 88q0 41 41 68q40 27 98 27
q123 0 199 -94l235 67q-53 103 -168 161q-116 59 -263 59q-168 0 -287 -87t-119 -207q0 -188 244 -264l250 -73q119 -35 119 -107q0 -45 -46 -75q-47 -30 -114 -30q-179 0 -258 145z" />
    <glyph glyph-name="Scaron" unicode="&#x160;" horiz-adv-x="1374" 
d="M305 1884h287l90 -143l90 143h287l-223 -307h-308zM360 1855l183 -249h278l183 249h-216l-96 -151h-20l-97 151h-215zM51 406l325 95q43 -106 139 -172t231 -66q101 0 162 40q62 41 62 96q0 89 -154 138l-369 114q-149 46 -240 146q-90 98 -88 234q-1 179 150 303
q152 125 381 125q228 0 401 -109q175 -110 233 -267l-313 -92q-43 76 -129 124t-189 48q-85 0 -138 -33q-52 -33 -52 -84q0 -74 96 -102l361 -115q188 -59 290 -147t102 -255q0 -195 -163 -325t-426 -130q-253 0 -429 126q-175 126 -243 308zM91 382l-2 -1q76 -178 247 -283
t388 -105q246 0 402 120t156 306q0 138 -86 226q-85 86 -287 151l-360 115q-117 33 -117 129q0 63 62 105t158 42q101 0 190 -46t139 -123l262 78q-68 148 -232 239q-166 92 -361 92q-216 0 -359 -115q-144 -115 -142 -285q-2 -120 79 -212q82 -94 229 -140l368 -115
q174 -53 174 -164q0 -72 -72 -117t-181 -45q-130 0 -231 61q-102 61 -156 171z" />
    <glyph glyph-name="scaron" unicode="&#x161;" horiz-adv-x="1073" 
d="M145 1495h287l90 -143l90 143h287l-223 -307h-307zM201 1466l182 -249h279l182 249h-215l-97 -151h-20l-96 151h-215zM25 295l294 83q27 -68 90 -110t152 -42q58 0 95 23q36 23 36 54q0 51 -98 80l-250 74q-264 79 -264 291q0 137 128 230t306 93q168 0 295 -72t178 -195
l-287 -82q-71 98 -189 98q-45 0 -78 -18t-33 -46q0 -41 60 -62l241 -67q69 -19 120 -41q50 -22 96 -55q48 -35 72 -88q24 -54 24 -126q0 -152 -130 -249q-131 -98 -336 -98q-193 0 -337 96q-145 97 -185 229zM63 273l-1 -1q49 -121 186 -199q136 -78 300 -78q194 0 315 90
q122 90 122 229q0 125 -72 182q-73 58 -220 101l-241 68q-80 26 -80 88q0 41 41 68q40 27 98 27q123 0 199 -94l235 67q-53 103 -168 161q-116 59 -263 59q-168 0 -287 -87t-119 -207q0 -188 244 -264l250 -73q119 -35 119 -107q0 -45 -46 -75q-47 -30 -114 -30
q-179 0 -258 145z" />
    <glyph glyph-name="uni0162" unicode="&#x162;" horiz-adv-x="1314" 
d="M31 1126l-2 308h1253v-308h-457v-1126l-34 -109q59 -11 99 -57t40 -103q0 -88 -67 -139t-180 -51q-129 0 -221 72l35 121q56 -39 133 -38q78 2 78 54q0 46 -57 62q-57 17 -110 0l59 188h-113v1126h-456zM57 1155l454 -2v-1126h123l-57 -183q61 6 108 -21t47 -76
q0 -61 -72 -79q-71 -18 -148 20l-20 -66q82 -55 189 -55q103 0 161 43q59 44 59 120q0 55 -44 96q-43 40 -105 39l45 139v1151h456v250h-1196v-250z" />
    <glyph glyph-name="uni0163" unicode="&#x163;" horiz-adv-x="847" 
d="M20 758v286h162v328h328v-328h281v-286h-281v-381q0 -109 108 -109q58 0 111 27l78 -260q-83 -33 -162 -45l-31 -99q58 -11 99 -57q41 -47 41 -103q0 -88 -68 -139t-180 -51q-130 0 -221 72l34 121q56 -39 133 -38q78 2 78 54q0 46 -57 62t-111 0l60 188
q-240 66 -240 377v381h-162zM49 786l157 -3v-409q0 -309 248 -357l-56 -174q57 6 107 -21t50 -76q0 -61 -72 -79q-71 -18 -148 20l-21 -66q82 -55 189 -55q103 0 161 43q59 44 59 120q0 55 -44 96q-43 41 -105 39l48 151q82 11 150 36l-61 205q-38 -16 -93 -16
q-137 0 -137 137v409h281v230h-281v327h-270v-327h-162v-230z" />
    <glyph glyph-name="Tcaron" unicode="&#x164;" horiz-adv-x="1314" 
d="M281 1884h286l90 -143l91 143h286l-223 -307h-307zM336 1855l182 -249h279l182 249h-215l-96 -151h-21l-96 151h-215zM31 1126v308h1253v-308h-457v-1126h-340v1126h-456zM59 1155h457v-1126h283v1126h456v250h-1196v-250z" />
    <glyph glyph-name="tcaron" unicode="&#x165;" horiz-adv-x="907" 
d="M614 1122l21 373h293l-66 -373h-248zM645 1151h193l55 315h-231zM20 758l1 285h162v328h328v-328h281v-286h-281v-381q0 -109 108 -109q59 0 111 27l78 -260q-129 -51 -256 -51q-184 0 -277 105t-93 289v381h-162zM50 785h161v-409q0 -365 340 -365q107 0 222 39l-61 205
q-38 -16 -93 -16q-137 0 -137 137v409h281v230h-281v327h-270v-327h-162v-230z" />
    <glyph glyph-name="Tbar" unicode="&#x166;" horiz-adv-x="1314" 
d="M31 1126v308h1253v-308h-457v-315h277v-266h-277v-545h-340v545h-284v266h284v315h-456zM59 1155h457v-373h-285v-209h285v-544h283v544h276v209h-276v373h456v250h-1196v-250z" />
    <glyph glyph-name="tbar" unicode="&#x167;" horiz-adv-x="854" 
d="M20 819l2 224h162v328h328v-328h287v-225h-287v-135h244v-205h-244v-102q0 -109 119 -109q59 0 105 27l78 -260q-129 -51 -262 -51q-184 0 -277 105t-93 289v102h-147v205h147v135h-162zM51 847l162 -1v-193h-148v-147h148v-131q0 -365 340 -365q113 0 227 39l-61 203
q-39 -14 -88 -14q-73 0 -110 36q-38 36 -38 102v131h244v147h-244v193h287v168h-287v327h-270v-327h-162v-168z" />
    <glyph glyph-name="Umacron" unicode="&#x16a;" horiz-adv-x="1499" 
d="M442 1593v226h615v-226h-615zM471 1622h557v168h-557v-168zM113 596l-2 838h344v-832q0 -142 75 -231q75 -88 219 -88t219 88q75 89 75 231v832h344v-838q0 -283 -168 -454t-469 -171q-304 0 -470 171q-167 172 -167 454zM139 596l-1 1q0 -279 162 -438t447 -159
q284 0 446 159t162 437v809h-287v-803q0 -161 -86 -255q-86 -93 -235 -93t-235 93q-86 94 -86 255v803h-287v-809z" />
    <glyph glyph-name="umacron" unicode="&#x16b;" horiz-adv-x="1280" 
d="M332 1204v226h614v-226h-614zM360 1233h558v168h-558v-168zM113 436v608h327v-542q0 -227 187 -228q94 0 148 70t54 192v509h328v-1044h-328v109q-119 -136 -309 -138q-203 0 -305 125t-102 339zM141 436l1 1q0 -211 99 -324q99 -112 281 -112q209 0 338 190v-161h270
v987h-270v-481q0 -133 -63 -211t-169 -78q-102 0 -159 66t-57 189v514h-271v-580z" />
    <glyph glyph-name="Uring" unicode="&#x16e;" horiz-adv-x="1499" 
d="M483 1757l-2 -2q0 111 76 184q77 74 191 74q115 0 191 -73t76 -184t-76 -184q-77 -74 -190 -74t-190 74q-76 73 -76 185zM510 1754l-2 -1q0 -97 68 -163q67 -66 170 -66q102 0 170 66t68 164t-67 164t-170 66t-170 -66t-67 -164zM629 1753q0 51 33 83q34 32 84 32t84 -32
q33 -32 33 -83t-33 -83q-34 -32 -84 -32t-84 32q-33 32 -33 83zM658 1753v-1q0 -39 24 -63t63 -24t64 24t25 63q0 38 -25 62t-64 24t-63 -24t-24 -61zM109 591l-2 838h344v-832q0 -143 75 -231t219 -88t219 88t75 231v832h344v-838q0 -283 -168 -454t-469 -171
q-304 0 -470 171q-167 172 -167 454zM135 591l-1 1q0 -279 162 -438t447 -159q284 0 446 159t162 437v809h-287v-803q0 -161 -86 -255q-85 -93 -235 -93q-149 0 -235 93q-86 94 -86 255v803h-287v-809z" />
    <glyph glyph-name="uring" unicode="&#x16f;" horiz-adv-x="1280" 
d="M373 1368l-2 -4q0 112 75 185q76 74 191 74q117 0 191 -73q75 -74 75 -184t-75 -184q-74 -73 -190 -73q-114 0 -190 74q-75 73 -75 185zM399 1364v-2q0 -97 68 -163t170 -66q103 0 170 66q68 66 68 164t-68 164q-67 66 -170 66q-102 0 -170 -66t-68 -163zM520 1362
q0 52 33 83q34 32 84 32t84 -32q33 -31 33 -83t-33 -83q-34 -32 -84 -32t-84 32q-33 31 -33 83zM549 1362v-1q0 -39 24 -63t63 -24t63 24t24 63q0 38 -24 62t-63 24t-63 -24t-24 -61zM111 429v608h327v-542q0 -227 187 -228q94 0 148 70q54 71 54 192v509h328v-1044h-328
v109q-119 -137 -309 -138q-203 0 -305 125q-102 124 -102 339zM139 429l1 1q0 -212 99 -324t281 -112q209 0 338 190v-161h270v987h-270v-481q0 -133 -63 -211t-169 -78q-102 0 -159 66t-57 189v514h-271v-580z" />
    <glyph glyph-name="Uhungarumlaut" unicode="&#x170;" horiz-adv-x="1499" 
d="M401 1593l168 291h293l-178 -291h-283zM791 1593l184 291h293l-195 -291h-282zM451 1622h217l143 233h-225zM842 1622h217l153 233h-221zM113 596l-2 838h344v-832q0 -142 75 -231q75 -88 219 -88t219 88q75 89 75 231v832h344v-838q0 -283 -168 -454t-469 -171
q-304 0 -470 171q-167 172 -167 454zM139 596l-1 1q0 -279 162 -438t447 -159q284 0 446 159t162 437v809h-287v-803q0 -161 -86 -255q-86 -93 -235 -93t-235 93q-86 94 -86 255v803h-287v-809z" />
    <glyph glyph-name="uhungarumlaut" unicode="&#x171;" horiz-adv-x="1280" 
d="M291 1204l168 291h293l-179 -291h-282zM680 1204l184 291h293l-194 -291h-283zM340 1233h217l143 233h-225zM731 1233h217l154 233h-221zM113 436v608h327v-542q0 -227 187 -228q94 0 148 70t54 192v509h328v-1044h-328v109q-119 -136 -309 -138q-203 0 -305 125
t-102 339zM141 436l1 1q0 -211 99 -324q99 -112 281 -112q209 0 338 190v-161h270v987h-270v-481q0 -133 -63 -211t-169 -78q-102 0 -159 66t-57 189v514h-271v-580z" />
    <glyph glyph-name="Uogonek" unicode="&#x172;" horiz-adv-x="1499" 
d="M113 596l-1 837h344v-832q0 -143 75 -231t219 -88t219 88t75 231v832h344v-838q0 -342 -233 -510q-82 -62 -135 -137q-52 -73 -52 -120q0 -57 57 -57q72 0 119 59l53 -168q-31 -40 -96 -70t-142 -30q-97 0 -163 57t-66 150q0 103 98 206q-44 -4 -78 -4q-304 0 -470 171
q-167 172 -167 454zM140 595l-4 1q0 -279 162 -438t447 -159q49 0 144 12l4 -12q-139 -115 -139 -231q0 -78 56 -129t144 -51q133 0 205 78l-35 111q-46 -37 -104 -37q-40 0 -63 23q-22 22 -22 63q0 55 56 135q55 79 144 147q221 162 221 487v809h-287v-803q0 -161 -86 -255
q-85 -93 -235 -93t-235 93q-86 94 -86 255v803h-287v-809z" />
    <glyph glyph-name="uogonek" unicode="&#x173;" horiz-adv-x="1280" 
d="M113 436v609h327v-542q0 -227 187 -228q94 0 148 70q54 71 54 192v509h328v-1044q-61 -45 -102 -102q-41 -58 -41 -91q0 -57 57 -57q73 0 119 60l53 -168q-32 -41 -96 -71q-65 -30 -141 -30q-98 0 -164 57t-66 149q0 133 150 252h-97v109q-119 -136 -309 -138
q-203 0 -305 125t-102 339zM141 437l1 2q0 -211 99 -324q99 -112 281 -112q209 0 338 188v-159h127v-21q-180 -127 -180 -261q0 -78 57 -128q58 -50 145 -50q133 0 204 78l-32 110q-50 -37 -107 -37q-38 0 -63 23q-24 22 -24 63q0 40 41 99q40 58 102 108v1002h-270v-481
q0 -133 -63 -211t-169 -78q-102 0 -159 66t-57 189v514h-271v-580z" />
    <glyph glyph-name="Wcircumflex" unicode="&#x174;" horiz-adv-x="2066" 
d="M1034 1720l-90 -143h-287l224 307h307l223 -307h-287zM713 1606h215l96 151h20l97 -151h215l-182 249h-279zM1708 1434h358l-428 -1434h-368l-236 817l-237 -817h-369l-428 1434h358l260 -922l263 922h305l262 -922zM1618 29l410 1376h-297l-281 -1004l-287 1004h-260
l-287 -1004l-280 1004h-297l410 -1376h325l260 891l258 -891h326z" />
    <glyph glyph-name="wcircumflex" unicode="&#x175;" horiz-adv-x="1705" 
d="M477 1188l223 307h308l223 -307h-287l-90 143l-90 -143h-287zM532 1217h216l96 151h20l97 -151h215l-183 249h-278zM0 1044h338l190 -626l189 626h272l191 -626l188 626h338l-360 -1044h-304l-188 586l-190 -586h-304zM41 1016l340 -987h262l211 649l209 -649h262
l340 987h-276l-201 -670h-17l-202 670h-232l-200 -670h-17l-203 670h-276z" />
    <glyph glyph-name="Ycircumflex" unicode="&#x176;" horiz-adv-x="1415" 
d="M332 1577l223 307h307l223 -307h-286l-90 143l-91 -143h-286zM387 1606h215l96 151h21l96 -151h215l-182 249h-279zM0 1434h383l326 -586l325 586h381l-534 -918v-516h-344v516zM49 1405l516 -881v-495h287v495l514 881h-315l-342 -617l-342 617h-318z" />
    <glyph glyph-name="ycircumflex" unicode="&#x177;" horiz-adv-x="1236" 
d="M250 1188l223 307h307l224 -307h-287l-90 143l-90 -143h-287zM305 1217h215l96 151h21l96 -151h215l-182 249h-279zM0 1044h358l273 -636l256 636h350l-621 -1474h-333l186 455zM45 1016l455 -991l-174 -426h272l596 1417h-289l-274 -682l-291 682h-295z" />
    <glyph glyph-name="Ydieresis" unicode="&#x178;" horiz-adv-x="1415" 
d="M346 1695v-1q0 66 46 111q47 45 112 45q67 0 114 -46q48 -47 48 -109q0 -65 -48 -112q-47 -46 -114 -46q-66 0 -112 46t-46 112zM752 1694l-1 -1q0 66 46 111q47 45 112 45q67 0 113 -46q47 -47 47 -109q0 -65 -47 -112q-46 -46 -112 -46t-112 46t-46 112zM374 1693v-1
q0 -53 38 -91q37 -37 90 -37q55 0 93 38t38 92q0 52 -39 89q-40 38 -92 38q-53 0 -90 -37q-38 -38 -38 -91zM779 1692l2 -1q0 -53 38 -91q37 -37 90 -37q55 0 93 38t38 92q0 51 -39 89q-40 38 -93 38q-54 0 -91 -37q-38 -38 -38 -91zM1 1429h383l326 -586l325 586h381
l-534 -918v-516h-344v516zM50 1400l516 -881v-495h287v495l514 881h-315l-342 -617l-342 617h-318z" />
    <glyph glyph-name="Zacute" unicode="&#x179;" horiz-adv-x="1306" 
d="M487 1593l154 291h356l-233 -291h-277zM535 1622h215l188 233h-281zM61 0v227l697 906h-686v301h1153v-232l-690 -901h710v-301h-1184zM90 29h1127v243h-742l721 940v193h-1096v-244h717l-727 -944v-188z" />
    <glyph glyph-name="zacute" unicode="&#x17a;" horiz-adv-x="1099" 
d="M385 1204l154 291h356l-233 -291h-277zM432 1233h215l189 233h-281zM78 0v205l497 571h-485v268h920v-204l-500 -572h518v-268h-950zM106 29h893v211h-553l535 610v166h-862v-211h520l-533 -610v-166z" />
    <glyph glyph-name="Zdotaccent" unicode="&#x17b;" horiz-adv-x="1306" 
d="M473 1726h-1q0 72 53 123t126 51t126 -51q52 -51 52 -123q0 -74 -52 -125q-53 -51 -126 -51t-126 51q-52 51 -52 125zM501 1726l-2 -1q0 -62 43 -105t107 -43t107 43t43 105q0 58 -44 102t-105 44q-62 0 -105 -43q-44 -44 -44 -102zM58 -1v227l697 906h-686v301h1153
v-232l-690 -901h710v-301h-1184zM87 28h1127v243h-742l721 940v193h-1096v-244h717l-727 -944v-188z" />
    <glyph glyph-name="zdotaccent" unicode="&#x17c;" horiz-adv-x="1099" 
d="M371 1337q0 72 52 123q53 51 126 51t126 -51q52 -51 52 -123q0 -74 -52 -125q-53 -51 -126 -51t-126 51q-52 51 -52 125zM399 1337l-2 -1q0 -62 43 -105t107 -43t107 43t43 105q0 58 -44 102t-105 44q-62 0 -105 -43q-44 -44 -44 -102zM76 -1v205l497 571h-485v268h920
v-204l-500 -572h518v-268h-950zM104 28h893v211h-553l535 610v166h-862v-211h520l-533 -610v-166z" />
    <glyph glyph-name="Zcaron" unicode="&#x17d;" horiz-adv-x="1306" 
d="M274 1884h287l90 -143l90 143h287l-223 -307h-307zM330 1855l182 -249h279l182 249h-215l-96 -151h-21l-96 151h-215zM61 0v227l697 906h-686v301h1153v-232l-690 -901h710v-301h-1184zM90 29h1127v243h-742l721 940v193h-1096v-244h717l-727 -944v-188z" />
    <glyph glyph-name="zcaron" unicode="&#x17e;" horiz-adv-x="1099" 
d="M172 1495h287l90 -143l90 143h287l-224 -307h-307zM227 1466l183 -249h278l182 249h-215l-96 -151h-20l-97 151h-215zM78 0v205l497 571h-485v268h920v-204l-500 -572h518v-268h-950zM106 29h893v211h-553l535 610v166h-862v-211h520l-533 -610v-166z" />
    <glyph glyph-name="florin" unicode="&#x192;" horiz-adv-x="1116" 
d="M-92 -217l115 229q51 -57 127 -57q119 0 137 156l69 551h-221v266h254l21 168q27 206 134 318q106 111 287 111q170 0 264 -88l-121 -244q-51 57 -129 57q-115 0 -133 -155l-21 -168h258v-266h-293l-69 -551q-27 -206 -136 -316q-109 -111 -285 -111q-164 0 -258 100z
M-57 -211l3 -3q84 -78 223 -78q164 0 266 105t126 300l74 575h289v209h-263l25 201q22 180 162 180q70 0 121 -39l94 191q-85 66 -230 65q-168 0 -268 -103q-101 -104 -126 -301l-24 -193h-250v-209h225l-74 -584q-10 -85 -54 -132t-112 -47t-119 39z" />
    <glyph glyph-name="uni0218" unicode="&#x218;" horiz-adv-x="1374" 
d="M51 406l325 95q43 -106 139 -172t231 -66q101 0 162 40q62 41 62 96q0 89 -154 138l-369 114q-149 46 -240 146q-90 98 -88 234q-1 179 150 303q152 125 381 125q228 0 401 -109q175 -110 233 -267l-313 -92q-43 76 -129 124t-189 48q-85 0 -138 -33q-52 -33 -52 -84
q0 -74 96 -102l361 -115q188 -59 290 -147t102 -255q0 -195 -163 -325t-426 -130q-253 0 -429 126q-175 126 -243 308zM91 382l-2 -1q76 -178 247 -283t388 -105q246 0 402 120t156 306q0 138 -86 226q-85 86 -287 151l-360 115q-117 33 -117 129q0 63 62 105t158 42
q101 0 190 -46t139 -123l262 78q-68 148 -232 239q-166 92 -361 92q-216 0 -359 -115q-144 -115 -142 -285q-2 -120 79 -212q82 -94 229 -140l368 -115q174 -53 174 -164q0 -72 -72 -117t-181 -45q-130 0 -231 61q-102 61 -156 171zM542 -559l26 430h293l-67 -430h-252z
M572 -530h197l59 372h-233z" />
    <glyph glyph-name="uni0219" unicode="&#x219;" horiz-adv-x="1073" 
d="M25 295l294 83q27 -68 90 -110t152 -42q58 0 95 23q36 23 36 54q0 51 -98 80l-250 74q-264 79 -264 291q0 137 128 230t306 93q168 0 295 -72t178 -195l-287 -82q-71 98 -189 98q-45 0 -78 -18t-33 -46q0 -41 60 -62l241 -67q69 -19 120 -41q50 -22 96 -55q48 -35 72 -88
q24 -54 24 -126q0 -152 -130 -249q-131 -98 -336 -98q-193 0 -337 96q-145 97 -185 229zM63 273l-1 -1q49 -121 186 -199q136 -78 300 -78q194 0 315 90q122 90 122 229q0 125 -72 182q-73 58 -220 101l-241 68q-80 26 -80 88q0 41 41 68q40 27 98 27q123 0 199 -94l235 67
q-53 103 -168 161q-116 59 -263 59q-168 0 -287 -87t-119 -207q0 -188 244 -264l250 -73q119 -35 119 -107q0 -45 -46 -75q-47 -30 -114 -30q-179 0 -258 145zM376 -557l26 430h293l-67 -430h-252zM407 -528h196l60 372h-234z" />
    <glyph glyph-name="uni021A" unicode="&#x21a;" horiz-adv-x="1314" 
d="M31 1126v308h1253v-308h-457v-1126h-340v1126h-456zM59 1155h457v-1126h283v1126h456v250h-1196v-250zM489 -557l27 434h293l-68 -434h-252zM520 -528h197l59 376h-233z" />
    <glyph glyph-name="uni021B" unicode="&#x21b;" horiz-adv-x="847" 
d="M20 758l1 285h162v328h328v-328h281v-286h-281v-381q0 -109 108 -109q59 0 111 27l78 -260q-129 -51 -256 -51q-184 0 -277 105t-93 289v381h-162zM50 785h161v-409q0 -365 340 -365q107 0 222 39l-61 205q-38 -16 -93 -16q-137 0 -137 137v409h281v230h-281v327h-270
v-327h-162v-230zM334 -558l26 434h293l-67 -434h-252zM365 -529h196l60 376h-234z" />
    <glyph glyph-name="circumflex" unicode="&#x2c6;" horiz-adv-x="753" 
d="M0 1188l223 307h307l224 -307h-287l-90 143l-90 -143h-287zM55 1217h215l97 151h20l96 -151h215l-182 249h-278z" />
    <glyph glyph-name="caron" unicode="&#x2c7;" horiz-adv-x="753" 
d="M0 1495h287l90 -143l90 143h287l-224 -307h-307zM55 1466l183 -249h278l182 249h-215l-96 -151h-20l-97 151h-215z" />
    <glyph glyph-name="breve" unicode="&#x2d8;" horiz-adv-x="716" 
d="M0 1477l248 -1q0 -121 111 -121t111 121h248q0 -136 -91 -226t-268 -90q-176 0 -268 90q-91 90 -91 227zM31 1447q10 -121 97 -190t231 -69t231 69t97 190h-190q-16 -121 -138 -121t-138 121h-190z" />
    <glyph glyph-name="dotaccent" unicode="&#x2d9;" horiz-adv-x="356" 
d="M0 1341q0 72 52 123t126 51t126 -51t52 -123q0 -74 -52 -125t-126 -51t-126 51t-52 125zM29 1341l-2 -1q0 -62 43 -105t107 -43t107 43t43 105q0 58 -44 102t-105 44q-62 0 -105 -43q-44 -44 -44 -102z" />
    <glyph glyph-name="ring" unicode="&#x2da;" horiz-adv-x="532" 
d="M0 1368l-1 -4q0 112 76 185q77 74 191 74q115 0 189 -73q75 -74 75 -184t-75 -184q-74 -73 -189 -73q-113 0 -190 74q-76 73 -76 185zM28 1364l-2 -2q0 -97 68 -163q67 -66 170 -66q102 0 170 66t68 164t-67 164q-68 66 -170 66q-103 0 -170 -66t-67 -163zM147 1362
q0 52 33 83q34 32 84 32t84 -32q33 -31 33 -83t-33 -83q-34 -32 -84 -32t-84 32q-33 31 -33 83zM175 1362v-1q0 -39 24 -63t63 -24t63 24t24 63q0 38 -24 62t-63 24t-63 -24t-24 -61z" />
    <glyph glyph-name="ogonek" unicode="&#x2db;" horiz-adv-x="466" 
d="M0 -252l-1 1q0 133 150 252h231q-143 -116 -143 -193q0 -57 57 -57q62 0 120 60l53 -168q-32 -41 -96 -71q-65 -30 -142 -30q-97 0 -163 57t-66 149zM28 -251h-1q0 -78 56 -128t144 -50q133 0 205 78l-35 110q-50 -37 -104 -37q-40 0 -63 23q-22 22 -22 63q0 72 96 164
h-145q-131 -107 -131 -223z" />
    <glyph glyph-name="tilde" unicode="&#x2dc;" horiz-adv-x="716" 
d="M0 1176v1q0 319 213 319q67 0 174 -61q62 -35 81 -35q43 0 43 88h207q0 -320 -213 -321q-65 0 -174 62q-62 35 -81 35q-43 0 -43 -88h-207zM29 1205h151q6 88 70 88q27 0 102 -45q91 -51 152 -51q176 0 183 262h-151q-6 -88 -70 -88q-27 0 -102 45q-92 51 -152 51
q-176 0 -183 -262z" />
    <glyph glyph-name="hungarumlaut" unicode="&#x2dd;" horiz-adv-x="866" 
d="M0 1204l168 291h293l-178 -291h-283zM389 1204l184 291h293l-194 -291h-283zM49 1233h217l144 233h-226zM440 1233h217l154 233h-221z" />
    <glyph glyph-name="gravecomb" unicode="&#x300;" 
d="M0 1204h-276l-234 291h356zM-47 1233l-123 233h-281l189 -233h215z" />
    <glyph glyph-name="acutecomb" unicode="&#x301;" 
d="M-510 1204l154 291h356l-233 -291h-277zM-463 1233h215l189 233h-281z" />
    <glyph glyph-name="uni0302" unicode="&#x302;" 
d="M-754 1188l224 307h307l223 -307h-287l-90 143l-90 -143h-287zM-698 1217h215l96 151h20l97 -151h215l-183 249h-278z" />
    <glyph glyph-name="tildecomb" unicode="&#x303;" 
d="M-717 1176v1q0 319 213 319q67 0 174 -61q62 -35 81 -35q43 0 43 88h207q0 -320 -213 -321q-65 0 -174 62q-62 35 -81 35q-43 0 -43 -88h-207zM-688 1205h151q6 88 70 88q27 0 102 -45q91 -51 152 -51q176 0 183 262h-151q-6 -88 -70 -88q-27 0 -102 45q-91 51 -152 51
q-176 0 -183 -262z" />
    <glyph glyph-name="uni0304" unicode="&#x304;" 
d="M-614 1204v226h614v-226h-614zM-586 1233h557v168h-557v-168z" />
    <glyph glyph-name="uni0306" unicode="&#x306;" 
d="M-717 1477l248 -1q0 -121 111 -121t111 121h248q0 -136 -91 -226t-268 -90q-176 0 -268 90q-91 90 -91 227zM-686 1447q10 -121 97 -190t231 -69t231 69t97 190h-190q-16 -121 -138 -121t-138 121h-190z" />
    <glyph glyph-name="uni0307" unicode="&#x307;" 
d="M-356 1337q0 72 52 123t126 51t126 -51t52 -123q0 -74 -52 -125t-126 -51t-126 51t-52 125zM-328 1337l-2 -1q0 -62 43 -105t107 -43t107 43t43 105q0 58 -44 102t-105 44q-62 0 -105 -43q-44 -44 -44 -102z" />
    <glyph glyph-name="uni0308" unicode="&#x308;" 
d="M-723 1306l-1 -1q0 66 46 111q47 45 112 45q67 0 113 -46q47 -47 47 -109q0 -65 -47 -112q-46 -46 -112 -46t-112 46t-46 112zM-318 1305l-1 -1q0 66 46 111t112 45q67 0 113 -46q47 -47 47 -109q0 -65 -47 -112q-46 -46 -112 -46t-112 46t-46 112zM-696 1304v-1
q0 -53 38 -91q37 -37 90 -37q55 0 93 38t38 92q0 51 -39 89q-40 38 -92 38q-53 0 -90 -37q-38 -38 -38 -91zM-291 1303l2 -1q0 -53 38 -91q37 -37 90 -37q55 0 93 38t38 92q0 52 -39 89q-40 38 -93 38q-54 0 -91 -37q-38 -38 -38 -91z" />
    <glyph glyph-name="uni030A" unicode="&#x30a;" 
d="M-532 1368l-1 -4q0 112 75 185q76 74 189 74q115 0 191 -73t76 -184t-76 -184t-190 -73q-113 0 -189 74q-75 73 -75 185zM-505 1364l-2 -2q0 -97 68 -163q67 -66 170 -66q102 0 170 66t68 164t-67 164q-68 66 -170 66t-170 -66q-67 -66 -67 -163zM-386 1362q0 52 33 83
q34 32 84 32t84 -32q33 -31 33 -83t-33 -83q-34 -32 -84 -32t-84 32q-33 31 -33 83zM-357 1362v-1q0 -39 24 -63t63 -24t63 24t24 63q0 38 -24 62t-63 24t-63 -24t-24 -61z" />
    <glyph glyph-name="uni030B" unicode="&#x30b;" 
d="M-866 1204l168 291h292l-178 -291h-282zM-477 1204l184 291h293l-195 -291h-282zM-817 1233h217l143 233h-225zM-426 1233h217l154 233h-221z" />
    <glyph glyph-name="uni030C" unicode="&#x30c;" 
d="M-754 1495h287l90 -143l90 143h287l-223 -307h-307zM-698 1466l182 -249h278l183 249h-215l-97 -151h-20l-96 151h-215z" />
    <glyph glyph-name="uni0312" unicode="&#x312;" 
d="M0 1647l-27 -430h-292l67 430h252zM-31 1618h-196l-60 -373h234z" />
    <glyph glyph-name="uni0326" unicode="&#x326;" 
d="M-319 -553l26 430h293l-68 -430h-251zM-289 -524h197l59 372h-233z" />
    <glyph glyph-name="uni0327" unicode="&#x327;" 
d="M-469 -387l33 121q56 -39 133 -38q78 2 78 54q0 46 -57 62q-57 17 -110 0l59 188h228l-35 -109q58 -11 99 -57q40 -46 40 -103q0 -88 -67 -139q-68 -51 -180 -51q-130 0 -221 72zM-438 -375l-4 -4q82 -55 189 -55q103 0 161 43q59 44 59 120q0 55 -44 96q-43 41 -105 39
l35 106h-168l-41 -125q68 6 113 -21t45 -74q0 -61 -72 -79q-71 -18 -148 20z" />
    <glyph glyph-name="uni0328" unicode="&#x328;" 
d="M-467 -252l-1 1q0 133 150 252h231q-143 -116 -143 -193q0 -57 57 -57q61 0 120 60l53 -168q-32 -41 -96 -71q-65 -30 -142 -30q-97 0 -163 57t-66 149zM-439 -251h-1q0 -78 56 -128t144 -50q133 0 205 78l-35 110q-50 -37 -104 -37q-40 0 -63 23q-22 22 -22 63
q0 72 96 164h-145q-131 -107 -131 -223z" />
    <glyph glyph-name="uni0394" unicode="&#x394;" horiz-adv-x="1495" 
d="M0 0l524 1434h447l524 -1434h-1495zM41 29h1413l-504 1376h-405zM418 272l323 899h13l323 -899h-659zM459 301h577l-288 803z" />
    <glyph glyph-name="uni03A9" unicode="&#x3a9;" horiz-adv-x="1642" 
d="M61 0v296h215q-215 194 -215 480q0 285 218 486q217 201 543 201t543 -201t217 -486q0 -287 -215 -479h215v-297h-612v297q119 53 197 177t78 253q0 185 -117 303q-117 119 -306 119t-306 -119q-117 -118 -117 -303q0 -129 79 -253q80 -124 198 -177v-297h-615zM90 28
l559 -1v250q-121 58 -199 186q-78 127 -78 262q0 199 126 325t324 126t324 -126t126 -325q0 -133 -78 -261q-78 -127 -197 -186v-250h555v239h-262q262 202 262 507q0 277 -211 467q-212 191 -520 191q-309 0 -520 -190t-211 -468q0 -305 262 -507h-262v-239z" />
    <glyph glyph-name="uni03BC" unicode="&#x3bc;" horiz-adv-x="1374" 
d="M123 -430l-1 1473h328v-542q0 -227 186 -228q95 0 149 70q54 71 54 192v509h327v-702q0 -96 70 -96q23 0 59 12l68 -250q-90 -37 -176 -37q-207 0 -291 125q-110 -125 -289 -125q-81 0 -156 31v-432h-328zM151 -402l270 1v448q99 -47 186 -47q193 0 294 147
q71 -147 288 -147q66 0 141 27l-53 194q-17 -4 -39 -4q-98 0 -98 125v674h-271v-481q0 -133 -63 -211t-169 -78q-102 0 -159 66t-57 189v514h-270v-1417z" />
    <glyph glyph-name="pi" unicode="&#x3c0;" horiz-adv-x="1331" 
d="M31 756l-1 286h1263v-286h-188v-416q0 -94 65 -94q33 0 63 10l67 -240q-84 -37 -178 -36q-324 0 -323 360v416h-271v-756h-307v756h-190zM58 784h191v-755h250v755h327v-444q0 -172 72 -252t223 -80q78 0 144 25l-54 188q-25 -4 -41 -4q-94 0 -94 123v444h189v230h-1207
v-230z" />
    <glyph glyph-name="Wgrave" unicode="&#x1e80;" horiz-adv-x="2066" 
d="M1198 1593h-276l-234 291h356zM1028 1855h-280l188 -233h215zM1708 1434h358l-428 -1434h-368l-236 817l-237 -817h-369l-428 1434h358l260 -922l263 922h305l262 -922zM1618 29l410 1376h-297l-281 -1004l-287 1004h-260l-287 -1004l-280 1004h-297l410 -1376h325
l260 891l258 -891h326z" />
    <glyph glyph-name="wgrave" unicode="&#x1e81;" horiz-adv-x="1705" 
d="M1018 1204h-277l-233 291h356zM971 1233l-123 233h-281l189 -233h215zM0 1044h338l190 -626l189 626h272l191 -626l188 626h338l-360 -1044h-304l-188 586l-190 -586h-304zM41 1016l340 -987h262l211 649l209 -649h262l340 987h-276l-201 -670h-17l-202 670h-232
l-200 -670h-17l-203 670h-276z" />
    <glyph glyph-name="Wacute" unicode="&#x1e82;" horiz-adv-x="2066" 
d="M1380 1884l-233 -291h-277l154 291h356zM918 1622h215l188 233h-281zM1708 1434h358l-428 -1434h-368l-236 817l-237 -817h-369l-428 1434h358l260 -922l263 922h305l262 -922zM1618 29l410 1376h-297l-281 -1004l-287 1004h-260l-287 -1004l-280 1004h-297l410 -1376
h325l260 891l258 -891h326z" />
    <glyph glyph-name="wacute" unicode="&#x1e83;" horiz-adv-x="1705" 
d="M690 1204l154 291h356l-233 -291h-277zM737 1233h215l189 233h-281zM0 1044h338l190 -626l189 626h272l191 -626l188 626h338l-360 -1044h-304l-188 586l-190 -586h-304zM41 1016l340 -987h262l211 649l209 -649h262l340 987h-276l-201 -670h-17l-202 670h-232l-200 -670
h-17l-203 670h-276z" />
    <glyph glyph-name="Wdieresis" unicode="&#x1e84;" horiz-adv-x="2066" 
d="M829 1538l-1 -1q-66 0 -112 46t-46 112t46 111q47 45 112 45q67 0 113 -46q47 -47 47 -109q0 -65 -47 -112q-46 -46 -112 -46zM1233 1537v-1q-66 0 -112 46t-46 112t46 111t112 45q67 0 114 -46q48 -47 48 -109q0 -65 -48 -112q-47 -46 -114 -46zM828 1821v-1
q-54 0 -91 -37q-38 -38 -38 -91t38 -91q37 -37 90 -37q54 0 94 38q39 38 39 92q0 52 -39 89q-40 38 -93 38zM1233 1820v-1q-53 0 -90 -37q-38 -38 -38 -91t38 -91q37 -37 90 -37q55 0 93 38t38 92q0 51 -39 89q-40 38 -92 38zM1706 1430h358l-428 -1434h-368l-236 817
l-237 -817h-369l-428 1434h358l260 -922l263 922h305l262 -922zM1616 25l410 1376h-297l-281 -1004l-287 1004h-260l-287 -1004l-280 1004h-297l410 -1376h325l260 891l258 -891h326z" />
    <glyph glyph-name="wdieresis" unicode="&#x1e85;" horiz-adv-x="1705" 
d="M492 1306l-1 -1q0 66 46 111q47 45 112 45q67 0 113 -46q47 -47 47 -109q0 -65 -47 -112q-46 -46 -112 -46t-112 46t-46 112zM896 1305l-1 -1q0 66 46 111q47 45 112 45q67 0 113 -46q47 -47 47 -109q0 -65 -47 -112q-46 -46 -112 -46t-112 46t-46 112zM518 1304v-1
q0 -53 38 -91q37 -37 90 -37q55 0 93 38t38 92q0 51 -39 89q-40 38 -92 38q-53 0 -90 -37q-38 -38 -38 -91zM924 1303l-1 -1q0 -53 38 -91q37 -37 92 -37t93 38t38 92q0 52 -39 89q-40 38 -93 38q-54 0 -91 -37t-37 -91zM-3 1039h338l190 -626l189 626h272l191 -626l188 626
h338l-360 -1044h-304l-188 586l-190 -586h-304zM38 1011l340 -987h262l211 649l209 -649h262l340 987h-276l-201 -670h-17l-202 670h-232l-200 -670h-17l-203 670h-276z" />
    <glyph glyph-name="Ygrave" unicode="&#x1ef2;" horiz-adv-x="1415" 
d="M872 1593h-276l-234 291h357zM825 1622l-123 233h-280l188 -233h215zM0 1434h383l326 -586l325 586h381l-534 -918v-516h-344v516zM49 1405l516 -881v-495h287v495l514 881h-315l-342 -617l-342 617h-318z" />
    <glyph glyph-name="ygrave" unicode="&#x1ef3;" horiz-adv-x="1236" 
d="M791 1204h-277l-233 291h356zM743 1233l-122 233h-281l188 -233h215zM0 1044h358l273 -636l256 636h350l-621 -1474h-333l186 455zM45 1016l455 -991l-174 -426h272l596 1417h-289l-274 -682l-291 682h-295z" />
    <glyph glyph-name="endash" unicode="&#x2013;" horiz-adv-x="1249" 
d="M113 492v266h1024v-266h-1024zM141 520h967v209h-967v-209z" />
    <glyph glyph-name="emdash" unicode="&#x2014;" horiz-adv-x="1863" 
d="M113 492v266h1638v-266h-1638zM141 520h1581v209h-1581v-209z" />
    <glyph glyph-name="quoteleft" unicode="&#x2018;" horiz-adv-x="591" 
d="M510 1434l-90 -605h-338l174 605h254zM477 1405h-198l-158 -547h274z" />
    <glyph glyph-name="quoteright" unicode="&#x2019;" horiz-adv-x="591" 
d="M82 829l90 605h338l-174 -605h-254zM115 858h198l158 547h-274z" />
    <glyph glyph-name="quotesinglbase" unicode="&#x201a;" horiz-adv-x="591" 
d="M82 -281l90 605h338l-174 -605h-254zM115 -252h198l158 547h-274z" />
    <glyph glyph-name="quotedblleft" unicode="&#x201c;" horiz-adv-x="1021" 
d="M510 1434l-90 -605h-338l174 605h254zM940 1434l-90 -605h-338l174 605h254zM477 1405h-198l-158 -547h274zM907 1405h-198l-158 -547h274z" />
    <glyph glyph-name="quotedblright" unicode="&#x201d;" horiz-adv-x="1021" 
d="M82 829l90 605h338l-174 -605h-254zM512 829l90 605h338l-174 -605h-254zM115 858h198l158 547h-274zM545 858h198l158 547h-274z" />
    <glyph glyph-name="quotedblbase" unicode="&#x201e;" horiz-adv-x="1021" 
d="M82 -281l90 605h338l-174 -605h-254zM512 -281l90 605h338l-174 -605h-254zM115 -252h198l158 547h-274zM545 -252h198l158 547h-274z" />
    <glyph glyph-name="dagger" unicode="&#x2020;" horiz-adv-x="1044" 
d="M61 901v297h297v297h328v-297h297v-297h-297v-901h-328v901h-297zM90 930h297v-901h270v901h297v239h-297v297h-270v-297h-297v-239z" />
    <glyph glyph-name="daggerdbl" unicode="&#x2021;" horiz-adv-x="1044" 
d="M61 297v297h297v307h-297v297h297v297h328v-297h297v-297h-297v-307h297v-297h-297v-297h-328v297h-297zM90 326h297v-297h270v297h297v239h-297v365h297v239h-297v297h-270v-297h-297v-239h297v-365h-297v-239z" />
    <glyph glyph-name="bullet" unicode="&#x2022;" horiz-adv-x="737" 
d="M82 598v1q0 115 83 193q82 77 206 82q119 2 201 -78q83 -80 83 -196q0 -120 -83 -205q-82 -84 -201 -82q-121 1 -205 84t-84 201zM111 599l1 -2q0 -106 75 -181q75 -76 185 -77q106 -1 181 74t75 185q0 104 -75 176q-74 72 -181 70q-111 -2 -186 -72t-75 -173z" />
    <glyph glyph-name="ellipsis" unicode="&#x2026;" horiz-adv-x="1550" 
d="M82 176h-2q0 78 57 132t138 54q80 0 137 -54t57 -132q0 -82 -57 -138q-56 -55 -136 -55q-83 0 -138 55q-56 56 -56 138zM580 176h-1q0 78 56 132q55 54 138 54q80 0 137 -54t57 -132q0 -82 -57 -138q-56 -55 -136 -55q-83 0 -138 55q-56 56 -56 138zM1078 176
q0 78 57 132t139 54q80 0 135 -54q56 -54 56 -132q0 -82 -56 -138q-55 -55 -135 -55q-83 0 -139 55q-57 56 -57 138zM108 176h2q0 -70 48 -117q49 -47 117 -47q69 0 116 47t47 117q0 65 -48 112q-47 46 -116 46q-71 0 -118 -46q-48 -47 -48 -112zM609 176h2q0 -70 48 -117
q49 -47 117 -47q69 0 116 47t47 117q0 65 -48 112q-47 46 -116 46q-71 0 -118 -46q-48 -47 -48 -112zM1111 176h-1q0 -70 48 -117q49 -47 118 -47q70 0 117 47t47 117q0 65 -48 112q-47 46 -115 46q-71 0 -118 -46q-48 -47 -48 -112z" />
    <glyph glyph-name="perthousand" unicode="&#x2030;" horiz-adv-x="3133" 
d="M72 1030q0 176 123 297q122 121 306 121q183 0 307 -121t124 -297t-124 -297t-306 -121q-181 0 -305 121q-125 122 -125 297zM504 0l930 1434h254l-928 -1434h-256zM100 1030l-2 -2q0 -164 117 -276q116 -112 285 -112t285 113t116 276q0 164 -115 276q-116 113 -285 113
q-170 0 -285 -112q-116 -113 -116 -276zM555 27h186l891 1376h-184zM287 1028q0 90 60 150t152 60t152 -60t60 -150t-61 -150q-62 -60 -151 -60t-151 60q-61 60 -61 150zM315 1028h-1q0 -76 53 -129t132 -53t132 53q52 52 52 129q0 78 -52 130t-132 52t-132 -52t-52 -130z
M1259 399q0 177 123 297t306 120q182 0 307 -120q124 -120 124 -297t-124 -297q-125 -120 -306 -120t-305 120q-125 120 -125 297zM2199 399q0 177 123 297t306 120q182 0 307 -120q124 -120 124 -297t-124 -297q-125 -120 -306 -120t-305 120q-125 120 -125 297zM1287 399
h-2q0 -163 117 -276q118 -113 285 -113q169 0 285 113t116 276q0 164 -115 276q-116 113 -285 113t-285 -113t-116 -276zM2225 399h-2q0 -163 117 -276q118 -113 285 -113q169 0 285 113t116 276q0 164 -115 276q-116 113 -285 113t-285 -113t-116 -276zM1472 399h-2
q0 90 60 150t153 60t153 -60t60 -150t-61 -150t-151 -60t-151 60t-61 150zM2410 399q0 90 60 150t152 60t152 -60t60 -150t-61 -150t-151 -60t-151 60t-61 150zM1498 398l-1 -3q0 -76 53 -129t132 -53q80 0 132 54q52 53 52 129q0 79 -52 131q-53 53 -132 53q-80 0 -132 -52
t-52 -130zM2437 395l-1 -3q0 -76 53 -129t132 -53t132 54q52 53 52 129q0 79 -52 131q-53 53 -132 53q-80 0 -132 -52t-52 -130z" />
    <glyph glyph-name="guilsinglleft" unicode="&#x2039;" horiz-adv-x="727" 
d="M614 266h-286l-215 389l215 389h286l-204 -389zM567 295l-190 360l190 361h-223l-199 -361l199 -360h223z" />
    <glyph glyph-name="guilsinglright" unicode="&#x203a;" horiz-adv-x="727" 
d="M113 266l204 389l-204 389h286l215 -389l-215 -389h-286zM160 295h223l199 360l-199 361h-223l190 -361z" />
    <glyph glyph-name="fraction" unicode="&#x2044;" horiz-adv-x="362" 
d="M-369 0l885 1434h215l-885 -1434h-215zM-317 29h147l850 1376h-148z" />
    <glyph glyph-name="uni2070" unicode="&#x2070;" horiz-adv-x="841" 
d="M41 1333l-3 1q0 200 104 315q103 114 278 114q166 0 273 -117q107 -118 107 -313q0 -202 -103 -318q-103 -117 -276 -117q-174 0 -277 117q-103 116 -103 318zM67 1333v-2q0 -187 95 -296q94 -108 257 -108q161 0 256 110q94 109 94 296q0 180 -96 291t-254 111
q-163 0 -258 -108q-94 -107 -94 -294zM261 1331v1q0 110 41 171q40 60 117 60t117 -60q40 -59 40 -171q0 -113 -40 -174t-117 -61q-79 -1 -118.5 57.5t-39.5 176.5zM290 1332q0 -207 129 -207q127 0 127 207q0 203 -127 203q-129 0 -129 -203z" />
    <glyph glyph-name="uni2074" unicode="&#x2074;" horiz-adv-x="729" 
d="M10 1063v182l262 496h252l-243 -473h108v112h229v-112h91v-205h-91v-141h-229v141h-379zM39 1092h379v-142h172v142h90v147h-90v113h-172v-113h-182l243 473h-190l-250 -473v-147z" />
    <glyph glyph-name="uni2075" unicode="&#x2075;" horiz-adv-x="716" 
d="M31 1135l212 59q37 -90 118 -90q40 0 66 23q25 22 25 57q0 37 -26 61q-25 24 -71 24q-64 0 -116 -31l-175 55l39 449h535v-205h-338l-6 -100q47 14 115 14q123 0 195 -76q72 -77 72 -195q0 -122 -85 -201q-86 -80 -220 -80q-143 0 -230 69t-110 167zM67 1114v-2
q28 -85 110 -135t194 -50q120 0 199 71q78 70 78 182q0 109 -66 175t-174 66q-68 0 -107 -12l-39 -12l10 168h336v147h-479l-35 -399l139 -45q55 28 121 27q56 0 90 -30q35 -30 35 -81q0 -46 -33 -78q-32 -31 -85 -31q-85 0 -135 84z" />
    <glyph glyph-name="uni2076" unicode="&#x2076;" horiz-adv-x="700" 
d="M20 1198v2q5 85 58 174l229 369h248l-156 -256q119 -11 200 -90t81 -201q0 -129 -94 -213t-237 -84t-238 85t-91 214zM49 1200q-4 -115 81 -193q86 -78 219 -78q130 0 216 77q85 76 85 192q0 106 -69 178t-184 82q-26 2 -47 2l154 254h-180l-222 -354q-52 -83 -53 -160z
M223 1198h-2q0 52 36 87q35 34 92 34q56 0 91 -34q36 -35 36 -87q0 -53 -34 -87t-92 -34t-92 34q-35 35 -35 87zM250 1198v-1q0 -41 27 -66q26 -25 72 -25q44 0 72 26q27 26 27 66q0 39 -27 66t-72 27t-72 -27t-27 -66z" />
    <glyph glyph-name="uni2077" unicode="&#x2077;" horiz-adv-x="638" 
d="M6 1532v209h623v-166l-273 -653h-254l254 610h-350zM35 1561h364l-254 -611h193l262 631v131h-565v-151z" />
    <glyph glyph-name="uni2078" unicode="&#x2078;" horiz-adv-x="739" 
d="M31 1159l-1 -1q0 142 127 209q-92 56 -92 166q0 96 84 162t222 66q135 0 219 -66t84 -162q0 -110 -92 -166q127 -67 127 -209q0 -112 -93 -186q-92 -73 -246 -73q-152 0 -246 74q-93 73 -93 186zM58 1158l2 -1q0 -101 86 -166q85 -64 225 -64q136 0 222 65t86 167
q0 139 -156 210q121 52 121 165q0 88 -78 145t-196 57q-121 0 -199 -57t-78 -145q0 -110 123 -166q-158 -71 -158 -210zM259 1497l-1 -2q0 44 32 71t81 27t81 -27t32 -70t-31 -70t-81 -27t-81 27q-32 27 -32 71zM287 1495l-4 -1q0 -31 23 -51q22 -19 62 -19t62 19
q23 20 23 51q0 32 -22 51q-23 20 -61 20q-39 0 -61 -19t-22 -51zM242 1181l-4 -1q0 50 36 81q37 32 90 32q55 0 90 -31q36 -32 36 -81q0 -52 -34 -83q-35 -32 -91 -32t-90 32q-33 32 -33 83zM266 1180q0 -39 25 -63t72 -24t71 24t24 63q0 35 -25 59t-70 24t-71 -24t-26 -59z
" />
    <glyph glyph-name="uni2079" unicode="&#x2079;" horiz-adv-x="700" 
d="M680 1464l-2 -1q-4 -84 -57 -174l-230 -368h-248l156 256q-119 11 -200 90t-81 199q0 129 95 213q94 84 236 84q144 0 239 -85q96 -86 92 -214zM649 1463h-1q4 115 -81 193t-219 78q-130 0 -216 -77q-85 -76 -85 -192q0 -106 69 -178q68 -71 185 -82q26 -2 47 -2
l-153 -254h180l221 355q52 82 53 159zM474 1465q0 -54 -36 -87t-91 -33t-91 33t-36 87t35 87t92 33t92 -33t35 -87zM446 1464q0 40 -27 66q-28 26 -72 26t-72 -26q-27 -26 -27 -66q0 -39 27 -66t72 -27t72 27t27 66z" />
    <glyph glyph-name="uni2080" unicode="&#x2080;" horiz-adv-x="841" 
d="M41 104h-3q0 200 104 316q103 115 278 115q166 0 273 -117q107 -118 107 -314q0 -202 -103 -318q-103 -117 -276 -117q-174 0 -277 117q-103 116 -103 318zM67 103v-2q0 -187 95 -296q94 -108 257 -108q161 0 256 110q94 109 94 296q0 180 -96 291t-254 111
q-163 0 -258 -108q-94 -107 -94 -294zM261 101v1q0 110 41 171q40 60 117 60t117 -60q40 -59 40 -171q0 -113 -40 -174t-117 -61q-79 -1 -118.5 57.5t-39.5 176.5zM290 102q0 -104 32.5 -155.5t96.5 -50.5q127 0 127 206q0 203 -127 203q-129 0 -129 -203z" />
    <glyph glyph-name="uni2081" unicode="&#x2081;" horiz-adv-x="587" 
d="M0 367l276 145h209v-819h-243v549l-183 -84zM35 352l43 -153l192 88v-566h187v762h-174z" />
    <glyph glyph-name="uni2082" unicode="&#x2082;" horiz-adv-x="731" 
d="M31 260l-2 2q12 113 101 194q88 81 219 81q149 0 238 -71q88 -70 88 -198q0 -71 -28 -123t-94 -109l-149 -133h284v-209h-655v149l319 297q76 73 76 119q0 27 -19 45t-54 18q-79 0 -105 -125zM61 283l165 -52q33 119 127 119q46 0 74 -25q29 -26 29 -66q0 -56 -84 -139
l-312 -289v-109h599v152h-330l205 184q63 56 87 102t24 108q0 113 -78 176t-218 63q-106 0 -187 -63t-101 -161z" />
    <glyph glyph-name="uni2083" unicode="&#x2083;" horiz-adv-x="743" 
d="M31 -57l212 56q11 -59 46 -93q37 -35 89 -35q46 0 71 24q26 24 26 63t-27 66t-82 27q-38 0 -75 -6l-35 127l125 135h-320v203h613v-164l-148 -145q81 -26 128 -88q48 -63 48 -155q0 -124 -91 -206q-92 -83 -228 -83q-161 0 -247 79q-87 80 -105 195zM64 -83l1 -1
q27 -107 109 -165t211 -58q125 0 207 75q83 75 83 186q0 166 -156 217l-43 12l170 172v123h-555v-145h356l-157 -172l22 -86q24 2 54 2q62 0 99 -33q38 -33 38 -88q0 -51 -35 -83t-90 -32q-117 0 -156 123z" />
    <glyph glyph-name="uni2084" unicode="&#x2084;" horiz-adv-x="729" 
d="M10 -166v182l262 496h252l-243 -473h108v113h229v-113h91v-205h-91v-141h-229v141h-379zM39 -137h379v-142h172v142h90v147h-90v113h-172v-113h-182l243 473h-190l-250 -473v-147z" />
    <glyph glyph-name="uni2085" unicode="&#x2085;" horiz-adv-x="716" 
d="M31 -94l212 57q37 -90 118 -90q40 0 66 23q25 22 25 57q0 37 -26 61t-71 24q-64 0 -116 -31l-175 55l39 449h535v-205h-338l-6 -100q47 14 115 14q123 0 195 -75t72 -194q0 -122 -85 -201q-86 -80 -220 -80q-143 0 -230 69t-110 167zM67 -117v-2q28 -85 110 -135t194 -50
q120 0 199 71q78 70 78 182q0 110 -66 176t-174 66q-69 0 -107 -13l-39 -12l10 168h336v147h-479l-35 -399l139 -45q56 29 121 29q56 0 90 -31q35 -32 35 -82q0 -47 -33 -78q-32 -31 -85 -31q-85 0 -135 84z" />
    <glyph glyph-name="uni2086" unicode="&#x2086;" horiz-adv-x="700" 
d="M20 -31v2q5 85 58 174l229 369h248l-156 -256q119 -11 200 -90q81 -80 81 -201q0 -129 -94 -213t-237 -84t-238 85t-91 214zM49 -29v1q-4 -115 81 -193q86 -78 219 -78q130 0 216 77q85 76 85 191q0 106 -69 178t-184 82q-26 2 -47 2l154 254h-180l-222 -354
q-52 -83 -53 -160zM223 -30h-2q0 52 36 87q35 34 92 34q56 0 91 -34q36 -35 36 -87q0 -53 -34 -87t-92 -34t-92 34q-35 35 -35 87zM250 -30v-1q0 -41 27 -66q26 -25 72 -25q44 0 72 26q27 26 27 66q0 39 -27 66t-72 27t-72 -27t-27 -66z" />
    <glyph glyph-name="uni2087" unicode="&#x2087;" horiz-adv-x="638" 
d="M6 303v209h623v-166l-273 -653h-254l254 610h-350zM35 332h364l-254 -611h193l262 631v131h-565v-151z" />
    <glyph glyph-name="uni2088" unicode="&#x2088;" horiz-adv-x="739" 
d="M31 -70l-1 -1q0 142 127 209q-92 56 -92 166q0 96 84 163q83 67 222 67q136 0 219 -67q84 -67 84 -163q0 -110 -92 -166q127 -67 127 -209q0 -113 -93 -186q-92 -73 -246 -73q-152 0 -246 74q-93 74 -93 186zM58 -71l2 -1q0 -101 86 -166q85 -64 225 -64q136 0 222 65
t86 167q0 140 -156 210q121 52 121 165q0 88 -78 145t-196 57q-121 0 -199 -57t-78 -145q0 -111 123 -166q-158 -71 -158 -210zM259 268l-1 -1q0 43 32 72q31 28 81 28t81 -28q32 -29 32 -72t-31 -70t-81 -27t-81 27q-32 27 -32 71zM287 267l-4 -2q0 -30 23 -50
q22 -19 62 -19q39 0 62 20t23 50q0 31 -22 50q-23 20 -61 20q-39 0 -61 -19t-22 -50zM242 -49h-4q0 49 36 81q37 32 90 32t90 -32q36 -32 36 -81q0 -52 -34 -83q-35 -32 -91 -32t-90 32q-33 31 -33 83zM266 -49q0 -39 25 -63t72 -24t71 24t24 63q0 35 -25 59t-70 24t-71 -24
t-26 -59z" />
    <glyph glyph-name="uni2089" unicode="&#x2089;" horiz-adv-x="700" 
d="M680 236l-2 -2q-4 -83 -57 -175l-230 -368h-248l156 256q-119 11 -200 90t-81 201q0 129 95 213t236 84q144 0 239 -85q96 -86 92 -214zM649 234l-1 -1q4 115 -81 193t-219 78q-130 0 -216 -77q-85 -76 -85 -191q0 -106 69 -178t185 -83q26 -2 47 -2l-153 -254h180
l221 355q52 83 53 160zM474 234q0 -54 -36 -87t-91 -33t-91 33t-36 87t35 87t92 33t92 -33t35 -87zM446 234v-1q0 41 -27 66q-28 26 -72 26q-46 0 -72 -25q-27 -26 -27 -66q0 -39 27 -66t72 -27t72 27t27 66z" />
    <glyph glyph-name="franc" unicode="&#x20a3;" horiz-adv-x="1292" 
d="M61 217v174h119v1043h1020v-310h-680v-243h617v-303h-617v-187h320v-174h-320v-217h-340v217h-119zM90 246h119v-217h283v217h319v116h-319v244h616v246h-616v301h679v252h-962v-1043h-119v-116z" />
    <glyph glyph-name="lira" unicode="&#x20a4;" horiz-adv-x="1306" 
d="M82 0l2 313h133v115h-109v174h109v109h-109v174h109v117q0 219 134 339q133 120 357 120q188 0 317 -114t147 -272l-305 -88q-34 172 -168 172q-70 0 -109 -47q-39 -46 -39 -129v-96h457v-174h-457v-109h457v-174h-457v-115h694v-315h-1163zM113 27l1105 -1v258h-695v172
h457v116h-457v166h457v117h-457v125q0 94 47 150t129 56q141 0 189 -166l252 74q-27 146 -149 242q-121 96 -282 96q-218 0 -340 -115q-123 -115 -123 -315v-146h-109v-117h109v-166h-109v-116h109v-172h-133v-258z" />
    <glyph glyph-name="Euro" unicode="&#x20ac;" horiz-adv-x="1546" 
d="M1278 397l206 -266q-201 -162 -488 -162q-262 0 -459 143q-197 142 -267 375h-231v175h201l-2 53q0 31 2 55h-201v174h231q72 232 267 374q196 143 453 143q284 0 490 -162l-207 -264q-112 106 -281 108q-232 0 -348 -197h461v-174h-516q-2 -24 -2 -53q0 -22 4 -55h514
v-175h-459q52 -90 143 -144q90 -54 204 -54q175 0 285 106zM294 516q63 -236 255 -377t448 -141q262 0 447 137l-170 219q-112 -94 -281 -94q-270 0 -393 256h477v117h-512q-6 73 -6 84q0 51 6 82h512v117h-481q124 254 396 252q161 0 277 -94l170 217q-187 139 -449 141
q-250 0 -442 -141t-256 -376h-223v-117h206q-8 -30 -8 -81l4 -84h-202v-117h225z" />
    <glyph glyph-name="uni20BF" unicode="&#x20bf;" horiz-adv-x="1517" 
d="M61 0l-2 296h168v846h-168v293h261v297h237v-297h170v297h238v-301q186 -18 297 -123t111 -263q0 -195 -170 -294q221 -110 221 -340q0 -182 -121 -291q-121 -110 -336 -120v-297h-238v297h-170v-297h-237v297h-261zM88 30l258 1v-297h180v297h228v-297h180v297
q218 1 339 102q121 100 121 278q0 226 -242 333v9q190 97 192 291q0 152 -111 251q-110 98 -297 109v299h-180v-297h-228v297h-180v-297h-260v-236h168v-903h-168v-237zM528 831v343h357q78 2 131 -48t53 -121q0 -72 -53 -123q-52 -51 -131 -51h-357zM557 863l327 -1
q66 0 111 42t45 102t-45 101t-110 39h-328v-283zM527 270v351h394q85 0 138 -49q54 -50 54 -127t-54 -126q-53 -49 -138 -49h-394zM556 300l366 1q75 0 119 43q45 44 45 102q0 63 -45 105t-120 42h-365v-293z" />
    <glyph glyph-name="uni2116" unicode="&#x2116;" horiz-adv-x="2293" 
d="M1516 1114l-1 1q0 148 103 248t258 100q153 0 254 -100q102 -101 102 -249q0 -145 -103 -247t-252 -102q-154 0 -258 101q-103 100 -103 248zM122 0v1434h276l645 -822v822h340v-1434h-276l-645 821v-821h-340zM1543 1114q0 -136 96 -227q97 -92 236 -92t234 92t95 227
t-94 228t-234 93q-141 0 -237 -93t-96 -228zM151 29h282v874l688 -874h234v1376h-283v-875l-688 875h-233v-1376zM1711 1114q0 70 46 115q47 45 118 45q68 0 114 -46t46 -114q0 -66 -47 -113t-113 -47q-71 0 -118 45q-46 45 -46 115zM1740 1114h2q0 -55 38 -93t96 -38
q56 0 93 39q38 40 38 92q0 55 -38 93t-93 38q-62 0 -99 -37t-37 -94zM1553 449v225h643v-225h-643zM1582 477h586v168h-586v-168z" />
    <glyph glyph-name="trademark" unicode="&#x2122;" horiz-adv-x="1492" 
d="M61 1264v170h574v-170h-197v-486h-184v486h-193zM696 778v656h185l182 -267l180 267h189v-656h-181v367l-186 -258l-193 258v-367h-176zM90 1292h193v-485h127v485h196v113h-516v-113zM725 807h119v424l221 -295l215 297v-426h123v598h-146l-194 -289l-197 289h-141v-598
z" />
    <glyph glyph-name="estimated" unicode="&#x212e;" horiz-adv-x="1701" 
d="M68 721v-1q0 305 229 521t555 216t554 -216t228 -521v-33h-1259v-432q184 -217 495 -217q286 0 468 192h162q-260 -254 -630 -254q-343 0 -573 215q-229 214 -229 530zM96 720h3q0 -304 222 -510q221 -205 551 -205q323 0 555 197h-73q-193 -193 -483 -193
q-330 0 -524 236v471h1260v4q0 295 -220 502q-221 207 -534 207q-314 0 -535 -208q-222 -209 -222 -501zM349 720v470q195 236 506 234q309 0 504 -235v-469h-1010zM378 750h952v430q-184 217 -475 217q-293 0 -477 -217v-430z" />
    <glyph glyph-name="oneeighth" unicode="&#x215b;" horiz-adv-x="1689" 
d="M0 1288l276 146h209v-820h-243v549l-183 -84zM219 0l885 1434h215l-885 -1434h-215zM35 1274l43 -154l192 88v-565h187v762h-174zM270 29h148l850 1376h-148zM981 238v-2q0 141 127 208q-92 56 -92 166q0 96 84 163q83 67 221 67q135 0 219 -66t84 -163q0 -110 -92 -166
q127 -67 127 -207q0 -112 -92 -186t-246 -74q-153 0 -247 74q-93 74 -93 186zM1010 236h1q0 -102 86 -167t225 -65q136 0 222 65t86 168q0 139 -155 208q121 53 120 165q0 88 -78 145t-196 57q-121 0 -199 -57t-78 -145q0 -110 123 -166q-157 -69 -157 -208zM1209 576v-1
q0 44 32 71q31 27 81 27t81 -27q32 -27 32 -70t-32 -72q-31 -28 -81 -28t-81 28q-32 29 -32 72zM1238 574l-4 -2q0 -30 23 -50q22 -19 62 -19q39 0 62 20t23 50q0 31 -22 50q-23 20 -61 20q-39 0 -61 -19t-22 -50zM1193 258v-2q0 50 36 81q37 32 89 32t89 -32q36 -31 36 -81
q0 -51 -34 -82t-91 -31q-56 0 -91 32q-34 31 -34 83zM1222 256q0 -39 24 -63t71 -24t71 24t24 63q0 35 -25 59t-70 24q-44 0 -70 -24q-25 -24 -25 -59z" />
    <glyph glyph-name="threeeighths" unicode="&#x215c;" horiz-adv-x="1845" 
d="M31 864l212 59q11 -59 46 -93q37 -35 89 -35q46 0 71 24q26 24 26 63t-27 66t-82 27q-38 0 -75 -6l-35 127l125 135h-320v203h613v-164l-148 -146q81 -26 128 -88q48 -63 48 -155q0 -124 -91 -206q-92 -83 -228 -83q-160 0 -247 78t-105 194zM376 -3l885 1434h215
l-885 -1434h-215zM64 841l1 -1q27 -107 109 -165t211 -58q125 0 207 75q83 75 83 186q0 166 -156 217l-43 12l170 172v123h-555v-145h356l-157 -173l22 -86q18 2 54 3q62 0 99 -33q38 -33 38 -88q0 -51 -35 -83t-90 -32q-117 0 -156 123zM428 25h147l850 1376h-147z
M1139 234v-2q0 141 127 208q-92 56 -93 166q0 96 84 163q83 67 222 67q135 0 219 -66t84 -163q0 -110 -92 -166q127 -67 127 -207q0 -112 -93 -186q-94 -74 -246 -74t-246 74q-93 74 -93 186zM1167 232h2q0 -102 86 -167t225 -65q136 0 222 65t86 168q0 139 -156 208
q121 52 121 165q0 88 -78 145t-196 57q-121 0 -199 -57t-78 -145q0 -111 123 -166q-158 -69 -158 -208zM1368 572l-2 -1q0 44 32 71t81 27t81 -27t32 -70q0 -44 -31 -72t-81 -28t-81 28t-31 72zM1395 570l-4 -2q0 -30 23 -50q22 -19 62 -19q39 0 62 20t23 50q0 31 -22 50
q-23 20 -61 20q-39 0 -61 -19t-22 -50zM1350 254l-4 -2q0 50 36 81q37 32 90 32t90 -32q36 -31 36 -81q0 -51 -34 -82t-91 -31q-56 0 -90 32q-33 31 -33 83zM1374 252q0 -39 25 -63t72 -24t71 24t24 63q0 35 -25 59t-70 24t-71 -24t-26 -59z" />
    <glyph glyph-name="fiveeighths" unicode="&#x215d;" horiz-adv-x="1818" 
d="M31 827l212 58q37 -90 118 -90q40 0 66 23q25 22 25 57q0 37 -26 61q-25 24 -71 24q-64 0 -116 -31l-175 55l39 449h535v-205h-338l-6 -101q45 14 115 15q123 0 195 -76t72 -195q0 -122 -85 -201t-220 -79q-143 0 -230 69t-110 167zM349 -2l885 1434h215l-885 -1434h-215
zM67 805v-1q28 -85 110 -135t194 -50q120 0 199 71q78 70 78 180t-66 176t-174 66q-68 0 -107 -12l-39 -12l10 167h336v148h-479l-35 -399l139 -45q55 28 121 27q56 0 90 -30q35 -30 35 -81q0 -47 -33 -78q-32 -31 -85 -31q-85 0 -135 84zM400 26h148l850 1376h-148z
M1111 235v-2q0 141 127 208q-92 56 -92 166q0 95 84 163q83 67 221 67q135 0 219 -66t84 -163q0 -110 -92 -166q127 -67 127 -207q0 -112 -92 -186t-246 -74q-153 0 -247 74q-93 73 -93 186zM1140 233h2q0 -102 86 -167t225 -65q136 0 222 65t86 168q0 139 -155 208
q122 52 120 165q0 88 -78 145t-196 57q-121 0 -199 -57t-78 -145q0 -110 122 -166q-157 -69 -157 -208zM1340 573v-1q0 44 32 71t81 27t81 -27t32 -70t-32 -72q-31 -28 -81 -28t-81 28q-32 29 -32 72zM1369 571l-4 -2q0 -30 23 -50q22 -19 62 -19q39 0 62 20t23 50
q0 31 -22 50q-23 20 -61 20q-39 0 -61 -19t-22 -50zM1324 255v-2q0 49 36 81q37 32 89 32t89 -32q36 -32 36 -81q0 -51 -34 -82t-91 -31q-56 0 -91 32q-34 31 -34 83zM1353 253q0 -39 24 -63t71 -24t71 24t24 63q0 35 -25 59q-26 24 -70 24t-70 -24q-25 -24 -25 -59z" />
    <glyph glyph-name="seveneighths" unicode="&#x215e;" horiz-adv-x="1740" 
d="M6 1225v209h623v-166l-273 -654h-254l254 611h-350zM270 0l885 1434h215l-885 -1434h-215zM35 1253h364l-254 -610h193l262 631v131h-565v-152zM322 29h147l850 1376h-148zM1032 238l-2 -2q0 141 127 208q-92 56 -92 166q0 96 84 163q83 67 221 67q135 0 219 -66t84 -163
q0 -110 -92 -166q127 -67 127 -207q0 -112 -92 -186t-245 -74q-152 0 -246 74q-93 74 -93 186zM1059 236h2q0 -102 86 -167t225 -65q136 0 222 65t86 168q0 139 -155 208q121 52 121 165q0 88 -78 145t-197 57q-121 0 -199 -57t-78 -145q0 -110 123 -166q-158 -69 -158 -208
zM1260 576l-1 -1q0 44 32 71q31 27 81 27t81 -27q32 -27 32 -70t-32 -72q-31 -28 -81 -28t-81 28t-31 72zM1287 574l-4 -2q0 -30 23 -50q22 -19 62 -19q39 0 62 20t23 50q0 31 -22 50q-23 20 -61 20q-39 0 -61 -19t-22 -50zM1242 258l-2 -2q0 50 36 81q37 32 89 32t89 -32
q36 -31 36 -81t-33 -82q-32 -31 -90 -31q-56 0 -91 32q-34 31 -34 83zM1269 256q0 -39 24 -63t71 -24t71 24t24 63q0 35 -25 59t-70 24q-44 0 -70 -24q-25 -24 -25 -59z" />
    <glyph glyph-name="arrowleft" unicode="&#x2190;" horiz-adv-x="1689" 
d="M1577 815v-287h-922l346 -340l-202 -202l-686 686l686 686l202 -203l-346 -340h922zM1548 786h-962l375 369l-162 162l-645 -645l645 -645l162 161l-375 369h962v229z" />
    <glyph glyph-name="arrowup" unicode="&#x2191;" horiz-adv-x="1597" 
d="M113 778l686 686l686 -686l-203 -203l-330 336v-911h-307v911l-330 -336zM154 778l161 -162l359 365v-952h250v952l358 -365l162 162l-645 645z" />
    <glyph glyph-name="arrowright" unicode="&#x2192;" horiz-adv-x="1689" 
d="M113 535v286h921l-346 340l203 203l686 -686l-686 -686l-203 203l346 340h-921zM141 563h963l-375 -368l162 -162l645 645l-645 645l-162 -162l375 -368h-963v-230z" />
    <glyph glyph-name="arrowdown" unicode="&#x2193;" horiz-adv-x="1597" 
d="M113 655l202 203l330 -336v912h307v-912l330 336l203 -203l-686 -686zM154 655l645 -645l645 645l-162 162l-358 -364v952h-250v-952l-359 364z" />
    <glyph glyph-name="arrowboth" unicode="&#x2194;" horiz-adv-x="2338" 
d="M113 678l686 686l202 -203l-346 -340h1028l-346 340l203 203l686 -686l-686 -686l-203 203l346 340h-1028l346 -340l-202 -203zM154 678l645 -645l162 162l-375 368h1167l-375 -368l162 -162l645 645l-645 645l-162 -162l375 -368h-1167l375 368l-162 162z" />
    <glyph glyph-name="arrowupdn" unicode="&#x2195;" horiz-adv-x="1597" 
d="M113 307l202 203l330 -336v1008l-330 -336l-202 203l686 686l686 -686l-203 -203l-330 336v-1008l330 336l203 -203l-686 -686zM154 307l645 -645l645 645l-162 162l-358 -365v1147l358 -364l162 162l-645 645l-645 -645l161 -162l359 364v-1147l-359 365z" />
    <glyph glyph-name="uni2196" unicode="&#x2196;" horiz-adv-x="1366" 
d="M1042 25l-647 647l4 -475l-286 -2v970h968l2 -286l-477 4l647 -647zM1042 66l170 170l-675 675l518 -4l-2 230h-912v-914l230 2l-4 516z" />
    <glyph glyph-name="uni2197" unicode="&#x2197;" horiz-adv-x="1366" 
d="M113 297l647 647l-475 -4l-2 287h970v-969l-286 -2l4 477l-647 -647zM154 297l170 -170l675 676l-4 -518l230 2v911h-914l2 -229l516 4z" />
    <glyph glyph-name="uni2198" unicode="&#x2198;" horiz-adv-x="1366" 
d="M324 1247l647 -647l-4 475l286 2v-971h-968l-2 287l477 -4l-647 647zM324 1206l-170 -170l675 -676l-518 5l2 -230h912v914l-230 -2l4 -517z" />
    <glyph glyph-name="uni2199" unicode="&#x2199;" horiz-adv-x="1366" 
d="M1253 977l-647 -647l475 4l2 -287h-970v969l286 2l-4 -477l647 647zM1212 977l-170 170l-675 -676l4 518l-230 -2v-911h914l-2 229l-516 -4z" />
    <glyph glyph-name="partialdiff" unicode="&#x2202;" horiz-adv-x="1310" 
d="M82 483l-2 -1q0 213 141 354t360 141q89 0 178 -33t144 -88q-18 139 -108 235t-226 96q-196 0 -338 -139l-69 260q184 154 447 153q280 0 450 -212q169 -211 169 -554q0 -333 -167 -529q-167 -195 -444 -195q-220 0 -378 149q-157 148 -157 363zM109 482v-3
q0 -201 149 -342q148 -141 359 -141q265 0 423 189q158 190 158 508q0 335 -162 537t-429 202q-241 0 -413 -136l53 -196q139 115 321 115q162 0 267 -126t99 -303q-59 77 -154 120t-198 43q-206 0 -339 -133q-134 -134 -134 -334zM367 482l1 1q0 103 72 173q73 71 179 71
q90 0 180 -57q91 -58 125 -133q-7 -129 -92 -220q-84 -90 -203 -90q-112 0 -187 72t-75 183zM396 483q0 -95 65 -162q65 -66 170 -66q113 0 185 83q73 83 80 192q-28 62 -108 114q-80 53 -168 53q-96 0 -160 -63t-64 -151z" />
    <glyph glyph-name="emptyset" unicode="&#x2205;" horiz-adv-x="1034" 
d="M10 236l131 133q-90 125 -90 285q0 203 138 344q138 140 340 139q161 0 289 -95l121 121l84 -86l-119 -119q101 -127 103 -303q2 -203 -136 -342t-341 -139q-173 0 -303 107l-131 -131zM49 236l44 -46l129 129q130 -117 305 -116q190 0 321 131q130 130 129 321
q0 179 -113 306l117 116l-43 45l-119 -118q-124 104 -291 104q-188 2 -318 -129q-130 -130 -130 -324q0 -167 100 -288zM243 655h-1q0 119 82 201t201 82q102 0 172 -55l-399 -398q-55 73 -55 170zM270 655h-1q0 -71 31 -126l350 349q-55 31 -127 30q-109 0 -181 -72
t-72 -181zM341 440l400 403q70 -76 70 -186q-1 -121 -84 -202t-204 -81q-108 -2 -182 66zM385 445h1q59 -41 138 -41q110 0 183 73q74 74 75 181q0 78 -43 142z" />
    <glyph glyph-name="product" unicode="&#x220f;" horiz-adv-x="1343" 
d="M113 -430v1925h1118v-1925h-328v1628h-463v-1628h-327zM141 -401h271v1628h520v-1628h270v1867h-1061v-1867z" />
    <glyph glyph-name="summation" unicode="&#x2211;" horiz-adv-x="1359" 
d="M82 -410v260l551 709l-516 676v260h1120v-297h-700l481 -641l-514 -670h774v-297h-1196zM111 -381h1138v240h-805l537 698l-500 670h727v239h-1063v-221l525 -686l-559 -719v-221z" />
    <glyph glyph-name="minus" unicode="&#x2212;" horiz-adv-x="1146" 
d="M113 590v256h921v-256h-921zM141 618h865v199h-865v-199z" />
    <glyph glyph-name="radical" unicode="&#x221a;" horiz-adv-x="1538" 
d="M82 582v276h504l229 -680l416 1440h328l-562 -1804h-348l-293 768h-274zM111 610h266l293 -768h307l543 1747h-267l-428 -1474h-18l-242 714h-454v-219z" />
    <glyph glyph-name="infinity" unicode="&#x221e;" horiz-adv-x="1769" 
d="M82 717q0 176 121 303t294 127q219 0 391 -213q168 213 387 213q173 0 294 -127t121 -303q0 -181 -121 -305q-122 -125 -294 -125q-219 0 -387 209q-173 -209 -391 -209q-172 0 -294 125q-121 124 -121 305zM111 717l-1 -1q0 -167 113 -285q113 -117 273 -117
q220 0 390 228q166 -226 387 -228q161 0 273 117q113 118 113 285t-114 284t-271 117q-220 0 -387 -231q-168 231 -391 231q-157 0 -271 -117t-114 -283zM316 714q0 81 56 139q56 57 134 57q133 0 289 -196q-156 -197 -289 -197q-76 0 -133 59q-57 58 -57 138zM976 714h1
q156 196 289 195q78 0 133 -57q55 -56 55 -139q0 -79 -57 -138q-57 -58 -132 -58q-133 0 -289 197zM346 713v-1q0 -68 47 -118q46 -49 113 -49q112 0 252 168q-140 168 -252 168q-67 0 -113 -49q-47 -50 -47 -119zM1014 712l-2 -1q140 -168 252 -168q67 0 113 49
q47 50 47 119t-47 119t-111 50q-112 0 -252 -168z" />
    <glyph glyph-name="integral" unicode="&#x222b;" horiz-adv-x="1214" 
d="M0 -231l121 258q51 -56 119 -58q124 0 143 142l145 1079q57 426 422 426q170 0 264 -88l-120 -258q-51 57 -119 57q-123 0 -144 -141l-145 -1080q-28 -213 -134 -319.5t-288 -105.5q-170 0 -264 88zM35 -223h-1q83 -68 229 -68q342 0 393 402l146 1079q11 79 57 122
q47 44 117 44q64 0 110 -39l95 203q-83 68 -231 66q-342 0 -393 -401l-145 -1080q-10 -77 -57 -121q-46 -43 -115 -43q-63 0 -111 39z" />
    <glyph glyph-name="approxequal" unicode="&#x2248;" horiz-adv-x="1241" 
d="M113 815l-3 -2q0 129 68 224t204 95q102 0 267 -76q90 -39 113 -39q74 0 74 115l290 -84q0 -131 -66 -224t-201 -93q-99 0 -267 76q-90 39 -113 39q-76 0 -76 -115zM138 834l234 -68q12 106 98 106q32 0 132 -45q158 -71 254 -69q106 0 171 72q64 71 70 197l-236 68
q-12 -107 -96 -108q-25 0 -139 47q-156 68 -244 68q-106 0 -172 -72t-72 -196zM108 389l-3 -2q0 129 68 224t204 95q102 0 267 -76q90 -39 113 -39q74 0 74 115l290 -84q0 -131 -66 -224t-201 -93q-99 0 -267 76q-90 39 -113 39q-76 0 -76 -115zM133 408l234 -69
q12 106 98 108q31 0 132 -45q156 -70 254 -70q107 0 171 72q64 71 70 197l-236 68q-12 -107 -96 -108q-25 0 -139 47q-156 68 -244 68q-106 0 -172 -72t-72 -196z" />
    <glyph glyph-name="notequal" unicode="&#x2260;" horiz-adv-x="1146" 
d="M113 385v256h315l68 154h-383v256h493l109 249h225l-109 -249h203v-256h-313l-68 -154h381v-256h-491l-111 -252h-225l110 252h-204zM141 414h221l-110 -252h162l110 252h482v198h-398l94 211h304v199h-220l109 250h-162l-108 -250h-484v-199h400l-95 -211h-305v-198z
" />
    <glyph glyph-name="lessequal" unicode="&#x2264;" horiz-adv-x="1157" 
d="M113 741v297l921 348v-276l-618 -219l618 -221v-277zM141 762l865 -328v215l-648 232v20l648 229v216l-865 -328v-256zM113 86v256h921v-256h-921zM141 115h865v198h-865v-198z" />
    <glyph glyph-name="greaterequal" unicode="&#x2265;" horiz-adv-x="1157" 
d="M1044 741l-921 -348v277l618 221l-618 219v276l921 -348v-297zM1016 762v256l-864 328v-216l647 -229v-20l-647 -232v-215zM1044 86h-921v256h921v-256zM1016 115v198h-864v-198h864z" />
    <glyph glyph-name="lozenge" unicode="&#x25ca;" horiz-adv-x="1308" 
d="M82 717l397 717h352l396 -717l-396 -717h-352zM115 717l381 -688h319l379 688l-379 688h-319zM389 717l256 459h23l252 -459l-254 -463h-21zM422 717l233 -422l232 422l-232 422z" />
    <glyph glyph-name="glyph1" 
 />
    <glyph glyph-name="glyph2" horiz-adv-x="681" 
 />
    <glyph glyph-name="i.aalt" horiz-adv-x="573" 
d="M109 1337h-1q0 72 52 123t126 51t126 -51q53 -51 53 -123q0 -74 -52 -125q-53 -51 -126 -51t-126 51q-52 51 -52 125zM136 1337l-2 -1q0 -62 43 -105t107 -43t107 43t43 105q0 58 -44 102t-105 44q-62 0 -105 -43q-44 -44 -44 -102zM120 -1v1044h328v-1044h-328zM149 28
h270v987h-270v-987z" />
    <glyph glyph-name="f_f_j.dlig" horiz-adv-x="2037" 
d="M31 758v287h190v74q0 187 105 297q105 109 302 109q146 0 246 -45l-77 -260q-53 22 -117 21q-53 0 -92 -33t-39 -89v-74h369v74q0 187 113 297q112 109 326 109q223 0 381 -90l-78 -260q-134 67 -264 66q-61 0 -106 -33t-45 -89v-74h697v-1044q0 -217 -96 -339
q-96 -121 -291 -121q-103 0 -206 45l71 250q38 -20 81 -20q113 0 113 153v789h-369v-758h-327v758h-369v-758h-328v758h-190zM59 787l186 1v-757h270v757h426v-757h271v757h425v-817q0 -86 -36 -134t-104 -48q-28 0 -61 10l-56 -194q88 -33 172 -33q356 0 357 430v1016h-696
v102q0 65 50 109q49 43 128 43q122 0 245 -56l62 205q-139 76 -346 76q-196 0 -303 -99q-106 -99 -106 -279v-102h-426v102q0 63 46 108q47 45 114 45q55 0 99 -15l62 207q-86 33 -210 33q-180 0 -279 -99t-99 -279v-102h-191v-230z" />
    <glyph glyph-name="f_j.dlig" horiz-adv-x="1341" 
d="M31 758l-2 287h190v74q0 187 113 297q112 109 326 109q224 0 381 -90l-77 -260q-133 67 -265 66q-61 0 -105 -33t-44 -89v-74h696v-1044q0 -217 -95 -339q-94 -121 -290 -121q-102 0 -207 45l72 250q38 -20 81 -20q113 0 113 153v789h-369v-758h-328v758h-190zM57 787
l192 1v-757h270v757h426v-817q0 -87 -37 -134q-38 -48 -105 -48q-29 0 -62 10l-55 -194q88 -33 172 -33q356 0 357 430v1016h-697v102q0 66 51 109q50 43 128 43q122 0 246 -56l62 205q-139 76 -348 76q-197 0 -303 -99t-106 -279v-102h-191v-230z" />
    <glyph glyph-name="f_t.dlig" horiz-adv-x="1572" 
d="M31 758l2 284h190v74q0 188 105 297t302 109q114 0 195 -29l-78 -260q-31 6 -66 6q-62 0 -96 -31q-35 -32 -35 -91v-74h358v328h328v-328h281v-286h-281v-381q0 -109 108 -109q58 0 111 27l78 -260q-129 -51 -256 -51q-184 0 -277 105t-93 289v381h-358v-758h-328v758
h-190zM61 784l189 1v-757h270v757h416v-409q0 -365 340 -365q106 0 222 39l-61 205q-38 -16 -93 -16q-137 0 -137 137v409h281v230h-281v327h-270v-327h-416v102q0 71 43 111q44 41 117 41q27 0 45 -2l63 209q-67 18 -159 18q-180 0 -279 -99t-99 -279v-102h-191v-230z" />
    <glyph glyph-name="t_t.dlig" horiz-adv-x="1564" 
d="M20 758l2 284h162v328h328v-328h389v328h328v-328h280v-286h-280v-381q0 -109 108 -109q59 0 111 27l78 -260q-129 -51 -256 -51q-184 0 -277 105t-93 289v381h-389v-381q0 -109 108 -109q59 0 111 27l78 -260q-129 -51 -256 -51q-184 0 -277 105t-93 289v381h-162z
M51 784h160v-409q0 -365 340 -365q107 0 222 39l-61 205q-38 -16 -93 -16q-137 0 -137 137v409h447v-409q0 -365 340 -365q107 0 222 39l-62 205q-38 -16 -92 -16q-137 0 -137 137v409h281v230h-281v327h-270v-327h-447v327h-270v-327h-162v-230z" />
    <glyph glyph-name="zero.tnum" horiz-adv-x="1259" 
d="M20 717v-1q0 333 163 539q163 207 448 207t447 -207t162 -538q0 -332 -162 -539t-447 -207t-448 207q-163 206 -163 539zM49 715q0 -326 158 -522q157 -195 423 -195t422 195t156 522t-156 522t-422 195t-423 -195q-158 -196 -158 -522zM332 715q0 224 77 346
q76 121 222 121q143 0 219 -121q77 -122 77 -346t-77 -346q-76 -121 -219 -121q-146 0 -222 121q-77 122 -77 346zM360 715v-4q0 -206 68 -322q67 -115 203 -115q135 0 201 116t66 323t-66 323t-201 116q-136 0 -203 -115q-68 -116 -68 -322z" />
    <glyph glyph-name="one.tnum" horiz-adv-x="1259" 
d="M131 1208l438 226h291v-1127h258v-307h-942v307h340v752l-303 -139zM166 1194l65 -233l314 143v-825h-340v-250h885v250h-259v1126h-256z" />
    <glyph glyph-name="two.tnum" horiz-adv-x="1259" 
d="M106 1034l1 1q23 176 167 302t356 126q240 0 385 -120t145 -339q0 -129 -63 -234t-196 -226l-264 -238h541v-307h-1063v227l553 514q81 73 116 126q36 54 36 116q0 83 -49 129q-50 47 -135 47t-144 -58q-61 -59 -80 -154zM140 1056l253 -73q29 96 95 152q67 56 152 56
q99 0 155 -55q57 -56 57 -150q0 -67 -41 -128t-120 -134l-545 -506v-186h1006v250h-586l320 286q136 124 191 222q56 100 56 216q0 201 -133 315q-134 114 -369 114q-185 0 -322 -106t-169 -273z" />
    <glyph glyph-name="three.tnum" horiz-adv-x="1259" 
d="M88 422l298 84q18 -97 89 -170q71 -72 165 -72q102 0 162 60t60 142t-57 141t-158 59q-77 0 -129 -27l-55 197l231 294h-563v304h1010v-224l-293 -315q155 -38 249 -148t94 -279q0 -208 -151 -352q-152 -144 -376 -144q-254 0 -399 132t-177 318zM118 399l3 -3
q40 -183 185 -292q144 -108 357 -108t356 134t143 333q0 152 -85 258q-85 107 -234 141q-31 6 -54 6l323 349v184h-952v-246h594l-260 -330l43 -151q42 16 111 16q107 0 175 -64q69 -64 69 -162q0 -97 -70 -163t-180 -66q-94 0 -171 66t-105 168z" />
    <glyph glyph-name="four.tnum" horiz-adv-x="1259" 
d="M59 258v246l473 930h365l-440 -877h268v258h340v-258h170v-299h-170v-258h-340v258h-666zM88 287h666v-258h282v258h170v241h-170v258h-282v-258h-344l440 877h-299l-463 -907v-211z" />
    <glyph glyph-name="five.tnum" horiz-adv-x="1259" 
d="M98 371l303 85q28 -81 95 -136q66 -54 146 -54q101 0 162 59q60 59 60 149t-58 147t-165 57q-122 0 -213 -62l-270 80l61 738h907v-304h-606l-16 -221q99 35 215 35q205 0 339 -138q134 -139 134 -339q0 -211 -150 -354q-149 -142 -376 -142q-231 0 -376 115
q-146 116 -192 285zM133 349l1 -2q53 -164 194 -257t338 -93q213 0 355 133t142 334q0 194 -127 321q-128 128 -318 128q-134 0 -249 -51l23 295h604v246h-852l-58 -688l236 -70q90 59 217 60q114 0 182 -64q69 -64 69 -169q0 -106 -69 -171q-68 -64 -181 -64q-79 0 -150 50
q-70 49 -105 134z" />
    <glyph glyph-name="six.tnum" horiz-adv-x="1259" 
d="M88 487l-1 -1q0 143 100 303l408 643h383l-281 -443q223 -17 366 -156q143 -140 143 -348q0 -221 -159 -368t-399 -147t-400 147t-160 370zM116 486h1q0 -211 150 -349t380 -138q226 0 378 140t152 348q0 197 -135 327t-348 147q-30 2 -48 2l281 440h-316l-399 -629
q-96 -158 -96 -288zM397 486v-1q0 103 71 171t179 68q109 0 179 -67q71 -68 71 -172q0 -107 -69 -174q-68 -67 -180 -67q-110 0 -181 68q-70 67 -70 174zM426 485h-1q0 -94 60 -154t161 -60t161 60t60 154q0 90 -60 150t-161 60q-98 0 -159 -60t-61 -150z" />
    <glyph glyph-name="seven.tnum" horiz-adv-x="1259" 
d="M123 1434h1053v-232l-525 -1202h-327l-7 -12l-8 12h-18l8 16l-8 13h12l483 1097h-663v308zM1147 1208v197h-995v-250h679l-495 -1126h297z" />
    <glyph glyph-name="eight.tnum" horiz-adv-x="1259" 
d="M72 420l-4 -1q0 254 237 362q-176 95 -176 294q0 164 140 275q139 111 369 111t369 -111q140 -111 140 -275q0 -199 -176 -294q239 -111 237 -362q0 -190 -157 -319t-411 -129q-255 0 -412 128q-156 127 -156 321zM96 419l-2 1q0 -184 152 -303q151 -118 390 -118
q235 0 389 119q153 118 153 300q0 258 -277 358q215 96 215 297q0 157 -134 258t-345 101q-212 0 -345 -100q-134 -101 -134 -258q0 -203 211 -297q-273 -102 -273 -358zM426 1044v-1q0 80 60 131t150 51q91 0 150 -52q60 -53 60 -130q0 -79 -60 -132q-59 -52 -150 -52
q-89 0 -150 53q-60 52 -60 132zM455 1042q0 -66 49 -111q50 -45 132 -45q83 0 132 46t49 110q0 63 -49 108q-50 45 -132 45t-132 -45q-49 -45 -49 -108zM379 446h-2q0 100 71 163q70 63 186 63q113 0 185 -63t72 -163q0 -98 -72 -161t-184 -63q-115 0 -186 62
q-70 61 -70 162zM406 446l-2 -2q0 -84 60 -139q59 -55 167 -55q103 0 165 56t62 140q0 86 -61 141t-165 55q-107 0 -166 -55q-60 -55 -60 -141z" />
    <glyph glyph-name="nine.tnum" horiz-adv-x="1259" 
d="M1212 946v2q0 -143 -100 -303l-407 -643h-383l280 442q-224 16 -366 156q-142 139 -142 348q0 221 160 368t400 147t399 -147t159 -370zM1184 948l-1 -1q0 212 -150 350t-380 138q-227 0 -378 -139t-151 -348q0 -196 134 -327q133 -130 347 -147q30 -2 48 -2l-280 -440
h315l399 628q97 157 97 288zM902 947l-1 -1q0 -104 -70 -171t-179 -67q-108 0 -179 68t-71 171q0 107 70 174q71 68 181 68t180 -68q69 -67 69 -174zM872 946h-1q0 94 -60 154t-160 60q-101 0 -161 -60t-60 -154q0 -90 60 -150t161 -60q97 0 159 60t62 150z" />
    <glyph glyph-name="zero.dnom" horiz-adv-x="841" 
d="M41 411l-3 -1q0 200 104 316q103 115 278 115q166 0 273 -117q107 -118 107 -313q0 -202 -103 -318q-103 -117 -276 -117q-174 0 -277 117q-103 116 -103 318zM67 410v-1q0 -187 95 -297q94 -109 257 -109q161 0 256 110q94 109 94 297q0 180 -96 291t-254 111
q-163 0 -258 -108q-94 -107 -94 -294zM261 409v-2q0 110 41 171q40 60 117 60t117 -60q40 -59 40 -170q0 -113 -40 -174t-117 -61q-158 0 -158 236zM290 407q0 -207 129 -207q127 0 127 207q0 101 -31.5 151.5t-95.5 49.5q-129 2 -129 -201z" />
    <glyph glyph-name="one.dnom" horiz-adv-x="587" 
d="M0 674l276 145h209v-819h-243v549l-183 -84zM35 659l43 -153l192 88v-565h187v762h-174z" />
    <glyph glyph-name="two.dnom" horiz-adv-x="731" 
d="M31 567l-2 2q12 113 101 194q88 81 219 81q149 0 238 -71q88 -70 88 -198q0 -71 -28 -123t-94 -109l-149 -133h284v-209h-655v150l319 296q76 73 76 119q0 27 -19 45t-54 18q-79 0 -105 -125zM61 590l165 -51q33 118 127 117q46 0 74 -25q29 -26 29 -66q0 -56 -84 -139
l-312 -289v-108h599v151h-330l205 185q63 55 87 102t24 108q0 113 -78 176t-218 63q-106 0 -187 -63t-101 -161z" />
    <glyph glyph-name="three.dnom" horiz-adv-x="743" 
d="M31 250l212 56q11 -59 46 -93q37 -35 89 -35q46 0 71 24q26 24 26 63t-27 66t-82 27q-38 0 -75 -6l-35 127l125 135h-320v203h613v-164l-148 -145q81 -26 128 -88q48 -63 48 -155q0 -124 -91 -206q-92 -83 -228 -83q-161 0 -247 79q-87 79 -105 195zM64 224l1 -1
q27 -107 109 -165t211 -58q125 0 207 75q83 75 83 185q0 166 -156 217l-43 13l170 172v123h-555v-146h356l-157 -172l22 -86q24 2 54 2q62 0 99 -33q38 -33 38 -88q0 -50 -35 -82q-34 -31 -90 -31q-117 0 -156 122z" />
    <glyph glyph-name="four.dnom" horiz-adv-x="729" 
d="M10 141v183l262 495h252l-243 -473h108v113h229v-113h91v-205h-91v-141h-229v141h-379zM39 170h379v-141h172v141h90v147h-90v113h-172v-113h-182l243 474h-190l-250 -474v-147z" />
    <glyph glyph-name="five.dnom" horiz-adv-x="716" 
d="M31 213l212 57q37 -90 118 -90q40 0 66 23q25 22 25 57q0 37 -26 61q-25 24 -71 24q-64 0 -116 -31l-175 56l39 448h535v-205h-338l-6 -100q47 14 115 14q123 0 195 -75t72 -194q0 -122 -85 -201q-86 -80 -220 -80q-143 0 -230 69t-110 167zM67 191v-2q28 -84 110 -136
q81 -51 194 -51q120 0 199 71q78 70 78 182q0 110 -66 176t-174 66q-69 0 -107 -13l-39 -12l10 168h336v148h-479l-35 -400l139 -45q56 29 121 29q56 0 90 -31q35 -32 35 -82q0 -47 -33 -77t-85 -30q-85 0 -135 84z" />
    <glyph glyph-name="six.dnom" horiz-adv-x="700" 
d="M20 276v2q5 84 58 175l229 368h248l-156 -256q119 -11 200 -90t81 -201q0 -129 -94 -213t-237 -84t-238 85t-91 214zM49 278v1q-4 -115 81 -193q86 -78 219 -78q130 0 216 77q85 76 85 191q0 106 -69 178q-70 73 -184 83q-26 2 -47 2l154 254h-180l-222 -355
q-52 -83 -53 -160zM223 277h-2q0 54 36 87t92 33q55 0 91 -33t36 -87t-34 -87t-92 -33t-92 33q-35 33 -35 87zM250 276v-1q0 -41 27 -66q26 -25 72 -25q44 0 72 26q27 26 27 66q0 39 -27 66t-72 27t-72 -27t-27 -66z" />
    <glyph glyph-name="seven.dnom" horiz-adv-x="638" 
d="M6 610v209h623v-166l-273 -653h-254l254 610h-350zM35 639h364l-254 -610h193l262 630v132h-565v-152z" />
    <glyph glyph-name="eight.dnom" horiz-adv-x="739" 
d="M31 238l-1 -2q0 141 127 208q-92 56 -92 166q0 96 84 163q83 67 222 67q135 0 219 -66t84 -163q0 -110 -92 -166q127 -67 127 -207q0 -112 -93 -186q-94 -74 -246 -74t-246 74q-93 74 -93 186zM58 236h2q0 -102 86 -167t225 -65q136 0 222 65t86 168q0 139 -156 208
q121 52 121 165q0 88 -78 145t-196 57q-121 0 -199 -57t-78 -145q0 -110 123 -166q-158 -69 -158 -208zM259 576l-1 -1q0 44 32 71t81 27t81 -27t32 -70q0 -44 -31 -72t-81 -28t-81 28q-32 29 -32 72zM287 574l-4 -2q0 -30 23 -50q22 -19 62 -19q39 0 62 20t23 50
q0 31 -22 50q-23 20 -61 20q-39 0 -61 -19t-22 -50zM242 258l-4 -2q0 50 36 81q37 32 90 32t90 -32q36 -31 36 -81q0 -51 -34 -82t-91 -31q-56 0 -90 32q-33 32 -33 83zM266 256q0 -39 25 -63t72 -24t71 24t24 63q0 35 -25 59t-70 24t-71 -24t-26 -59z" />
    <glyph glyph-name="nine.dnom" horiz-adv-x="700" 
d="M680 543l-2 -2q-4 -84 -57 -174l-230 -369h-248l156 256q-119 11 -200 90q-81 80 -81 201q0 129 95 213t236 84q144 0 239 -85q96 -86 92 -214zM649 541l-1 -1q4 115 -81 193t-219 78q-130 0 -216 -77q-85 -76 -85 -191q0 -106 69 -178q68 -71 185 -82q26 -2 47 -2
l-153 -254h180l221 354q52 83 53 160zM474 542q0 -52 -36 -87q-35 -34 -91 -34t-91 34q-36 35 -36 87t35 87q34 34 92 34t92 -34q35 -35 35 -87zM446 542v-1q0 41 -27 66q-28 26 -72 26q-46 0 -72 -25q-27 -26 -27 -66q0 -39 27 -66t72 -27t72 27t27 66z" />
    <glyph glyph-name="zero.numr" horiz-adv-x="841" 
d="M41 1026l-3 1q0 200 104 315q103 114 278 114q166 0 273 -117q107 -118 107 -313q0 -202 -103 -318q-103 -117 -276 -117q-174 0 -277 117q-103 116 -103 318zM67 1027v-2q0 -187 95 -296q94 -108 257 -108q161 0 256 110q94 109 94 296q0 180 -96 291t-254 111
q-163 0 -258 -108q-94 -107 -94 -294zM261 1025v1q0 110 41 171q40 60 117 60t117 -60q40 -59 40 -171q0 -113 -40 -174t-117 -61q-79 -1 -118.5 57.5t-39.5 176.5zM290 1026q0 -207 129 -207q127 0 127 207q0 203 -127 203q-129 0 -129 -203z" />
    <glyph glyph-name="one.numr" horiz-adv-x="587" 
d="M0 1288l276 146h209v-820h-243v549l-183 -84zM35 1274l43 -154l192 88v-565h187v762h-174z" />
    <glyph glyph-name="two.numr" horiz-adv-x="731" 
d="M31 1182l-2 1q12 113 101 194q88 81 219 81q150 0 238 -70t88 -198q0 -71 -28 -123q-29 -53 -94 -111l-149 -133h284v-209h-655v150l319 297q76 73 76 119q0 27 -19 45t-54 18q-79 0 -105 -125zM61 1203l165 -52q33 119 127 119q46 0 74 -25q29 -26 29 -66
q0 -57 -84 -140l-312 -288v-109h599v152h-330l205 184q63 56 87 102t24 108q0 113 -78 176t-218 63q-106 0 -187 -63t-101 -161z" />
    <glyph glyph-name="three.numr" horiz-adv-x="743" 
d="M31 864l212 59q11 -59 46 -93q37 -35 89 -35q46 0 71 24q26 24 26 63t-27 66t-82 27q-38 0 -75 -6l-35 127l125 135h-320v203h613v-164l-148 -146q81 -26 128 -88q48 -63 48 -155q0 -124 -91 -206q-92 -83 -228 -83q-160 0 -247 78t-105 194zM64 841l1 -1
q27 -107 109 -165t211 -58q125 0 207 75q83 75 83 186q0 166 -156 217l-43 12l170 172v123h-555v-145h356l-157 -173l22 -86q18 2 54 3q62 0 99 -33q38 -33 38 -88q0 -51 -35 -83t-90 -32q-117 0 -156 123z" />
    <glyph glyph-name="four.numr" horiz-adv-x="729" 
d="M10 756v182l262 496h252l-243 -473h108v112h229v-112h91v-205h-91v-142h-229v142h-379zM39 784h379v-141h172v141h90v148h-90v112h-172v-112h-182l243 473h-190l-250 -473v-148z" />
    <glyph glyph-name="five.numr" horiz-adv-x="716" 
d="M31 827l212 58q37 -90 118 -90q40 0 66 23q25 22 25 57q0 37 -26 61q-25 24 -71 24q-64 0 -116 -31l-175 55l39 449h535v-205h-338l-6 -101q45 14 115 15q123 0 195 -76t72 -195q0 -122 -85 -201t-220 -79q-143 0 -230 69t-110 167zM67 805v-1q28 -85 110 -135t194 -50
q120 0 199 71q78 70 78 180t-66 176t-174 66q-68 0 -107 -12l-39 -12l10 167h336v148h-479l-35 -399l139 -45q55 28 121 27q56 0 90 -30q35 -30 35 -81q0 -47 -33 -78q-32 -31 -85 -31q-85 0 -135 84z" />
    <glyph glyph-name="six.numr" horiz-adv-x="700" 
d="M20 891v2q5 85 58 174l229 369h248l-156 -256q119 -11 200 -90q81 -80 81 -201q0 -129 -94 -213t-237 -84t-238 85t-91 214zM49 893q-4 -115 81 -193q86 -78 219 -78q130 0 216 77q85 76 85 192q0 106 -69 178t-184 82q-26 2 -47 2l154 254h-180l-222 -354
q-52 -83 -53 -160zM223 891h-2q0 53 36 87q35 34 92 34q56 0 91 -34q36 -34 36 -87t-34 -87t-92 -34t-92 34q-35 35 -35 87zM250 891v-1q0 -40 27 -66q26 -25 72 -25q44 0 72 26q27 25 27 66q0 39 -27 66t-72 27t-72 -27t-27 -66z" />
    <glyph glyph-name="seven.numr" horiz-adv-x="638" 
d="M6 1225v209h623v-166l-273 -654h-254l254 611h-350zM35 1253h364l-254 -610h193l262 631v131h-565v-152z" />
    <glyph glyph-name="eight.numr" horiz-adv-x="739" 
d="M31 852l-1 -1q0 142 127 209q-92 56 -92 166q0 96 84 162t222 66q135 0 219 -66t84 -162q0 -110 -92 -166q127 -67 127 -209q0 -113 -93 -186q-92 -73 -246 -73q-152 0 -246 74q-93 74 -93 186zM58 851l2 -1q0 -101 86 -166q85 -64 225 -64q136 0 222 65t86 167
q0 140 -156 210q121 52 121 165q0 89 -78 144q-79 56 -196 56q-120 0 -199 -56q-78 -55 -78 -144q0 -111 123 -166q-158 -71 -158 -210zM259 1190l-1 -2q0 44 32 71t81 27t81 -27t32 -70t-31 -70t-81 -27t-81 27q-32 27 -32 71zM287 1188l-4 -2q0 -31 23 -51q22 -19 62 -19
q39 0 62 20t23 51q0 32 -22 51q-23 20 -61 20q-39 0 -61 -19t-22 -51zM242 873l-4 -1q0 50 36 81q37 32 90 32q55 0 90 -31q36 -32 36 -81q0 -52 -34 -83q-35 -32 -91 -32t-90 32q-33 32 -33 83zM266 872q0 -39 25 -63t72 -24t71 24t24 63q0 35 -25 59t-70 24t-71 -24
t-26 -59z" />
    <glyph glyph-name="nine.numr" horiz-adv-x="700" 
d="M680 1157l-2 -2q-4 -84 -57 -174l-230 -369h-248l156 256q-119 11 -200 90q-81 80 -81 201q0 129 95 213q94 84 236 84q144 0 239 -85q96 -86 92 -214zM649 1155l-1 -1q4 115 -81 193t-219 78q-131 0 -216 -76t-85 -192q0 -106 69 -178q68 -71 185 -82q26 -2 47 -2
l-153 -254h180l221 354q52 83 53 160zM474 1156q0 -52 -36 -87q-35 -34 -91 -34t-91 34q-36 35 -36 87t35 87q34 34 92 34t92 -34q35 -35 35 -87zM446 1156v-1q0 41 -27 66q-28 26 -72 26q-46 0 -72 -25q-27 -26 -27 -66q0 -39 27 -66t72 -27t72 27t27 66z" />
    </font>
</defs>
</svg>
