<svg xmlns="http://www.w3.org/2000/svg" xmlns:xlink="http://www.w3.org/1999/xlink" width="115.144" height="127.905" viewBox="0 0 115.144 127.905">
  <defs>
    <linearGradient id="linear-gradient" x1="0.5" x2="0.5" y2="1" gradientUnits="objectBoundingBox">
      <stop offset="0" stop-color="#ffffff"/>
      <stop offset="1" stop-color="#9bedad"/>
    </linearGradient>
    <clipPath id="clip-path">
      <rect id="Rectangle_1956" data-name="Rectangle 1956" width="111.184" height="63.894" fill="url(#linear-gradient)"/>
    </clipPath>
  </defs>
  <g id="Group_12523" data-name="Group 12523" transform="matrix(-0.559, -0.829, 0.829, -0.559, 62.174, 127.905)">
    <g id="Group_12516" data-name="Group 12516" clip-path="url(#clip-path)">
      <path id="Path_25646" data-name="Path 25646" d="M.083.347C.251.971.462,1.591.65,2.211.456,1.444.193.694,0,0,0,0,.035.139.083.347s-.048-.208,0,0" transform="translate(68.961 45.419)" fill="url(#linear-gradient)"/>
      <path id="Path_25647" data-name="Path 25647" d="M0,0A3.057,3.057,0,0,0,.284.515C.2.351.1.17,0,0" transform="translate(72.727 55.779)" fill="url(#linear-gradient)"/>
      <path id="Path_25648" data-name="Path 25648" d="M.034.213.1,0C-.015.153-.021.211.034.213" transform="translate(9.561 40.168)" fill="url(#linear-gradient)"/>
      <path id="Path_25649" data-name="Path 25649" d="M0,0,.01.114C.067.611.049.418,0,0" transform="translate(68.761 42.092)" fill="url(#linear-gradient)"/>
      <path id="Path_25650" data-name="Path 25650" d="M73.009,55.769c-.2.158.567.97.672,1.1a18.118,18.118,0,0,0,1.539,1.609c.382.335.8.653,1.216.968a3.4,3.4,0,0,0,.926.516l-.4-.279a13.944,13.944,0,0,1-2.014-1.637c.026-.1.52.265.554.289.275.2.552.391.826.585.137.1.272.2.394.28a18.065,18.065,0,0,0,11.274,4.29c4.662.1,8.823-1.639,12.51-3.676.017.081-.071.163-.09.243-.049.185.528-.085.567-.1a20.093,20.093,0,0,0,1.808-1.069,5.213,5.213,0,0,0,.65-.506c.184-.179.14-.265.158-.478a30.857,30.857,0,0,0,5.343-4.483,18.4,18.4,0,0,0,2-2.554c.356-.555.383-.93-.282-1.344a4.271,4.271,0,0,0-1.93-.583,2.362,2.362,0,0,0-.9.1c-.39.14-.506.426-.686.708a21.752,21.752,0,0,1-4.756,5.055c-.076-.011-.016-.137.234-.418-.315.254-.547.44-.714.576-.035.024-.408.262-.378.316a4.27,4.27,0,0,0,.5-.189c-.872.678-1.791,1.321-2.737,1.923-.165.027-.378.07.591-.6-1.715,1-1.841,1.2-1.937,1.422a30.408,30.408,0,0,1-5.911,2.735,7.935,7.935,0,0,1-1.158.179c-.857.262-1.567.381-2.129.509s-.992.172-1.322.244l-.277.043a9.317,9.317,0,0,1-3.527-.526c.151.038.294.072.413.095.332.077.54.034.5-.059a9.938,9.938,0,0,1-2.856-.985c-.155-.085-.3-.177-.446-.263l-.438-.27a18.69,18.69,0,0,1-7.27-11.732,49.747,49.747,0,0,1-.576-13.875c.265-3.989.7-7.971.923-11.961.113-1.989.185-3.98.194-5.971a21.2,21.2,0,0,0-.575-5.91v0c-.067-.39-.162-.7-.23-.961a4.094,4.094,0,0,0-.567-1.166,14.056,14.056,0,0,0-1.035-1.833,11.878,11.878,0,0,1,1.269,1.392,9.879,9.879,0,0,0-2.04-2.423,14.206,14.206,0,0,0-1.4-1.48c-.065-.115.086-.065.062-.15a10.223,10.223,0,0,0-1.4-.941A13.316,13.316,0,0,0,62.5.213,10.949,10.949,0,0,0,59.636.005,21.783,21.783,0,0,0,56.18.33a32.824,32.824,0,0,0-6.731,1.991,6.733,6.733,0,0,1-1,.261,2.232,2.232,0,0,1-.424.348c-1.933.863-3.769,1.846-5.568,2.868-.286.151-.588.308-.889.466-1.378.784-2.754,1.57-2.754,1.57-.247.072-.309.029-.114-.123a12.53,12.53,0,0,1,1.208-.78c.994-.606,2.039-1.171,3-1.809a37.578,37.578,0,0,0-3.8,2.259C38.214,8,37.37,8.662,36.516,9.308c-.95.63-1.838,1.3-2.7,2Q31.66,12.829,29.6,14.432c.071-.069.147-.135.217-.2a20,20,0,0,1-2.231,1.585,12.434,12.434,0,0,0-2.07,1.669c.407-.274.938-.6,1.51-.991q-2.3,1.9-4.447,3.851c-.429.356-.649.478-.443.122a18.8,18.8,0,0,0-2.412,2.548c-.725.694-1.458,1.392-2.188,2.094.735-.987,2.714-2.943.383-.956L16.15,26.24a3.731,3.731,0,0,0-.667.547c-.408.362-.807.731-1.213,1.1s-.807.736-1.226,1.09c-.033.028-.56.461-.594.363a27.661,27.661,0,0,0-1.9,2.355,12.273,12.273,0,0,0-2.4,2.637c.559-.607,1.025-1.115,1.422-1.551,1.942-1.96,3.959-3.877,5.977-5.791a.722.722,0,0,1-.135.184A84.686,84.686,0,0,0,5.9,37.841c-.306.239.38-1,.435-1.217a10.028,10.028,0,0,0-.878,1.167c.251-1.033.66-2.892.921-3.585a16.22,16.22,0,0,0-1.539,4.565c-.009.019-.02.036-.031.055.433-2.367,1-4.718,1.523-7.071.519-2.316,1.049-4.632,1.737-6.922.34-1.138.72-2.268,1.156-3.385.379-.968,1.065-1.97.955-3a5.363,5.363,0,0,0-1.942-3.416c-.17-.138-.557-.432-.789-.2A2.989,2.989,0,0,0,7,15.774c-.177.409-.351.822-.517,1.235-.673,1.671-1.241,3.366-1.746,5.076-.021.036-.039.052-.051.038q0,.085-.012.185c-.4,1.362-.749,2.737-1.073,4.113a7.173,7.173,0,0,1,.254-1.728A41.094,41.094,0,0,0,2.148,31.2a34.248,34.248,0,0,0-.743,6.45c-.026.174-.053.348-.075.52-.636,2.319,0-2.43.05-3.941-.271,1.506-.61,3.013-.812,4.527C.36,40.3.245,41.858.088,43.407a16.931,16.931,0,0,0,.23,5.185A6.4,6.4,0,0,0,1.4,51.137l.289.4.147.2.2.249a2,2,0,0,0,1.912.825l.192-.027.189-.052a2.378,2.378,0,0,0,.369-.12c.121-.05.243-.1.362-.15s.246-.129.321-.174a33.855,33.855,0,0,0,3.186-2.66l.42-.319c1.479-1.118,2.95-2.245,4.448-3.349-.157-.376.817-.9,2.02-2.087l1.011-.49c-.352.172.14-.323-.22-.222q2.961-1.962,6.162-3.7c.555-.3,1.355-.543,1.543-1.094A2.145,2.145,0,0,0,23.9,37.13a6.5,6.5,0,0,0-1.461-2.662,1.724,1.724,0,0,0-.831-.605c-.218-.049-.388.094-.556.184q-.756.4-1.5.811c.4-.333.817-.644,1.253-.95l.334-.191a1.081,1.081,0,0,1,1.212.132,1.547,1.547,0,0,0-.817-.313,2.088,2.088,0,0,0-.753.3c-2.177,1.252-4.375,2.489-6.484,3.813a57.806,57.806,0,0,0-5.88,4.25,7.3,7.3,0,0,1,.918-.889q.913-.808,1.9-1.563c1.277-.979,2.6-1.907,3.944-2.83-.878.56-1.737,1.143-2.6,1.721-.629.459-1.255.921-1.9,1.37-.2.143-.78.681-1.094.667l-.133.466c-.743.574-1.126.851-1.3.951a.339.339,0,0,1-.045-.076c.246-.309,1.018-1.074.344-.694l-.311.242a3.762,3.762,0,0,1,.125-.375q.9-1.455,1.9-2.849a12.846,12.846,0,0,0,.854-1.153c.5-.655,1.008-1.3,1.538-1.94-.154.33.038.327.352.153,1.4-2.572,2.462-2.772,6.361-6.841a6.944,6.944,0,0,1-.74,1.028c-.286.339-.888.865-.924,1.288,1-1.193,2.134-2.314,3.206-3.468.54-.577,1.095-1.145,1.619-1.73a3.952,3.952,0,0,0,.861-1.131c1.506-1.379,3-2.759,4.583-4.085a59.02,59.02,0,0,1,5.053-3.928,13.125,13.125,0,0,0-1.117.9c-.141.125-.566.418-.457.6.174.3-.645.889-.834,1.064a65.267,65.267,0,0,1,10.4-7.9c1.982-1.092,4.018-2.113,6.087-3.059.058.058-.009.179-.227.42A28.727,28.727,0,0,0,50.85,6.456a21.865,21.865,0,0,1,3.925-1.651c-1,.325-1.97.691-2.948,1.045.242-.1.457-.2.663-.289C55.3,4.5,58.36,3.33,61.546,3.227c-.024.014-.053.026-.081.038-.2.089-.408.133.494.105a5.962,5.962,0,0,1,4.914,1.611,10.423,10.423,0,0,1,2.508,4.266c-.1-.253-.21-.5-.327-.746,0,0,.064.2.162.507a10.881,10.881,0,0,1,.233,1.138,9.431,9.431,0,0,1,.161,1.671c-.007.036-.019,0-.03.018a.7.7,0,0,0,.111.147c-.177,2.247-.42,4.5-.4,6.753a8.483,8.483,0,0,1,.077,2.244c-.039,1.036-.1,2.073-.186,3.108-.083,1.018-.177,2.034-.26,3.051a11.437,11.437,0,0,0-.086,1.9,32.176,32.176,0,0,1,.387-3.705l.331.255c-.278,2.682-.345.15-.4,2.731.531-.422.41-3.707.6-5.581a20.5,20.5,0,0,1,.007,2.806q.121-1.1.222-2.209-.112,1.372-.255,2.743c.014-.177.024-.354.033-.533-.144,1.465-.285,2.928-.44,4.391-.064-.152-.14-.1-.251.384a13.915,13.915,0,0,0-.209,4.711q-.092,1.329-.13,2.653a5.066,5.066,0,0,0-.365,1.353,14.744,14.744,0,0,0-.018,1.922c-.108-.865-.182-1.728-.255-2.593a5.938,5.938,0,0,0-.108,2.2,16.69,16.69,0,0,1,.351,2.122,11.846,11.846,0,0,0,.077-2.817c.154-.222.295,1.437.357,2.228-.012-.168-.012-.339-.012-.508.009.04.021.072.033.108A30.745,30.745,0,0,0,69.868,48.3a.071.071,0,0,1,0,.019c-.065-.163-.11-.571-.259-.685a36.788,36.788,0,0,0,1.978,5.044l-.046-.031c.052.082.1.155.15.23a22.754,22.754,0,0,0,1.457,2.383c-.178-.131-.134.023.519.872a1.875,1.875,0,0,1-.592-.609A9.336,9.336,0,0,1,72.33,54.5c-.472-.746-.878-1.5-1.271-2.278-.113-.266-.223-.536-.334-.8.172.45.358.9.537,1.346a2.247,2.247,0,0,1,.234.731c.025.227-.281-.11-.924-1.387a4.922,4.922,0,0,0,.786,1.645c.458.669.972,1.331,1.37,2.022-.091-.26.279.117.282-.01-.063.048,0,.127,0,0M28.182,19.6c-.583.49-1.159.973-1.643,1.381q1.77-1.6,3.766-3.148c.205-.117.477-.285.827-.513-1,.748-1.993,1.5-2.951,2.28-.583.49.359-.292,0,0M4.657,39.646v0m.014-.02c0-.005,0-.01,0-.016h0V39.6a.066.066,0,0,1,0,.014s.007,0,.01,0a.137.137,0,0,1-.008.012c0-.005,0-.005,0,0m.317-.471c.012-.108.024-.22.042-.335a5.173,5.173,0,0,1,.726-.774c-.263.368-.518.736-.768,1.109.012-.108.249-.373,0,0M5.4,37c-.067.491-.11.842-.134,1.085-.055.082-.11.168-.162.245.069-.375.158-.8.3-1.331-.067.491-.138.527,0,0M70.328,13.715q.008.823-.017,1.647a9.29,9.29,0,0,1,.017-1.647m-.158,3.963a18.524,18.524,0,0,0-.18-2.137c.107-.891.259-.689.321-.14-.038,1.339-.082,2.68-.115,4.022,0-.581,0-1.164-.026-1.745-.03-.767.026.555,0,0" transform="translate(0 0)" fill="url(#linear-gradient)"/>
      <path id="Path_25651" data-name="Path 25651" d="M.018,1.332C.041.791.049.362.033,0A8.422,8.422,0,0,0,.018,1.332" transform="translate(68.295 42.68)" fill="url(#linear-gradient)"/>
      <path id="Path_25652" data-name="Path 25652" d="M.012,0a.663.663,0,0,0,0,.272A2.283,2.283,0,0,0,.012,0" transform="translate(4.673 21.85)" fill="url(#linear-gradient)"/>
      <path id="Path_25653" data-name="Path 25653" d="M.15.292A1.606,1.606,0,0,1,0,0C.059.28.108.392.15.292" transform="translate(69.432 11.543)" fill="url(#linear-gradient)"/>
      <path id="Path_25654" data-name="Path 25654" d="M.115.953c.069-.392.3.575.565,1.21C.5,1.126-.291-1.356.115.953" transform="translate(68.752 9.38)" fill="url(#linear-gradient)"/>
      <path id="Path_25655" data-name="Path 25655" d="M2.551.873c.189.181.357.365.517.55L3.3,1.7a1.458,1.458,0,0,1,.212.337c.141.22.273.421.395.647A3.552,3.552,0,0,0,3.629,2L3.423,1.56C2.821.953,1.32-.722.222.351A.868.868,0,0,0,.046.609C.035.631-.016.727,0,.762A.083.083,0,0,0,.07.694C.094.646.12.6.146.552.789-.37,1.968.325,2.551.873c.189.181-.194-.183,0,0" transform="translate(6.613 14.077)" fill="url(#linear-gradient)"/>
      <path id="Path_25656" data-name="Path 25656" d="M1.225,0C.826.978.46,1.96.107,2.948.06,3.643.031,4.336,0,5.031.451,3.351.609,1.652,1.225,0" transform="translate(8.381 22.236)" fill="url(#linear-gradient)"/>
      <path id="Path_25657" data-name="Path 25657" d="M.032.708.082,0c-.1.646-.1.787-.05.708" transform="translate(6.942 29.942)" fill="url(#linear-gradient)"/>
      <path id="Path_25658" data-name="Path 25658" d="M.658,2c.162-1,.356-2,.356-2L.581,1.506c-.12.005-.389.974-.476,1.107L0,4.143a9.223,9.223,0,0,1,.268-1.38L.325,4S.492,3,.658,2s-.166,1,0,0" transform="translate(6.869 28.036)" fill="url(#linear-gradient)"/>
      <path id="Path_25659" data-name="Path 25659" d="M0,.267A2.59,2.59,0,0,1,.163.007C.129-.029.072.076,0,.267" transform="translate(6.381 33.94)" fill="url(#linear-gradient)"/>
      <path id="Path_25660" data-name="Path 25660" d="M2.046.193C1.506.54.987.908.465,1.271L0,1.78C.774,1.179,1.53.566,2.345,0l-.3.193" transform="translate(33.028 9.901)" fill="url(#linear-gradient)"/>
      <path id="Path_25661" data-name="Path 25661" d="M.1,0C-.029.085-.026.119.071.112.109.062.123.021.1,0" transform="translate(48.373 2.471)" fill="url(#linear-gradient)"/>
      <path id="Path_25662" data-name="Path 25662" d="M0,0C.171.311.342.576.528.99A4.757,4.757,0,0,0,0,0" transform="translate(72.924 7.512)" fill="url(#linear-gradient)"/>
      <path id="Path_25663" data-name="Path 25663" d="M0,.623Q.623.308,1.251,0L.285.31Z" transform="translate(47.51 2.162)" fill="url(#linear-gradient)"/>
      <path id="Path_25664" data-name="Path 25664" d="M.079.392c.174.313.316.636.468.954L.287.592C.092-.051-.118-.247.079.392" transform="translate(73.856 9.213)" fill="url(#linear-gradient)"/>
      <path id="Path_25665" data-name="Path 25665" d="M.184,0S.177.1.169.254c-.046.453-.1.9-.169,1.351l.193.983C.212,1.726.243.863.184,0" transform="translate(74.243 12.742)" fill="url(#linear-gradient)"/>
      <path id="Path_25666" data-name="Path 25666" d="M6.575,1.087l.562-.01A4.213,4.213,0,0,0,7.7,1.044c.376-.035.756-.071,1.14-.1-.7.027-1.447.106-2.224.067C6.229,1,5.835,1,5.438.99L4.258.88,3.665.828,1.973.529C1.614.45,1.276.347.942.263S.284.108,0,0A10.116,10.116,0,0,0,1.055.38,8.151,8.151,0,0,0,2.132.687a14.812,14.812,0,0,0,2.209.337l1.113.082c.372-.006.746-.015,1.12-.02" transform="translate(81.908 62.787)" fill="url(#linear-gradient)"/>
      <path id="Path_25667" data-name="Path 25667" d="M1.47,2.472C1.278,1.879,1.088,1.27.839.691a1.391,1.391,0,0,0-.4-.645C.234-.106.115.157,0,.249c.263.566.553,1.36.21.093,0,0,.289.543.6,1.076L1.47,2.472" transform="translate(68.424 48.478)" fill="url(#linear-gradient)"/>
      <path id="Path_25668" data-name="Path 25668" d="M.137.058,0,3.273.179,1.616A25,25,0,0,1,.4,4.257C.5,1.868.561-.394.137.058" transform="translate(67.689 28.615)" fill="url(#linear-gradient)"/>
      <path id="Path_25669" data-name="Path 25669" d="M.063,1.187C.074.827.092.423.111,0A2.111,2.111,0,0,0,.063,1.187" transform="translate(67.902 34.58)" fill="url(#linear-gradient)"/>
      <path id="Path_25670" data-name="Path 25670" d="M.093.43C.084.261.077.146.072,0,.046.579.02,1.16,0,1.709A4.235,4.235,0,0,0,.093.43c-.009-.169.033.679,0,0" transform="translate(68.013 32.871)" fill="url(#linear-gradient)"/>
      <path id="Path_25671" data-name="Path 25671" d="M.232,2.075c.247.424,0,1.112-.062,1.553a4.338,4.338,0,0,0-.1,1.855C.233,3.657.372,1.829.464,0,.391.691.324,1.384.232,2.075" transform="translate(68.257 20.816)" fill="url(#linear-gradient)"/>
      <path id="Path_25672" data-name="Path 25672" d="M12.283.029C12.094.014,11.9,0,11.9,0A35.028,35.028,0,0,0,6.18,2.082C4.412,2.838,2.691,3.715.825,4.319c.135-.022-.193.2-.21.208C.5,4.6.012,4.833,0,4.957c0-.007.7-.274.739-.295.316-.13.749-.313,1.334-.557A40.93,40.93,0,0,1,7.218,1.77a29.3,29.3,0,0,1,5.445-1.7s-.188-.026-.38-.039.192.014,0,0" transform="translate(46.232 4.366)" fill="url(#linear-gradient)"/>
      <path id="Path_25673" data-name="Path 25673" d="M.37,0A2.589,2.589,0,0,0,0,.117C.117.083.245.041.37,0" transform="translate(46.688 8.684)" fill="url(#linear-gradient)"/>
      <path id="Path_25674" data-name="Path 25674" d="M2.2.623C2.328.569,3.319.1,3.247.005A6.749,6.749,0,0,0,2.139.391C.792,1.08-.553,1.972.233,1.656A6.028,6.028,0,0,1,2.2.623c.262-.112-.259.115,0,0" transform="translate(40.894 9.769)" fill="url(#linear-gradient)"/>
      <path id="Path_25675" data-name="Path 25675" d="M2.067,1.216C2.938.46,4.14-.615,2.811.441.182,2.733,1.125,2.3,0,3.592A27.2,27.2,0,0,0,2.379,1.416c.139-.154.463-.422.456-.621,0-.105-.729.393-.769.421.872-.756.891-.671,0,0" transform="translate(26.063 19.169)" fill="url(#linear-gradient)"/>
      <path id="Path_25676" data-name="Path 25676" d="M.84,0,0,1.786l.577-.736Z" transform="translate(9.339 38.472)" fill="url(#linear-gradient)"/>
      <path id="Path_25677" data-name="Path 25677" d="M.336.761.5.691A4.475,4.475,0,0,0,1.146.359L1.77.244A.674.674,0,0,1,1.934.189,1.051,1.051,0,0,1,2.4.21a2.964,2.964,0,0,1,1.463.94,10.262,10.262,0,0,1,.8.954A6.427,6.427,0,0,0,3.533.687C3.143.335,2.355-.205,1.705.08c-.2.066-.392.131-.59.186L0,.894.225.8Z" transform="translate(19.492 33.047)" fill="url(#linear-gradient)"/>
      <path id="Path_25678" data-name="Path 25678" d="M0,3.292.33,3.14l.165-.078.087-.041A.387.387,0,0,0,.7,2.943,1.612,1.612,0,0,0,1.578.882C1.455.59,1.337.3,1.227,0a2.845,2.845,0,0,1,.158,2.22,1.547,1.547,0,0,1-.708.695Z" transform="translate(23.211 36.449)" fill="url(#linear-gradient)"/>
      <path id="Path_25679" data-name="Path 25679" d="M2.213.9,3.578,0C2.366.765,1.166,1.53,0,2.334a5.021,5.021,0,0,1,.876-.51c.435-.316.888-.617,1.337-.921.683-.451-.335.228,0,0" transform="translate(16.968 41.157)" fill="url(#linear-gradient)"/>
    </g>
  </g>
</svg>
