<svg id="Logo" xmlns="http://www.w3.org/2000/svg" width="186.298" height="40.125" viewBox="0 0 186.298 40.125">
  <path id="Path_39484" data-name="Path 39484" d="M8.357-42.629V-18.5H2.55V-42.629ZM2.55-48.007q0-1.047.024-1.571a1.052,1.052,0,0,1,.286-.762,1.34,1.34,0,0,1,.857-.262q.595-.024,1.737-.024t1.737.024a1.34,1.34,0,0,1,.857.262,1.052,1.052,0,0,1,.286.762q.024.524.024,1.571t-.024,1.571a1.052,1.052,0,0,1-.286.762,1.34,1.34,0,0,1-.857.262q-.595.024-1.737.024t-1.737-.024a1.34,1.34,0,0,1-.857-.262,1.052,1.052,0,0,1-.286-.762Q2.55-46.96,2.55-48.007ZM25.587-30.539a19.818,19.818,0,0,0-.119-2.142,5.534,5.534,0,0,0-.595-2,3.861,3.861,0,0,0-1.452-1.5,5.269,5.269,0,0,0-2.737-.595,5.269,5.269,0,0,0-2.737.595,3.861,3.861,0,0,0-1.452,1.5,5.534,5.534,0,0,0-.595,2,19.818,19.818,0,0,0-.119,2.142V-18.5H9.975V-30.539a18.436,18.436,0,0,1,.452-4.331,12.679,12.679,0,0,1,1.214-3.213,9.507,9.507,0,0,1,1.714-2.261,10.189,10.189,0,0,1,1.952-1.476,11.386,11.386,0,0,1,5.379-1.428,11.3,11.3,0,0,1,5.331,1.428,10.831,10.831,0,0,1,1.975,1.476A8.74,8.74,0,0,1,29.7-38.083a14,14,0,0,1,1.214,3.213,17.553,17.553,0,0,1,.476,4.331V-18.5H25.587Zm15.612,0a19.819,19.819,0,0,0-.119-2.142,5.534,5.534,0,0,0-.595-2,3.861,3.861,0,0,0-1.452-1.5,5.269,5.269,0,0,0-2.737-.595,5.269,5.269,0,0,0-2.737.595,3.861,3.861,0,0,0-1.452,1.5,5.534,5.534,0,0,0-.595,2,19.818,19.818,0,0,0-.119,2.142V-18.5H25.587V-30.539a18.436,18.436,0,0,1,.452-4.331,12.679,12.679,0,0,1,1.214-3.213,9.507,9.507,0,0,1,1.714-2.261,10.189,10.189,0,0,1,1.952-1.476A11.386,11.386,0,0,1,36.3-43.247a11.3,11.3,0,0,1,5.331,1.428A10.831,10.831,0,0,1,43.6-40.344a8.74,8.74,0,0,1,1.714,2.261A14,14,0,0,1,46.53-34.87a17.552,17.552,0,0,1,.476,4.331V-18.5H41.2Zm18.468-7.092a6,6,0,0,0-2.951.619,4.088,4.088,0,0,0-1.642,1.642,6.645,6.645,0,0,0-.714,2.285,19.426,19.426,0,0,0-.167,2.546,15.1,15.1,0,0,0,.19,2.285,6.862,6.862,0,0,0,.785,2.308,5.112,5.112,0,0,0,1.666,1.785,5.027,5.027,0,0,0,2.832.714,5.027,5.027,0,0,0,2.832-.714,4.9,4.9,0,0,0,1.642-1.785,7.192,7.192,0,0,0,.762-2.308,15.1,15.1,0,0,0,.19-2.285,15.1,15.1,0,0,0-.19-2.285,7.192,7.192,0,0,0-.762-2.308A4.9,4.9,0,0,0,62.5-36.917,5.027,5.027,0,0,0,59.667-37.631Zm-11.138,7.14a21.131,21.131,0,0,1,.619-5.355,10.281,10.281,0,0,1,1.975-4,8.828,8.828,0,0,1,3.451-2.523,13.134,13.134,0,0,1,5.093-.881,12.475,12.475,0,0,1,5.617,1.428,11.357,11.357,0,0,1,2.071,1.476,9,9,0,0,1,1.809,2.261,13.3,13.3,0,0,1,1.285,3.213,16.756,16.756,0,0,1,.5,4.331,18.436,18.436,0,0,1-.452,4.331,12.871,12.871,0,0,1-1.19,3.189A9.084,9.084,0,0,1,67.64-20.8a10.067,10.067,0,0,1-1.928,1.452,10.863,10.863,0,0,1-5.236,1.333,9.784,9.784,0,0,1-2.856-.619,8.981,8.981,0,0,1-2.427-1.523,7.666,7.666,0,0,1-2.047-3.046l1.047,1.38V-10.5H48.529Zm29.8-20.134V-18.5H72.519V-50.625ZM102.458-18.5H96.794v-3.332l1.047-1.38a7.666,7.666,0,0,1-2.047,3.046,8.981,8.981,0,0,1-2.427,1.523,9.784,9.784,0,0,1-2.856.619,10.863,10.863,0,0,1-5.236-1.333A10.066,10.066,0,0,1,83.347-20.8a9.084,9.084,0,0,1-1.666-2.213,12.87,12.87,0,0,1-1.19-3.189,18.436,18.436,0,0,1-.452-4.331,17.553,17.553,0,0,1,.476-4.331,12.683,12.683,0,0,1,1.261-3.213,9,9,0,0,1,1.809-2.261,11.357,11.357,0,0,1,2.07-1.476,12.57,12.57,0,0,1,5.664-1.428,13.134,13.134,0,0,1,5.093.881,8.828,8.828,0,0,1,3.451,2.523,10.281,10.281,0,0,1,1.975,4,21.131,21.131,0,0,1,.619,5.355ZM91.32-37.631a5.027,5.027,0,0,0-2.832.714,4.9,4.9,0,0,0-1.642,1.785,7.191,7.191,0,0,0-.762,2.308,15.1,15.1,0,0,0-.19,2.285,15.1,15.1,0,0,0,.19,2.285,7.191,7.191,0,0,0,.762,2.308,4.9,4.9,0,0,0,1.642,1.785,5.027,5.027,0,0,0,2.832.714,5.027,5.027,0,0,0,2.832-.714,5.112,5.112,0,0,0,1.666-1.785,6.863,6.863,0,0,0,.785-2.308,15.1,15.1,0,0,0,.19-2.285,19.427,19.427,0,0,0-.167-2.546,6.645,6.645,0,0,0-.714-2.285,4.088,4.088,0,0,0-1.642-1.642A6,6,0,0,0,91.32-37.631Z" transform="translate(-2.55 50.625)" fill="#9dd80e"/>
  <path id="Path_39483" data-name="Path 39483" d="M19-39.249V-50.625h5.664v20.039a17.553,17.553,0,0,1-.476,4.331,12.683,12.683,0,0,1-1.261,3.213A8.863,8.863,0,0,1,21.146-20.8,11.274,11.274,0,0,1,19.1-19.353a12.326,12.326,0,0,1-5.569,1.333,12.53,12.53,0,0,1-5.664-1.333A12,12,0,0,1,5.8-20.8a8.732,8.732,0,0,1-1.809-2.213,12.268,12.268,0,0,1-1.261-3.189,17.553,17.553,0,0,1-.476-4.331A18.436,18.436,0,0,1,2.7-34.87a13.314,13.314,0,0,1,1.19-3.213,9.39,9.39,0,0,1,1.666-2.261,9.6,9.6,0,0,1,1.928-1.476,10.917,10.917,0,0,1,5.236-1.428,9.932,9.932,0,0,1,2.856.714A9.8,9.8,0,0,1,18-40.939a7.882,7.882,0,0,1,2.047,3.07Zm-5.474,15.8a5.027,5.027,0,0,0,2.832-.714,5.112,5.112,0,0,0,1.666-1.785,6.862,6.862,0,0,0,.785-2.308A15.1,15.1,0,0,0,19-30.539a15.1,15.1,0,0,0-.19-2.285,6.862,6.862,0,0,0-.785-2.308,5.112,5.112,0,0,0-1.666-1.785,5.027,5.027,0,0,0-2.832-.714,5.027,5.027,0,0,0-2.832.714,4.9,4.9,0,0,0-1.642,1.785,7.191,7.191,0,0,0-.762,2.308,15.1,15.1,0,0,0-.19,2.285,15.1,15.1,0,0,0,.19,2.285,7.191,7.191,0,0,0,.762,2.308A4.9,4.9,0,0,0,10.7-24.161,5.027,5.027,0,0,0,13.531-23.447ZM48.753-33.633q.1.714.167,1.476t.071,1.618v.857H32.332q.1.809.238,1.642a7.736,7.736,0,0,0,.476,1.642,5.968,5.968,0,0,0,1.618,2.189,4.492,4.492,0,0,0,3.046.952,4.492,4.492,0,0,0,3.046-.952A5.968,5.968,0,0,0,42.375-26.4h6.188a10.95,10.95,0,0,1-1.071,2.9,11.185,11.185,0,0,1-1.523,2.142,8.7,8.7,0,0,1-1.785,1.5,13.139,13.139,0,0,1-1.856.976,12.557,12.557,0,0,1-4.617.857,12.53,12.53,0,0,1-5.664-1.333A12,12,0,0,1,29.976-20.8a8.732,8.732,0,0,1-1.809-2.213,12.268,12.268,0,0,1-1.261-3.189,17.553,17.553,0,0,1-.476-4.331,17.553,17.553,0,0,1,.476-4.331,12.683,12.683,0,0,1,1.261-3.213,9,9,0,0,1,1.809-2.261,11.358,11.358,0,0,1,2.071-1.476,12.57,12.57,0,0,1,5.664-1.428,13.326,13.326,0,0,1,4.9,1.095,11.593,11.593,0,0,1,1.928,1.119,9.164,9.164,0,0,1,1.809,1.714,11.221,11.221,0,0,1,1.476,2.427A12.329,12.329,0,0,1,48.753-33.633Zm-6,0a12.075,12.075,0,0,0-.595-1.523,4.86,4.86,0,0,0-.976-1.38,4.518,4.518,0,0,0-1.476-.976,5.17,5.17,0,0,0-2-.357,5.17,5.17,0,0,0-2,.357,4.518,4.518,0,0,0-1.476.976,5.286,5.286,0,0,0-1,1.38,7.441,7.441,0,0,0-.571,1.523Zm18.42-9.615q.143,0,1.023.048a9.072,9.072,0,0,1,2.071.4,12.209,12.209,0,0,1,2.523,1.119,8.793,8.793,0,0,1,2.475,2.189,11.791,11.791,0,0,1,1.88,3.594,16.772,16.772,0,0,1,.738,5.355V-18.5H66.079V-30.539a12.489,12.489,0,0,0-.19-2.142,6.009,6.009,0,0,0-.714-2,4.3,4.3,0,0,0-1.476-1.5,4.712,4.712,0,0,0-2.523-.595,4.712,4.712,0,0,0-2.523.595,4.3,4.3,0,0,0-1.476,1.5,6.009,6.009,0,0,0-.714,2,12.488,12.488,0,0,0-.19,2.142V-18.5H50.467V-30.539a16.772,16.772,0,0,1,.738-5.355,11.791,11.791,0,0,1,1.88-3.594,8.793,8.793,0,0,1,2.475-2.189A12.209,12.209,0,0,1,58.082-42.8a9.062,9.062,0,0,1,2.047-.4Q60.986-43.247,61.176-43.247Zm18.135,6.283V-26.35a2.715,2.715,0,0,0,.524,1.047,3.479,3.479,0,0,0,.928.714,3.15,3.15,0,0,0,1.547.333h3.617V-18.5H80.12a8.223,8.223,0,0,1-3.332-1.047,7.445,7.445,0,0,1-2.261-2.118A6.475,6.475,0,0,1,73.5-25.541V-49.1h5.807v6.473h5.474v5.664Z" transform="translate(100.371 50.625)" fill="#172972"/>
</svg>
