<?xml version="1.0" encoding="utf-8"?>
<!-- Generator: Adobe Illustrator 26.3.1, SVG Export Plug-In . SVG Version: 6.00 Build 0)  -->
<svg version="1.1" id="Layer_1" xmlns="http://www.w3.org/2000/svg" xmlns:xlink="http://www.w3.org/1999/xlink" x="0px" y="0px"
	 viewBox="0 0 90 54.6" style="enable-background:new 0 0 90 54.6;" xml:space="preserve">
<style type="text/css">
	.st0{fill:#01165B;}
	.st1{fill:#FF751D;}
</style>
<g id="Group_45713" transform="translate(-142 -28.765)">
	<g id="Group_45708" transform="translate(142 28.765)">
		<g id="Group_45705" transform="translate(0 0)">
			<g id="Group_45706">
				<path id="Path_26222" class="st0" d="M18.8,6.7c-2-0.1-3.9,0.9-4.9,2.6c-0.5-0.8-1.1-1.5-1.9-1.9C11.2,7,10.2,6.7,9.3,6.7
					C7.4,6.6,5.7,7.5,4.7,9.1V7.2H0v15.3h4.9v-8.2c-0.1-0.8,0.2-1.6,0.7-2.2c0.5-0.5,1.1-0.8,1.8-0.7c0.7,0,1.3,0.2,1.8,0.7
					c0.5,0.6,0.7,1.3,0.6,2.1v8.3h4.9v-8.2c-0.1-0.8,0.2-1.6,0.7-2.2c0.5-0.5,1.1-0.8,1.8-0.7c0.7,0,1.3,0.2,1.8,0.7
					c0.5,0.6,0.7,1.3,0.6,2.1v8.3h4.9V12.4c0.1-1.5-0.5-3-1.5-4.2C21.8,7.2,20.3,6.7,18.8,6.7"/>
				<path id="Path_26221" class="st0" d="M37.3,8.8c-1-1.4-2.7-2.1-4.4-2.1c-1.3,0-2.6,0.4-3.7,1.1c-1.1,0.7-2,1.7-2.6,2.9
					c-0.6,1.3-0.9,2.7-0.9,4.1c-0.1,2.1,0.7,4.2,2,5.8c1.3,1.5,3.1,2.4,5.1,2.3c1.7,0.1,3.4-0.7,4.4-2.1v1.7H42V7.2h-4.7V8.8z
					 M36.4,17.3c-0.6,0.7-1.5,1-2.4,1c-0.9,0-1.8-0.3-2.4-1c-0.6-0.7-0.9-1.6-0.9-2.5c0-0.9,0.3-1.8,0.9-2.5c0.6-0.7,1.5-1,2.4-1
					c0.9,0,1.8,0.3,2.4,1c0.6,0.7,1,1.6,0.9,2.5C37.4,15.7,37,16.6,36.4,17.3"/>
				<path id="Path_26220" class="st0" d="M58.4,9.1c-1.3-1.5-3.1-2.4-5.1-2.3c-1.6-0.1-3.2,0.6-4.2,1.9V0h-4.9v22.5h4.7v-1.6
					c1,1.4,2.7,2.1,4.4,2c2,0,3.8-0.8,5.1-2.3c1.4-1.6,2.1-3.6,2-5.8C60.5,12.7,59.7,10.7,58.4,9.1 M54.5,17.3L54.5,17.3
					c-1.4,1.3-3.4,1.3-4.7,0c0,0,0,0,0,0c-0.6-0.7-0.9-1.6-0.9-2.5c0-0.9,0.3-1.8,0.9-2.5c1.3-1.3,3.4-1.3,4.7-0.1c0,0,0,0,0.1,0.1
					c0.6,0.7,0.9,1.6,0.9,2.5C55.4,15.7,55.1,16.6,54.5,17.3"/>
			</g>
		</g>
	</g>
	<g id="Group_45712" transform="translate(142 54.637)">
		<g id="Group_45691" transform="translate(0 0)">
			<path id="Path_26214" class="st1" d="M10.1,7.2v4.3H4.9V16c0,1.6,0.7,2.4,2.2,2.4c1-0.1,1.9-0.4,2.7-1l1.7,3.8
				c-0.8,0.5-1.6,1-2.5,1.3c-1,0.3-2,0.4-3,0.4c-1.7,0.1-3.3-0.5-4.5-1.7c-1.1-1.3-1.6-3-1.5-4.6v-5.1l0,0V7.2l0,0V0h4.9v7.2H10.1z"
				/>
			<path id="Path_26215" class="st1" d="M27.4,7.2v8.8c0,1.1-0.2,2.1-0.6,3.1c-0.3,0.8-0.9,1.6-1.6,2.2c-0.7,0.6-1.5,1-2.3,1.3
				C21,23,19,23,17.1,22.5c-0.9-0.3-1.6-0.7-2.3-1.3c-0.7-0.6-1.2-1.3-1.6-2.2c-0.4-1-0.6-2-0.6-3.1V7.2h4.9v8.3
				c-0.1,0.8,0.2,1.5,0.7,2.1c1,1,2.6,1,3.7,0c0.5-0.6,0.7-1.4,0.7-2.1V7.2H27.4z"/>
			<path id="Path_26216" class="st1" d="M38.3,6.7c0.6,0,1.2,0.1,1.7,0.2l-0.5,4.9c-0.8-0.3-1.6-0.4-2.5-0.4c-0.8,0-1.5,0.2-2.1,0.7
				c-0.5,0.6-0.8,1.3-0.7,2.1v8.3h-4.9V7.2h4.7v1.8C35,7.5,36.6,6.6,38.3,6.7"/>
			<path id="Path_26217" class="st1" d="M46.8,0v12.2H48l3.6-5.1h5.9l-5.7,7.2l5.7,8.1h-5.9l-3.8-5.9h-1v5.9h-4.9V0H46.8z"/>
			<path id="Path_26218" class="st1" d="M64.9,6.7C67,6.7,69,7.5,70.5,9c1.5,1.6,2.2,3.7,2.1,5.8c0,0.5,0,1-0.1,1.5H62.1
				c0.3,1.5,1.7,2.6,3.3,2.5c1.2,0,2.4-0.5,3.3-1.3l3.2,2.9c-1.8,1.7-4.2,2.6-6.7,2.5c-2.2,0.1-4.3-0.7-5.8-2.2
				c-1.5-1.5-2.3-3.6-2.2-5.8c-0.1-2.2,0.7-4.3,2.2-5.9C60.8,7.5,62.8,6.7,64.9,6.7 M65,10.9c-1.4-0.1-2.6,0.9-2.8,2.3h5.6
				C67.5,11.9,66.3,10.8,65,10.9"/>
			<path id="Path_26219" class="st1" d="M90,7.2L78.7,28.8h-5.3l5.2-9.6L72.2,7.2h5.6l3.5,6.9l3.4-6.9H90z"/>
		</g>
	</g>
</g>
</svg>
