<?xml version="1.0" encoding="utf-8"?>
<!-- Generator: Adobe Illustrator 26.0.1, SVG Export Plug-In . SVG Version: 6.00 Build 0)  -->
<svg version="1.1" id="Layer_1" xmlns="http://www.w3.org/2000/svg" xmlns:xlink="http://www.w3.org/1999/xlink" x="0px" y="0px"
	 viewBox="0 0 138.2 42.5" style="enable-background:new 0 0 138.2 42.5;" xml:space="preserve">
<style type="text/css">
	.st0{enable-background:new    ;}
	.st1{fill:#262752;}
	.st2{clip-path:url(#SVGID_00000120552373870817635640000015768869983541005452_);}
	.st3{fill:#7276FD;}
</style>
<g id="Group_12747" transform="translate(-129.336 -35.241)">
	<g id="Group_12747-2" transform="translate(183.571 36.241)">
		<g class="st0">
			<path class="st1" d="M10.4,26.5V30H8.3c-1.8,0-3.2-0.4-4.1-1.3s-1.4-2.3-1.4-4.4v-7H0.5v-3.5h2.2v-4h4.1v4h3.6v3.5H6.8v7
				c0,0.8,0.2,1.3,0.5,1.6s0.8,0.5,1.6,0.5L10.4,26.5L10.4,26.5z"/>
			<path class="st1" d="M19.8,14.6c1-0.6,2.1-0.9,3.3-0.9v4.4H22c-3,0-4.5,1.4-4.5,4.2V30h-4.1V13.9h4.1V17
				C18.1,16,18.8,15.2,19.8,14.6z"/>
			<path class="st1" d="M25.6,7.7c0.5-0.4,1.1-0.6,1.8-0.6s1.4,0.2,1.8,0.6c0.4,0.4,0.7,1,0.7,1.6s-0.2,1.2-0.7,1.6
				c-0.5,0.4-1.1,0.6-1.8,0.6s-1.4-0.2-1.8-0.6c-0.5-0.4-0.7-0.9-0.7-1.6C24.9,8.7,25.2,8.1,25.6,7.7z M29.5,13.9V30h-4.1V13.9H29.5
				z"/>
			<path class="st1" d="M38.6,11.7c-0.5,0.4-0.7,1.2-0.7,2.2l0,0h3.2v3.5h-3.2V30h-4.1V17.4h-2.1v-3.5h2.1v-0.4
				c0-1.9,0.5-3.4,1.6-4.4s2.7-1.6,4.9-1.6c0.4,0,0.6,0,0.8,0V11C40,11.1,39.1,11.2,38.6,11.7z"/>
			<path class="st1" d="M47.7,8.5V30h-4.1V8.5H47.7z"/>
			<path class="st1" d="M66.6,22.8l-12,0c0.1,1.4,0.4,2.5,1.2,3.2s1.6,1,2.7,1c0.9,0,1.7-0.2,2.4-0.7c0.6-0.5,1-1.1,1.2-1.9h4.3
				c-0.2,1.1-0.7,2.1-1.4,3c-0.7,0.9-1.6,1.6-2.7,2.1c-1.1,0.5-2.3,0.8-3.6,0.8c-1.6,0-3-0.3-4.2-1s-2.2-1.6-2.8-2.9
				c-0.7-1.2-1-2.7-1-4.4c0-1.7,0.3-3.1,1-4.4c0.7-1.2,1.6-2.2,2.8-2.9s2.6-1,4.2-1c1.6,0,3,0.3,4.2,1c1.2,0.7,2.1,1.6,2.8,2.7
				c0.6,1.2,1,2.5,1,3.9C66.7,21.8,66.6,22.2,66.6,22.8z M61.3,18c-0.7-0.7-1.7-1-2.7-1c-1.1,0-2,0.3-2.8,1s-1.2,1.7-1.2,3h7.8
				C62.4,19.6,62.1,18.6,61.3,18z"/>
			<path class="st1" d="M79.6,15.2c1.2,1,1.9,2.3,2.2,3.9H78c-0.2-0.8-0.5-1.4-1-1.9s-1.2-0.7-2.1-0.7c-0.7,0-1.2,0.2-1.6,0.5
				s-0.6,0.8-0.6,1.3c0,0.4,0.2,0.8,0.5,1.1c0.3,0.3,0.7,0.5,1.2,0.6c0.5,0.2,1.1,0.3,2,0.6c1.2,0.3,2.2,0.6,3,0.9s1.4,0.8,2,1.4
				s0.8,1.5,0.8,2.6c0,1.4-0.5,2.5-1.6,3.3c-1.1,0.9-2.5,1.3-4.3,1.3c-2.1,0-3.8-0.5-5-1.4s-2-2.3-2.3-4h3.9c0.1,0.8,0.4,1.4,1,1.9
				s1.4,0.7,2.3,0.7c0.7,0,1.2-0.2,1.6-0.5s0.6-0.8,0.6-1.3s-0.2-0.8-0.5-1.1s-0.7-0.5-1.2-0.7s-1.1-0.3-2-0.6
				c-1.2-0.3-2.2-0.5-2.9-0.8c-0.7-0.3-1.4-0.7-1.9-1.3c-0.5-0.6-0.8-1.5-0.8-2.6c0-1.4,0.5-2.5,1.6-3.4s2.5-1.3,4.4-1.3
				C76.9,13.7,78.5,14.2,79.6,15.2z"/>
		</g>
	</g>
	<g id="Group_12748" transform="translate(129.336 38.367)">
		<g>
			<g>
				<defs>
					<rect id="SVGID_1_" y="0" width="43.1" height="39.4"/>
				</defs>
				<clipPath id="SVGID_00000163763527519827235820000007184155931419904411_">
					<use xlink:href="#SVGID_1_"  style="overflow:visible;"/>
				</clipPath>
				
					<g id="Group_12365" transform="translate(0 0)" style="clip-path:url(#SVGID_00000163763527519827235820000007184155931419904411_);">
					<path id="Path_25522" class="st3" d="M15.5,39.4L15.5,39.4L15.5,39.4L15.5,39.4z"/>
					<path id="Path_25523" class="st3" d="M32.2,0L32.2,0v1.2c0,2.9-4.8,5.2-10.7,5.2S10.8,4.1,10.8,1.2V0
						C0.5,5.9-3.1,19.1,2.8,29.4c2.7,4.7,7,8.2,12.2,9.8c0.2-0.5,1.9-1,4.1-1.2v-4.5h-5.9l0,0c-0.1,0-0.1,0-0.2,0c-1.1,0-2-0.9-2-2
						l0,0L8.9,10h5.6v4.7h4.6V10h4.7v4.7h4.6V10H34l-2.1,21.6c0,1.1-0.9,2-2,2c-0.1,0-0.1,0-0.2,0l0,0H24V38c2.3,0.2,4,0.6,4.4,1.1
						c11.3-3.8,17.4-16,13.6-27.2C40.3,6.9,36.8,2.6,32.2,0"/>
					<path id="Path_25524" class="st3" d="M27.8,39.3L27.8,39.3L27.8,39.3L27.8,39.3z"/>
				</g>
			</g>
		</g>
	</g>
</g>
</svg>
