<svg width="198" height="57" viewBox="0 0 198 57" fill="none" xmlns="http://www.w3.org/2000/svg">
<g clip-path="url(#clip0_353_737)">
<path d="M23.2078 51.6361H21.6012V55.8625H20.5709V51.6361H18.9644V50.6648H23.2165V51.6361H23.2078Z" fill="#231F20"/>
<path d="M28.3591 53.7887C28.3591 55.2237 27.4423 55.9588 26.1239 55.9588C24.8055 55.9588 23.8887 55.2237 23.8887 53.7887V50.6648H24.9277V53.7362C24.9277 54.5937 25.4079 54.9612 26.1239 54.9612C26.8399 54.9612 27.3201 54.585 27.3201 53.7362V50.6648H28.3591V53.7887Z" fill="#231F20"/>
<path d="M31.7033 50.6648C32.9432 50.6648 33.6068 51.2511 33.6068 52.2486C33.6068 53.1061 33.013 53.6837 32.0177 53.7799L33.6155 55.8625H32.3669L30.8564 53.7974H30.5508V55.8625H29.5205V50.6648H31.7121H31.7033ZM30.5421 51.6186V52.8874H31.6859C32.2447 52.8874 32.5415 52.6774 32.5415 52.2399C32.5415 51.8023 32.2359 51.6098 31.6859 51.6098H30.5421V51.6186Z" fill="#231F20"/>
<path d="M36.095 53.7186H35.6148V55.8537H34.5845V50.656H35.6148V52.7648H36.1037L37.8151 50.656H39.1073L36.9332 53.1936L39.2732 55.8537H37.9286L36.0863 53.7186H36.095Z" fill="#231F20"/>
<path d="M40.9322 55.8625H39.9019V50.6648H40.9322V55.8625Z" fill="#231F20"/>
<path d="M45.6647 51.9773C45.2543 51.7236 44.7654 51.5398 44.1978 51.5398C43.6303 51.5398 43.2024 51.7673 43.2024 52.1611C43.2024 52.5549 43.6477 52.6599 44.2764 52.7649L44.5733 52.8174C45.4988 52.9661 46.2235 53.3686 46.2235 54.2699C46.2235 55.4162 45.2194 55.9588 44.1018 55.9588C43.316 55.9588 42.469 55.7312 41.9189 55.2762L42.4603 54.4449C42.8357 54.7425 43.4469 55.005 44.1105 55.005C44.6868 55.005 45.1321 54.7775 45.1321 54.3749C45.1321 54.0162 44.7566 53.8849 44.0319 53.7624L43.7001 53.7099C42.7833 53.5612 42.1198 53.1586 42.1198 52.2223C42.1198 51.1373 43.0802 50.5773 44.1891 50.5773C44.9138 50.5773 45.5162 50.7435 46.1711 51.1285L45.6821 51.9773H45.6647Z" fill="#231F20"/>
<path d="M48.232 52.7561H50.7291V50.6648H51.7594V55.8625H50.7291V53.7274H48.232V55.8625H47.2017V50.6648H48.232V52.7561Z" fill="#231F20"/>
<path d="M58.36 51.9773C57.9496 51.7236 57.4607 51.5398 56.8931 51.5398C56.3256 51.5398 55.8978 51.7673 55.8978 52.1611C55.8978 52.5549 56.3431 52.6599 56.9717 52.7649L57.2686 52.8174C58.1941 52.9661 58.9188 53.3686 58.9188 54.2699C58.9188 55.4162 57.9147 55.9588 56.7971 55.9588C56.0113 55.9588 55.1643 55.7312 54.6143 55.2762L55.1556 54.4449C55.531 54.7425 56.1422 55.005 56.8058 55.005C57.3821 55.005 57.8274 54.7775 57.8274 54.3749C57.8274 54.0162 57.4519 53.8849 56.7272 53.7624L56.3954 53.7099C55.4787 53.5612 54.8151 53.1586 54.8151 52.2223C54.8151 51.1373 55.7755 50.5773 56.8844 50.5773C57.6091 50.5773 58.2116 50.7435 58.8664 51.1285L58.3775 51.9773H58.36Z" fill="#231F20"/>
<path d="M64.2712 53.7887C64.2712 55.2237 63.3544 55.9588 62.036 55.9588C60.7176 55.9588 59.8008 55.2237 59.8008 53.7887V50.6648H60.8398V53.7362C60.8398 54.5937 61.32 54.9612 62.036 54.9612C62.752 54.9612 63.2322 54.585 63.2322 53.7362V50.6648H64.2712V53.7887Z" fill="#231F20"/>
<path d="M66.4629 53.9637V55.8625H65.4326V50.6648H67.5456C68.7854 50.6648 69.4403 51.3123 69.4403 52.3186C69.4403 53.3249 68.7854 53.9637 67.5543 53.9637H66.4629ZM66.4629 51.6186V53.0099H67.5281C68.0869 53.0099 68.3838 52.7824 68.3838 52.3099C68.3838 51.8373 68.0869 51.6098 67.5281 51.6098H66.4629V51.6186Z" fill="#231F20"/>
<path d="M71.3872 53.9637V55.8625H70.3569V50.6648H72.4699C73.7098 50.6648 74.3646 51.3123 74.3646 52.3186C74.3646 53.3249 73.701 53.9637 72.4786 53.9637H71.3872ZM71.3872 51.6186V53.0099H72.4525C73.0113 53.0099 73.3081 52.7824 73.3081 52.3099C73.3081 51.8373 73.0113 51.6098 72.4525 51.6098H71.3872V51.6186Z" fill="#231F20"/>
<path d="M80.4938 53.2636C80.4938 54.8124 79.3674 55.9587 77.7696 55.9587C76.1718 55.9587 75.0454 54.8124 75.0454 53.2636C75.0454 51.7148 76.1718 50.5685 77.7696 50.5685C79.3674 50.5685 80.4938 51.7148 80.4938 53.2636ZM76.1194 53.2636C76.1194 54.2699 76.8091 54.9612 77.7608 54.9612C78.7126 54.9612 79.4023 54.2699 79.4023 53.2636C79.4023 52.2573 78.7126 51.566 77.7608 51.566C76.8091 51.566 76.1194 52.2573 76.1194 53.2636Z" fill="#231F20"/>
<path d="M83.6545 50.6648C84.8944 50.6648 85.5579 51.2511 85.5579 52.2486C85.5579 53.1061 84.9642 53.6837 83.9688 53.7799L85.5667 55.8625H84.3181L82.8076 53.7974H82.502V55.8625H81.4717V50.6648H83.6632H83.6545ZM82.4932 51.6186V52.8874H83.637C84.1959 52.8874 84.4927 52.6774 84.4927 52.2399C84.4927 51.8023 84.1871 51.6098 83.637 51.6098H82.4932V51.6186Z" fill="#231F20"/>
<path d="M90.2991 51.6361H88.6925V55.8625H87.6622V51.6361H86.0557V50.6648H90.3078V51.6361H90.2991Z" fill="#231F20"/>
<path d="M96.3326 51.9773C95.9223 51.7236 95.4333 51.5398 94.8658 51.5398C94.2983 51.5398 93.8704 51.7673 93.8704 52.1611C93.8704 52.5549 94.3157 52.6599 94.9444 52.7649L95.2412 52.8174C96.1668 52.9661 96.8915 53.3686 96.8915 54.2699C96.8915 55.4162 95.8874 55.9588 94.7697 55.9588C93.9839 55.9588 93.137 55.7312 92.5869 55.2762L93.1283 54.4449C93.5037 54.7425 94.1149 55.005 94.7785 55.005C95.3547 55.005 95.8 54.7775 95.8 54.3749C95.8 54.0162 95.4246 53.8849 94.6999 53.7624L94.3681 53.7099C93.4513 53.5612 92.7877 53.1586 92.7877 52.2223C92.7877 51.1373 93.7482 50.5773 94.8571 50.5773C95.5818 50.5773 96.1842 50.7435 96.8391 51.1285L96.3501 51.9773H96.3326Z" fill="#231F20"/>
<path d="M101.737 55.8625H97.8604V50.6648H101.702V51.6186H98.8906V52.7649H101.571V53.7187H98.8906V54.9175H101.728V55.8713L101.737 55.8625Z" fill="#231F20"/>
<path d="M105.029 50.6648C106.269 50.6648 106.932 51.2511 106.932 52.2486C106.932 53.1061 106.339 53.6837 105.343 53.7799L106.941 55.8625H105.693L104.182 53.7974H103.876V55.8625H102.846V50.6648H105.038H105.029ZM103.868 51.6186V52.8874H105.012C105.57 52.8874 105.867 52.6774 105.867 52.2399C105.867 51.8023 105.562 51.6098 105.012 51.6098H103.868V51.6186Z" fill="#231F20"/>
<path d="M110.538 55.8625H109.281L107.334 50.6648H108.434L109.918 54.8125L111.412 50.6648H112.485L110.538 55.8625Z" fill="#231F20"/>
<path d="M114.223 55.8625H113.193V50.6648H114.223V55.8625Z" fill="#231F20"/>
<path d="M120.134 51.7323L119.244 52.2748C118.947 51.8285 118.484 51.5573 117.899 51.5573C116.956 51.5573 116.266 52.2486 116.266 53.2548C116.266 54.2961 116.991 54.9524 117.899 54.9524C118.475 54.9524 118.938 54.6899 119.252 54.2436L120.099 54.8562C119.637 55.5299 118.859 55.9587 117.908 55.9587C116.31 55.9587 115.184 54.8299 115.184 53.2636C115.184 51.6973 116.31 50.5685 117.908 50.5685C118.859 50.5685 119.706 51.006 120.126 51.7323H120.134Z" fill="#231F20"/>
<path d="M124.945 55.8625H121.068V50.6648H124.91V51.6186H122.099V52.7649H124.779V53.7187H122.099V54.9175H124.936V55.8713L124.945 55.8625Z" fill="#231F20"/>
<path d="M129.547 51.9773C129.136 51.7236 128.647 51.5398 128.08 51.5398C127.512 51.5398 127.084 51.7673 127.084 52.1611C127.084 52.5549 127.53 52.6599 128.158 52.7649L128.455 52.8174C129.381 52.9661 130.105 53.3686 130.105 54.2699C130.105 55.4162 129.101 55.9588 127.984 55.9588C127.198 55.9588 126.351 55.7312 125.801 55.2762L126.342 54.4449C126.718 54.7425 127.329 55.005 127.992 55.005C128.569 55.005 129.014 54.7775 129.014 54.3749C129.014 54.0162 128.638 53.8849 127.914 53.7624L127.582 53.7099C126.665 53.5612 126.002 53.1586 126.002 52.2223C126.002 51.1373 126.962 50.5773 128.071 50.5773C128.796 50.5773 129.398 50.7435 130.053 51.1285L129.564 51.9773H129.547Z" fill="#231F20"/>
<path d="M169.562 57C185.268 57 198 44.2401 198 28.5C198 12.7599 185.268 0 169.562 0C153.856 0 141.124 12.7599 141.124 28.5C141.124 44.2401 153.856 57 169.562 57Z" fill="white"/>
<path d="M166.401 55.2236V37.9941L153.994 50.4284C157.574 52.9836 161.809 54.6811 166.401 55.2236Z" fill="#CE181E"/>
<path d="M169.562 1.58382C155.801 1.58382 144.459 11.9618 142.888 25.3324H172.714V55.2237C186.055 53.6574 196.411 42.2906 196.411 28.4913C196.411 13.6244 184.388 1.57507 169.553 1.57507L169.562 1.58382Z" fill="#CE181E"/>
<path d="M147.681 44.1019L160.088 31.6676H142.896C143.438 36.2703 145.132 40.5142 147.681 44.1019Z" fill="#CE181E"/>
<path d="M125.6 25.3411H108.993H100.052C98.3058 25.3411 96.8913 23.9235 96.8913 22.1734C96.8913 20.4234 98.3058 19.0058 100.052 19.0058H128.49L134.811 12.6705H100.052C94.8132 12.6705 90.5698 16.9232 90.5698 22.1734C90.5698 27.4237 94.8132 31.6764 100.052 31.6764H125.329C127.075 31.6764 128.49 33.0939 128.49 34.844C128.49 36.5941 127.075 38.0116 125.329 38.0116H96.8913L90.5698 44.3469H125.329C130.568 44.3469 134.811 40.0942 134.811 34.844C134.811 29.5938 130.716 25.4986 125.6 25.3498V25.3411Z" fill="#231F20"/>
<path d="M79.2629 25.3411H62.656H53.7151C51.9689 25.3411 50.5544 23.9235 50.5544 22.1734C50.5544 20.4234 51.9689 19.0058 53.7151 19.0058H82.153L88.4745 12.6705H53.7151C48.4763 12.6705 44.2329 16.9232 44.2329 22.1734C44.2329 27.4237 48.4763 31.6764 53.7151 31.6764H78.9923C80.7385 31.6764 82.153 33.0939 82.153 34.844C82.153 36.5941 80.7385 38.0116 78.9923 38.0116H50.5544L44.2329 44.3469H78.9923C84.2311 44.3469 88.4745 40.0942 88.4745 34.844C88.4745 29.5938 84.3795 25.4986 79.2629 25.3498V25.3411Z" fill="#231F20"/>
<path d="M6.32147 12.6619L0 18.9971H18.9557V44.3295H25.2772V18.9971H37.9114L44.2328 12.6619H6.32147Z" fill="#231F20"/>
</g>
<defs>
<clipPath id="clip0_353_737">
<rect width="198" height="57" fill="white"/>
</clipPath>
</defs>
</svg>
