<?xml version="1.0" encoding="utf-8"?>
<!-- Generator: Adobe Illustrator 26.0.3, SVG Export Plug-In . SVG Version: 6.00 Build 0)  -->
<svg version="1.1" id="Layer_1" xmlns="http://www.w3.org/2000/svg" xmlns:xlink="http://www.w3.org/1999/xlink" x="0px" y="0px"
	 viewBox="0 0 122 45" style="enable-background:new 0 0 122 45;" xml:space="preserve">
<style type="text/css">
	.st0{fill:#0F2851;}
</style>
<g id="Group_11857" transform="translate(-210 -56)">
	<g id="Group_11856" transform="translate(-92.326 952.495)">
		<g id="Group_11541" transform="translate(367.326 -893.012)">
			<path id="Path_25446" class="st0" d="M25.8,29.6c1.4,1.1,3.9,1.4,7.5,1.1v-4.8c-0.9,0-1.8-0.1-2.7-0.3c-1-0.3-1.7-1.4-1.6-2.4
				v-6.8h4.3v-5.1H29V5.7l-5.4,1.6v16C23.6,26.4,24.4,28.5,25.8,29.6z"/>
			<path id="Path_25447" class="st0" d="M49.5,29.6c1.4,1.1,3.9,1.4,7.5,1.1v-4.8c-0.9,0-1.8-0.1-2.7-0.3c-1-0.3-1.7-1.4-1.6-2.4
				v-6.8H57v-5.1h-4.3V5.7l-5.4,1.6v16C47.3,26.4,48,28.5,49.5,29.6z"/>
			<rect id="Rectangle_17" x="37.9" y="11.3" class="st0" width="5.4" height="19.5"/>
			<path id="Path_25448" class="st0" d="M38,1.1c-1.4,1.4-1.4,3.6,0,5l0.1,0.1c0.6,0.6,1.5,0.9,2.4,0.9h0.1c2,0,3.6-1.6,3.6-3.6
				c0,0,0,0,0,0c0-2-1.6-3.6-3.6-3.6h0C39.6,0,38.7,0.4,38,1.1L38,1.1z"/>
			<path id="Path_25449" class="st0" d="M2.6,28.7C4.4,30.1,6.7,31,9.1,31c0.2,0,0.3,0,0.5,0c2.5,0.1,5-0.7,7-2.3
				c1.7-1.5,2.7-3.6,2.6-5.9l0-11.6h-5.3l0,10.7c0,2.6-1.5,4-4.2,4s-4.2-1.4-4.2-4l0-10.7H0l0,11.5C-0.1,25,0.9,27.2,2.6,28.7z"/>
		</g>
	</g>
	<path id="Path_25566" class="st0" d="M232.5,56C220.1,56,210,66.1,210,78.5s10.1,22.5,22.5,22.5c12.4,0,22.5-10.1,22.5-22.5
		S244.9,56,232.5,56z M234.9,80.9L232.5,93l-2.4-12.1L218,78.5l12.1-2.4l2.4-12.1l2.4,12.1l12.1,2.4L234.9,80.9z"/>
</g>
</svg>
